<svg width="2000" height="1500" viewBox="0 0 2000 1500" fill="none" xmlns="http://www.w3.org/2000/svg">
<path d="M566.8 535.87H473.35V852.64H566.8V535.87Z" fill="#EDEDED"/>
<path d="M901.421 491.2L778.881 450.36V852.64H901.421V491.2Z" fill="#EDEDED"/>
<path d="M1039.23 551.86H929.48V852.64H1039.23V551.86Z" fill="#EDEDED"/>
<path d="M1039.23 506.47H964.961V659.13H1039.23V506.47Z" fill="#EDEDED"/>
<path d="M1039.22 551.86H984.35V480.89L1039.22 506.47V551.86Z" fill="#EDEDED"/>
<path d="M675.93 480.89H582.48V852.64H675.93V480.89Z" fill="#EDEDED"/>
<path d="M656.551 430.55H601.881V802.3H656.551V430.55Z" fill="#EDEDED"/>
<path d="M1351.98 566.09H1065.43V852.64H1351.98V566.09Z" fill="#EDEDED"/>
<path d="M1092.07 545.98H1073.26V584.97H1092.07V545.98Z" fill="#EDEDED"/>
<path d="M1345.37 545.98H1326.56V584.97H1345.37V545.98Z" fill="#EDEDED"/>
<path d="M1295.8 502.35H1124.37V589.61H1295.8V502.35Z" fill="#EDEDED"/>
<path d="M1263.47 462.12H1156.71V589.61H1263.47V462.12Z" fill="#EDEDED"/>
<path d="M460.351 597.65H355.141V852.63H460.351V597.65Z" fill="#EDEDED"/>
<path d="M448.59 575.79H366.9V624.89H448.59V575.79Z" fill="#EDEDED"/>
<path d="M439.631 535.87H375.881V584.97H439.631V535.87Z" fill="#EDEDED"/>
<path d="M414.971 515.96H400.531L375.881 535.87H439.621L414.971 515.96Z" fill="#EDEDED"/>
<path d="M416.711 610.34H355.141V852.64H416.711V610.34Z" fill="#8DD1E3" fill-opacity="0.6"/>
<path d="M502.34 679.65H398.67V852.64H502.34V679.65Z" fill="#8DD1E3" fill-opacity="0.6"/>
<path d="M543.58 624.89H485.73V852.64H543.58V624.89Z" fill="#8DD1E3" fill-opacity="0.6"/>
<path d="M613.46 579.41H529.26V852.63H613.46V579.41Z" fill="#8DD1E3" fill-opacity="0.6"/>
<path d="M702.239 636.12H600.289V852.64H702.239V636.12Z" fill="#8DD1E3" fill-opacity="0.6"/>
<path d="M811.06 541.61H718.27V852.64H811.06V541.61Z" fill="#8DD1E3" fill-opacity="0.6"/>
<path d="M867.77 616.43H793.02V852.64H867.77V616.43Z" fill="#8DD1E3" fill-opacity="0.6"/>
<path d="M964.949 651.5H884.369V852.64H964.949V651.5Z" fill="#8DD1E3" fill-opacity="0.6"/>
<path d="M1085.99 593.16H947.381V852.64H1085.99V593.16Z" fill="#8DD1E3" fill-opacity="0.6"/>
<path d="M1147.85 679.65H1044.75V852.64H1147.85V679.65Z" fill="#8DD1E3" fill-opacity="0.6"/>
<path d="M1398.71 624.09H1319.67V852.64H1398.71V624.09Z" fill="#8DD1E3" fill-opacity="0.6"/>
<path d="M1435.66 687.66H1372.51V852.63H1435.66V687.66Z" fill="#8DD1E3" fill-opacity="0.6"/>
<path d="M1500.09 655.59H1456.56V852.64H1500.09V655.59Z" fill="#8DD1E3" fill-opacity="0.6"/>
<path d="M1240.06 640.13H1170.69V852.64H1240.06V640.13Z" fill="#8DD1E3" fill-opacity="0.6"/>
<path d="M1289.89 697.12H1224.02V852.63H1289.89V697.12Z" fill="#8DD1E3" fill-opacity="0.6"/>
<path d="M301.51 626.85C301.51 626.85 332.63 672.61 344.44 725.58C355.44 774.79 361.2 852.64 361.2 852.64H377.78C377.78 852.64 365.78 770.83 353.66 722.47C341.54 674.11 303.52 623.69 303.52 623.69L301.51 626.85Z" fill="#7EC2D3"/>
<path d="M305.11 627.19C305.11 627.19 303.59 604.49 293.97 587.85C284.35 571.21 263.15 559.23 252.97 559.27C242.79 559.31 241.65 562.27 241.65 562.27L246.98 565.22L253.21 565.1L251.21 567.24L259.85 574.38L270.12 575.24L266.76 579C266.76 579 275.37 589 280.68 593.69C281.68 594.62 287.79 593.26 287.79 593.26L285.33 597.5L305.11 627.19Z" fill="#7EC2D3"/>
<path d="M222 583.88C222 583.88 234.72 575.39 259.06 579.45C283.4 583.51 305.11 627.19 305.11 627.19L271.73 606.56L273.73 602.34L268.09 605.72L248.4 597.83L256.27 592.03L245.72 596.76C242.794 593.47 239.302 590.73 235.41 588.67C231.33 586.53 222 583.88 222 583.88Z" fill="#7EC2D3"/>
<path d="M206.49 646C206.49 646 214.4 628.75 240.49 620.34C259.34 614.28 305.09 627.15 305.09 627.15L268.17 633.15L266.73 628.43L265.12 634.9L246.23 641.83L247.74 631.94L243.67 642.77C243.67 642.77 238.36 643.24 228.15 643.07C223.67 643 206.49 646 206.49 646Z" fill="#7EC2D3"/>
<path d="M305.11 627.19C305.11 627.19 279.47 598.51 241.85 594.51C204.23 590.51 186.85 595.64 186.85 595.64C186.85 595.64 200.44 605.31 202.48 606.89C204.52 608.47 213.3 604.09 213.3 604.09L208.38 609.3L219.49 618.53L226.99 613.16L224.31 619.8C224.31 619.8 243 625 248.6 625.43C254.2 625.86 258.17 618.81 258.17 618.81L257.28 625.74L305.11 627.19Z" fill="#7EC2D3"/>
<path d="M305.111 627.19C305.111 627.19 298.431 615.1 296.631 608.19C294.831 601.28 286.181 583.54 286.181 583.54L288.701 581.86L284.701 580.99L282.811 569.3C289.332 574.872 294.973 581.399 299.541 588.66C307.001 600.64 305.111 627.19 305.111 627.19Z" fill="#7EC2D3"/>
<path d="M305.11 627.19C305.11 627.19 281.73 627.3 265.34 635.47C255.061 640.685 245.435 647.096 236.66 654.57L259.33 651.14L260.28 646.93L262.75 650.63C262.75 650.63 271.68 648.96 275.56 647.63C278.062 646.76 280.479 645.662 282.78 644.35L279.78 636.35L284.56 642.62L305.11 627.19Z" fill="#7EC2D3"/>
<path d="M1325.21 626.85C1325.21 626.85 1356.64 672.61 1370.1 725.58C1382.61 774.79 1391.42 852.64 1391.42 852.64H1407.12C1407.12 852.64 1392.23 770.83 1378.7 722.47C1365.17 674.11 1327 623.69 1327 623.69L1325.21 626.85Z" fill="#7EC2D3"/>
<path d="M1328.63 627.19C1328.63 627.19 1326.22 604.49 1316.39 587.85C1306.56 571.21 1285.97 559.23 1276.3 559.27C1266.63 559.31 1265.7 562.27 1265.7 562.27L1270.88 565.22L1276.78 565.1L1275 567.2L1283.5 574.34L1293.26 575.2L1290.26 578.98C1290.26 578.98 1298.84 588.98 1304.07 593.67C1305.07 594.6 1310.79 593.24 1310.79 593.24L1308.64 597.48L1328.63 627.19Z" fill="#7EC2D3"/>
<path d="M1248 583.88C1248 583.88 1259.69 575.39 1282.92 579.45C1306.15 583.51 1328.59 627.19 1328.59 627.19L1296.09 606.56L1297.84 602.34L1292.64 605.72L1273.64 597.83L1280.85 592.03L1271.06 596.76C1268.18 593.501 1264.75 590.764 1260.94 588.67C1257 586.53 1248 583.88 1248 583.88Z" fill="#7EC2D3"/>
<path d="M1236 646C1236 646 1242.75 628.75 1267.13 620.34C1284.73 614.28 1328.62 627.15 1328.62 627.15L1293.91 633.15L1292.34 628.43L1291.09 634.9L1273.49 641.83L1274.49 631.94L1271.09 642.77C1271.09 642.77 1266.09 643.24 1256.4 643.07C1252.16 643 1236 646 1236 646Z" fill="#7EC2D3"/>
<path d="M1328.63 627.19C1328.63 627.19 1303.11 598.51 1267.3 594.51C1231.49 590.51 1215.3 595.64 1215.3 595.64C1215.3 595.64 1228.58 605.31 1230.58 606.89C1232.58 608.47 1240.72 604.09 1240.72 604.09L1236.28 609.3L1247.2 618.53L1254.08 613.16L1251.82 619.8C1251.82 619.8 1269.69 624.97 1275.07 625.43C1280.45 625.89 1283.84 618.81 1283.84 618.81L1283.3 625.74L1328.63 627.19Z" fill="#7EC2D3"/>
<path d="M1328.63 627.19C1328.63 627.19 1321.78 615.1 1319.78 608.19C1317.78 601.28 1308.78 583.54 1308.78 583.54L1311.09 581.86L1307.24 580.99L1305 569.31C1311.46 574.928 1317.08 581.448 1321.68 588.67C1329.29 600.64 1328.63 627.19 1328.63 627.19Z" fill="#7EC2D3"/>
<path d="M1328.63 627.19C1328.63 627.19 1306.49 627.3 1291.31 635.47C1281.76 640.711 1272.91 647.127 1264.96 654.57L1286.29 651.14L1287.01 646.93L1289.5 650.63C1293.55 649.839 1297.56 648.838 1301.5 647.63C1303.84 646.757 1306.09 645.659 1308.21 644.35L1304.98 636.35L1309.77 642.62L1328.63 627.19Z" fill="#7EC2D3"/>
<path d="M421.301 564.22C421.301 564.22 460.301 622.67 474.471 690.33C487.661 753.19 493.731 852.64 493.731 852.64H514.901C514.901 852.64 500.901 748.14 486.301 686.36C471.701 624.58 423.911 560.18 423.911 560.18L421.301 564.22Z" fill="#7EC2D3"/>
<path d="M423.911 560.18L421.301 564.18C430.029 577.824 437.908 591.995 444.891 606.61C444.753 602.219 445.038 597.826 445.741 593.49C433.691 573.37 423.911 560.18 423.911 560.18Z" fill="#7EC2D3"/>
<path d="M486.3 686.36C481.62 666.59 473.52 646.52 464.69 628.36C464.601 634.602 465.481 640.819 467.3 646.79C471.69 659.79 486.45 704.4 496.23 734.52C493.07 717.41 489.7 700.73 486.3 686.36Z" fill="#7EC2D3"/>
<path d="M493.73 852.64H514.9C514.9 852.64 510 816.18 503 773.6C501.16 788.93 495.21 805.36 490.91 815.7C492.82 837.68 493.73 852.64 493.73 852.64Z" fill="#7EC2D3"/>
<path d="M450.83 619.39C453.307 618.156 455.678 616.722 457.92 615.1C457.087 613.527 456.253 611.977 455.42 610.45C453.31 612.061 451.05 613.464 448.67 614.64C449.39 616.214 450.11 617.797 450.83 619.39Z" fill="#7EC2D3"/>
<path d="M462.911 649.58C465.001 645.83 467.201 642.14 469.421 638.47C468.547 636.53 467.661 634.607 466.761 632.7C464.671 636.15 462.581 639.6 460.551 643.09C461.351 645.23 462.131 647.39 462.911 649.58Z" fill="#7EC2D3"/>
<path d="M491.58 710.49C487.07 710.441 482.567 710.107 478.1 709.49C478.386 711.21 478.676 712.944 478.97 714.69C483.494 715.272 488.048 715.586 492.61 715.63C492.263 713.877 491.92 712.164 491.58 710.49Z" fill="#7EC2D3"/>
<path d="M493.841 721.89C489.087 721.296 484.372 720.425 479.721 719.28C480.001 721.074 480.277 722.867 480.551 724.66C485.262 725.756 490.034 726.577 494.841 727.12C494.511 725.37 494.181 723.62 493.841 721.89Z" fill="#7EC2D3"/>
<path d="M502.581 770.93C497.037 773.69 492.01 777.384 487.721 781.85C487.981 784.29 488.221 786.7 488.461 789.08C492.55 783.883 497.653 779.572 503.461 776.41C503.154 774.603 502.861 772.776 502.581 770.93Z" fill="#7EC2D3"/>
<path d="M500.679 759.65C495.685 762.072 490.848 764.808 486.199 767.84C486.429 769.84 486.649 771.84 486.869 773.84C491.299 770.23 496.449 767.59 501.599 764.97C501.299 763.24 500.999 761.44 500.679 759.65Z" fill="#7EC2D3"/>
<path d="M508.449 807.91C504.608 809.432 500.911 811.293 497.399 813.47C495.215 814.775 493.115 816.214 491.109 817.78C491.309 820.19 491.509 822.5 491.689 824.72C493.979 821.57 497.849 819.35 501.019 817.43C503.657 815.833 506.408 814.429 509.249 813.23C508.999 811.5 508.719 809.72 508.449 807.91Z" fill="#7EC2D3"/>
<path d="M425.89 564.65C425.89 564.65 429.17 538.46 420.74 517.65C412.31 496.84 388.07 479.2 375.06 477.33C362.05 475.46 360 478.59 360 478.59L366.11 482.96L374.11 483.96L371.11 486.04L380.48 495.81L393.35 498.72L388.19 502.39C388.19 502.39 397.74 512.78 403.03 519.44C408.32 526.1 411.69 522.62 411.69 522.62L409.69 525.67L425.89 564.65Z" fill="#7EC2D3"/>
<path d="M334.359 487.53C334.359 487.53 353.049 480.88 382.529 492.94C412.009 505 425.889 564.65 425.889 564.65L390.139 529.73L394.019 525.18L385.839 527.65L363.419 512.27L375.169 507.49L360.379 510.19C357.686 505.292 354.125 500.925 349.869 497.3C345.329 493.49 334.359 487.53 334.359 487.53Z" fill="#7EC2D3"/>
<path d="M297.23 577.45C297.23 577.45 309.58 556.53 344.1 548.83C369.01 543.27 425.89 564.65 425.89 564.65L377.89 568.09L376.64 562L373.74 570L348.66 576.65L351.88 564.32L345.26 577.56C345.26 577.56 338.4 577.56 325.36 576.19C319.61 575.55 297.23 577.45 297.23 577.45Z" fill="#7EC2D3"/>
<path d="M425.89 564.65C425.89 564.65 401.67 525 361.71 514.83C321.75 504.66 302.49 508.71 302.49 508.71C302.49 508.71 316 522.75 318 525C320 527.25 330 523 330 523L324 528.87L334.9 542L343.59 536.28L339.93 544.28C339.93 544.28 359.36 553.34 365.37 554.7C371.38 556.06 376.42 547.7 376.42 547.7L374.66 556.3L425.89 564.65Z" fill="#7EC2D3"/>
<path d="M425.889 564.65C425.889 564.65 421.949 547.8 422.229 538.88C422.509 529.96 418.179 505.63 418.179 505.63L421.949 504.48L417.219 502L411.609 491.06C411.609 491.06 427.999 499.44 432.999 516.42C437.999 533.4 425.889 564.65 425.889 564.65Z" fill="#7EC2D3"/>
<path d="M425.889 564.65C425.889 564.65 395.889 558.35 373.529 568.81C351.169 579.27 333.529 595.97 333.529 595.97H363.199L365.129 588.48L367.659 595.97C367.659 595.97 379.389 595.39 384.579 594.05C388.001 593.115 391.298 591.772 394.399 590.05L391.839 574.51L396.909 587.36L425.889 564.65Z" fill="#7EC2D3"/>
<path d="M355.81 583.13C353.22 586.277 350.366 589.198 347.28 591.86C347.04 592.07 347.43 592.43 347.67 592.23C350.752 589.559 353.605 586.636 356.2 583.49C356.4 583.24 356 582.88 355.81 583.13Z" fill="#7EC2D3"/>
<path d="M359.94 586.67C359.073 588.274 357.993 589.754 356.73 591.07C356.51 591.3 356.89 591.67 357.12 591.44C358.408 590.088 359.511 588.571 360.4 586.93C360.55 586.65 360.09 586.39 359.94 586.67Z" fill="#7EC2D3"/>
<path d="M369.881 586.16C369.862 586.095 369.818 586.04 369.759 586.008C369.7 585.975 369.631 585.967 369.566 585.985C369.501 586.004 369.446 586.048 369.413 586.107C369.38 586.166 369.372 586.235 369.391 586.3C369.79 587.639 370.068 589.012 370.221 590.4C370.221 590.73 370.771 590.73 370.731 590.4C370.571 588.965 370.287 587.546 369.881 586.16V586.16Z" fill="#7EC2D3"/>
<path d="M377 589.41C376.26 587.199 375.698 584.932 375.32 582.63C375.27 582.3 374.76 582.3 374.81 582.63C375.193 584.975 375.762 587.285 376.51 589.54C376.59 589.86 377.07 589.73 377 589.41Z" fill="#7EC2D3"/>
<path d="M382.26 588.54C381.76 587.06 381.21 585.59 380.6 584.15C380.47 583.84 379.98 583.97 380.11 584.29C380.73 585.73 381.28 587.19 381.78 588.67C381.88 589 382.37 588.86 382.26 588.54Z" fill="#7EC2D3"/>
<path d="M388.361 585.38C387.387 583.26 386.471 581.12 385.611 578.96C385.481 578.65 385.001 578.78 385.121 579.1C385.981 581.26 386.901 583.4 387.881 585.52C388.001 585.82 388.511 585.69 388.361 585.38Z" fill="#7EC2D3"/>
<path d="M318.6 561.2C315.288 564.524 311.661 567.518 307.77 570.14C307.5 570.32 307.77 570.77 308.05 570.59C311.975 567.949 315.635 564.935 318.98 561.59C319.21 561.34 318.82 561 318.6 561.2Z" fill="#7EC2D3"/>
<path d="M326.84 561.93L319.84 567.83C319.6 568.04 319.98 568.4 320.23 568.19L327.23 562.29C327.47 562.08 327.09 561.72 326.84 561.93Z" fill="#7EC2D3"/>
<path d="M337.18 559.1C333.182 562.901 329.549 567.069 326.33 571.55C326.15 571.8 326.53 572.17 326.72 571.91C329.934 567.428 333.567 563.262 337.57 559.47C337.8 559.25 337.41 558.89 337.18 559.1Z" fill="#7EC2D3"/>
<path d="M345.561 561C343.567 562.749 341.826 564.769 340.391 567C340.211 567.27 340.671 567.52 340.841 567.26C342.263 565.084 343.979 563.115 345.941 561.41C346.181 561.17 345.801 560.81 345.561 561Z" fill="#7EC2D3"/>
<path d="M338.18 514C329.9 512.37 321.52 510.76 313.18 511.51C312.86 511.51 312.89 512.06 313.18 512.03C321.45 511.28 329.78 512.87 338.01 514.49C338.075 514.512 338.146 514.508 338.208 514.478C338.27 514.448 338.318 514.395 338.34 514.33C338.363 514.265 338.358 514.193 338.328 514.132C338.298 514.07 338.245 514.022 338.18 514V514Z" fill="#7EC2D3"/>
<path d="M333.58 517.13L320.58 516.94C320.25 516.94 320.29 517.44 320.58 517.45L333.58 517.64C334 517.65 333.91 517.14 333.58 517.13Z" fill="#7EC2D3"/>
<path d="M346.941 523.24C343.266 526.108 339 528.123 334.451 529.14C334.131 529.21 334.3 529.71 334.62 529.63C339.214 528.59 343.518 526.54 347.221 523.63C347.471 523.48 347.191 523 346.941 523.24Z" fill="#7EC2D3"/>
<path d="M349.26 527.58C346.414 529.491 343.262 530.898 339.94 531.74C339.63 531.82 339.8 532.31 340.11 532.23C343.475 531.388 346.666 529.963 349.54 528.02C349.81 527.85 349.52 527.4 349.26 527.58Z" fill="#7EC2D3"/>
<path d="M366.641 534.93C360.505 536.402 354.542 538.517 348.851 541.24C348.561 541.38 348.851 541.82 349.141 541.69C354.793 538.983 360.716 536.882 366.811 535.42C367.131 535.35 367.001 534.85 366.641 534.93Z" fill="#7EC2D3"/>
<path d="M373.509 538.58C369.564 539.685 365.82 541.414 362.419 543.7C362.159 543.88 362.419 544.33 362.709 544.15C366.08 541.881 369.795 540.169 373.709 539.08C373.999 539 373.819 538.49 373.509 538.58Z" fill="#7EC2D3"/>
<path d="M365.219 490.84C359.407 489.289 353.383 488.684 347.379 489.05C347.32 489.061 347.267 489.093 347.229 489.14C347.191 489.186 347.17 489.245 347.17 489.305C347.17 489.365 347.191 489.423 347.229 489.47C347.267 489.516 347.32 489.548 347.379 489.56C353.337 489.196 359.314 489.797 365.079 491.34C365.439 491.42 365.549 490.93 365.219 490.84Z" fill="#7EC2D3"/>
<path d="M372.801 493.71C368.064 492.989 363.267 492.745 358.481 492.98C358.161 492.98 358.191 493.5 358.481 493.49C363.219 493.258 367.969 493.496 372.661 494.2C373.001 494.25 373.131 493.76 372.801 493.71Z" fill="#7EC2D3"/>
<path d="M366.82 498.33C364.353 498.755 361.861 499.009 359.36 499.09C359.03 499.09 359.07 499.62 359.36 499.6C361.905 499.517 364.441 499.256 366.95 498.82C367.31 498.76 367.14 498.27 366.82 498.33Z" fill="#7EC2D3"/>
<path d="M390.221 489C385.918 487.405 381.465 486.246 376.931 485.54C376.611 485.48 376.501 485.98 376.831 486.03C381.367 486.735 385.82 487.897 390.121 489.5C390.441 489.63 390.541 489.14 390.221 489Z" fill="#7EC2D3"/>
<path d="M380.639 483.07C377.236 481.737 373.749 480.631 370.199 479.76C370.139 479.76 370.081 479.781 370.035 479.819C369.988 479.857 369.956 479.91 369.944 479.969C369.933 480.028 369.942 480.089 369.97 480.142C369.998 480.195 370.044 480.237 370.099 480.26C373.647 481.132 377.135 482.235 380.539 483.56C380.849 483.69 380.999 483.19 380.639 483.07Z" fill="#7EC2D3"/>
<path d="M428.641 515C427.121 513.071 425.23 511.466 423.081 510.28C422.791 510.11 422.561 510.55 422.851 510.72C424.925 511.86 426.751 513.403 428.221 515.26C428.431 515.53 428.851 515.28 428.641 515Z" fill="#7EC2D3"/>
<path d="M386.47 506.52C383.21 509.52 378.87 510.8 374.63 512C374.32 512.09 374.48 512.58 374.8 512.49C379.13 511.27 383.53 509.95 386.85 506.89C387.09 506.67 386.7 506.31 386.47 506.52Z" fill="#7EC2D3"/>
<path d="M383 515.33C382.115 515.905 381.147 516.34 380.13 516.62C379.81 516.71 379.98 517.2 380.3 517.11C381.364 516.823 382.376 516.371 383.3 515.77C383.54 515.6 383.26 515.16 383 515.33Z" fill="#7EC2D3"/>
<path d="M582.271 852.64C582.271 852.64 588.001 776 585.591 726C583.181 676 548.48 605.88 548.48 605.88L552.32 603.62C552.32 603.62 590.06 674.1 595.8 720.28C601.54 766.46 600.25 852.63 600.25 852.63L582.271 852.64Z" fill="#7EC2D3"/>
<path d="M585.59 726C588.02 776 582.27 852.63 582.27 852.63H586C588 848.19 591 839.74 592.85 825.31C595.95 801.43 591.85 729.31 592.12 717.42C592.39 705.53 575 661.85 569 655C577 677.31 584.5 703.68 585.59 726Z" fill="#7EC2D3"/>
<path d="M585.92 776.43C590.821 777.407 595.5 779.282 599.72 781.96C599.67 780.26 599.62 778.54 599.57 776.83C595.337 774.498 590.754 772.866 586 772C586 773.5 586 775 585.92 776.43Z" fill="#7EC2D3"/>
<path d="M594.291 711.74C593.337 715.47 591.564 718.941 589.101 721.9C588.014 723.111 586.826 724.229 585.551 725.24C585.551 725.49 585.551 725.75 585.551 726.01C585.631 727.71 585.711 729.45 585.771 731.21C586.916 730.016 588.165 728.925 589.501 727.95C591.029 726.599 592.407 725.087 593.611 723.44C594.395 722.376 595.107 721.26 595.741 720.1C595.391 717.3 594.921 714.42 594.351 711.47C594.321 711.557 594.301 711.648 594.291 711.74V711.74Z" fill="#7EC2D3"/>
<path d="M585 718.23C588.234 715.773 591.298 713.101 594.17 710.23C593.81 708.45 593.413 706.643 592.98 704.81C590.395 707.826 587.503 710.564 584.35 712.98C584.57 714.75 584.79 716.5 585 718.23Z" fill="#7EC2D3"/>
<path d="M599.761 783.42C595.332 781.57 590.623 780.478 585.831 780.19L585.711 784.63C590.601 784.74 595.301 786.27 599.881 788.12L599.761 783.42Z" fill="#7EC2D3"/>
<path d="M600.37 835.17C600.37 833.73 600.37 832.17 600.37 830.63C594.399 831.542 588.64 833.52 583.37 836.47C583.24 838.47 583.13 840.41 583.02 842.12C588.25 838.35 594.15 836.38 600.37 835.17Z" fill="#7EC2D3"/>
<path d="M568.391 653.34C570.915 653.448 573.429 653.712 575.921 654.13C575.254 652.53 574.588 650.95 573.921 649.39C571.529 649.081 569.122 648.9 566.711 648.85C567.278 650.33 567.838 651.826 568.391 653.34Z" fill="#7EC2D3"/>
<path d="M579.27 662.451C578.69 660.951 578.09 659.45 577.5 657.98C575.07 657.945 572.642 658.146 570.25 658.581C570.74 659.991 571.25 661.42 571.72 662.86C574.211 662.424 576.746 662.287 579.27 662.451V662.451Z" fill="#7EC2D3"/>
<path d="M600.23 807.51C600.23 805.79 600.23 804.03 600.16 802.26C594.465 805.821 589.215 810.048 584.52 814.85C584.41 817.18 584.3 819.45 584.18 821.63C589.14 816.54 594.31 811.46 600.23 807.51Z" fill="#7EC2D3"/>
<path d="M600.31 815.66C594.678 818.716 589.232 822.102 584 825.8C583.893 827.8 583.783 829.737 583.67 831.61C589.018 827.673 594.602 824.067 600.39 820.81C600.34 819.13 600.33 817.41 600.31 815.66Z" fill="#7EC2D3"/>
<path d="M553.39 607.94C553.39 607.94 530.65 580.86 504.39 569.56C487.65 562.537 470.163 557.447 452.27 554.39L478.56 577.49L484.87 574.59L482.5 581C482.5 581 493.26 589.8 498.69 593.06C502.253 595.143 505.994 596.907 509.87 598.33L517.14 587.2L513.75 598.71L553.39 607.94Z" fill="#7EC2D3"/>
<path d="M479.859 564.17C475.518 563.988 471.197 563.487 466.929 562.67C466.589 562.6 466.709 563.12 467.049 563.18C471.322 564.006 475.651 564.51 479.999 564.69C480.309 564.7 480.189 564.19 479.859 564.17Z" fill="#7EC2D3"/>
<path d="M481.34 569.48C479.506 569.751 477.643 569.782 475.8 569.57C475.46 569.57 475.58 570.04 475.92 570.08C477.807 570.292 479.712 570.261 481.59 569.99C481.9 569.94 481.65 569.43 481.34 569.48Z" fill="#7EC2D3"/>
<path d="M490.48 576.92C490.59 576.66 490.08 576.36 489.96 576.62C489.499 577.715 488.901 578.747 488.18 579.69C488.01 579.91 488.47 580.31 488.64 580.09C489.38 579.113 489.997 578.048 490.48 576.92Z" fill="#7EC2D3"/>
<path d="M494.781 584.36C495.47 582.502 496.366 580.728 497.451 579.07C497.601 578.83 497.151 578.43 497.001 578.67C495.893 580.361 494.974 582.168 494.261 584.06C494.161 584.33 494.681 584.63 494.781 584.36Z" fill="#7EC2D3"/>
<path d="M499.999 588C500.47 586.731 500.877 585.44 501.219 584.13C501.289 583.85 500.779 583.54 500.699 583.83C500.365 585.144 499.961 586.439 499.489 587.71C499.399 588 499.909 588.25 499.999 588Z" fill="#7EC2D3"/>
<path d="M507.371 590.87C507.801 588.87 508.291 586.87 508.861 584.95C508.941 584.67 508.421 584.37 508.341 584.65C507.781 586.59 507.284 588.567 506.851 590.58C506.791 590.86 507.301 591.17 507.371 590.87Z" fill="#7EC2D3"/>
<path d="M441.57 619C441.57 619 452.57 600.85 482.65 594.16C504.34 589.34 553.39 607.9 553.39 607.9L511.67 610.9L510.67 605.58L508.04 612.52L486.2 618.3L489.2 607.61L483.27 619.09C483.27 619.09 477.32 619.09 466.02 617.91C461 617.39 441.57 619 441.57 619Z" fill="#7EC2D3"/>
<path d="M476.5 603.12C472.971 606.41 469.757 610.022 466.9 613.91C466.74 614.14 467.07 614.45 467.23 614.23C470.09 610.341 473.303 606.726 476.83 603.43C477 603.24 476.7 602.93 476.5 603.12Z" fill="#7EC2D3"/>
<path d="M483.741 604.78C481.988 606.285 480.447 608.021 479.161 609.94C479.011 610.18 479.401 610.4 479.561 610.17C480.824 608.281 482.342 606.575 484.071 605.1C484.281 604.91 484.001 604.6 483.741 604.78Z" fill="#7EC2D3"/>
<path d="M553.39 607.94C553.39 607.94 549.03 568.84 520.78 546.41C492.53 523.98 475.49 520 475.49 520C475.49 520 480.97 535.65 481.72 538.12C482.47 540.59 492.11 541 492.11 541L485.11 543.33L488.83 557.33L498.01 556.16L492.01 560.9C492.01 560.9 504.17 574.9 508.49 578.18C512.81 581.46 520.05 576.88 520.05 576.88L515.36 582.8L553.39 607.94Z" fill="#7EC2D3"/>
<path d="M505.69 547.39C501.634 548.234 497.445 548.206 493.4 547.31C493.11 547.25 493.06 547.69 493.34 547.75C497.425 548.65 501.653 548.68 505.75 547.84C506 547.78 506 547.34 505.69 547.39Z" fill="#7EC2D3"/>
<path d="M505.9 551.56C502.883 551.971 499.819 551.887 496.83 551.31C496.54 551.31 496.49 551.69 496.77 551.75C499.812 552.341 502.93 552.425 506 552C506.058 551.986 506.109 551.95 506.141 551.9C506.173 551.849 506.183 551.788 506.17 551.73C506.156 551.671 506.121 551.621 506.07 551.589C506.019 551.557 505.958 551.546 505.9 551.56V551.56Z" fill="#7EC2D3"/>
<path d="M517.08 563.54C511.579 562.406 505.977 561.83 500.36 561.82C500.08 561.82 500.14 562.26 500.42 562.26C505.991 562.282 511.546 562.865 517 564C517.31 564 517.36 563.6 517.08 563.54Z" fill="#7EC2D3"/>
<path d="M521.2 568.84C517.609 568.237 513.948 568.183 510.34 568.68C510.282 568.688 510.229 568.718 510.194 568.765C510.158 568.812 510.143 568.871 510.15 568.93C510.158 568.988 510.189 569.041 510.236 569.076C510.283 569.112 510.342 569.128 510.4 569.12C513.971 568.628 517.596 568.682 521.151 569.28C521.431 569.33 521.49 568.89 521.2 568.84Z" fill="#7EC2D3"/>
<path d="M553.389 607.94C553.389 607.94 561.949 592.16 559.389 576.85C556.829 561.54 540.289 544.21 529.699 539.74C519.109 535.27 516.699 536.74 516.699 536.74L520.899 541.05L527.399 543.72L524.399 544.29L530.159 552.85L540.389 557.95L531.909 558.4L540.329 573.97C543.329 579.52 550.599 577.74 550.599 577.74L544.459 580.18L553.389 607.94Z" fill="#7EC2D3"/>
<path d="M540 551C536.662 548.874 533.161 547.015 529.53 545.44C529.27 545.33 529.07 545.61 529.33 545.73C532.961 547.305 536.462 549.164 539.8 551.29C540 551.41 540.22 551.13 540 551Z" fill="#7EC2D3"/>
<path d="M553.17 607.94C553.17 607.94 542.701 620.46 535.761 625.52C528.821 630.58 512.92 647.74 512.92 647.74L509.821 645.91L510.751 650.49L505.751 660.65C505.751 660.65 502.41 644.86 512.35 631.56C522.29 618.26 553.17 607.94 553.17 607.94Z" fill="#7EC2D3"/>
<path d="M513.86 635.28C513.297 637.39 513.195 639.597 513.56 641.75C513.61 642.04 514.08 641.93 514.03 641.64C513.669 639.568 513.764 637.441 514.31 635.41C514.38 635.12 513.94 635 513.86 635.28Z" fill="#7EC2D3"/>
<path d="M469.661 659.94C469.661 659.94 468.171 642.38 484.491 621.67C500.811 600.96 553.171 607.94 553.171 607.94L516.581 626.76L513.641 622.13L513.931 629.68L496.381 643.5L495.001 632.28L494.001 645.39C489.424 646.094 485.033 647.698 481.081 650.11C477.001 652.69 469.661 659.94 469.661 659.94Z" fill="#7EC2D3"/>
<path d="M479 635.37C476.432 639.782 474.63 644.596 473.67 649.61C473.67 649.88 474.05 650.02 474.1 649.74C475.052 644.766 476.837 639.989 479.38 635.61C479.56 635.37 479.18 635.13 479 635.37Z" fill="#7EC2D3"/>
<path d="M483 630C481.373 633.742 480.136 637.643 479.31 641.64C479.25 641.92 479.68 642.05 479.74 641.77C480.56 637.813 481.78 633.95 483.38 630.24C483.53 630 483.15 629.72 483 630Z" fill="#7EC2D3"/>
<path d="M485.57 636.36C485.388 638.524 485.054 640.673 484.57 642.79C484.51 643.06 484.94 643.2 485 642.92C485.484 640.766 485.818 638.581 486 636.38C486 636.09 485.59 636.08 485.57 636.36Z" fill="#7EC2D3"/>
<path d="M496.58 622.61C498.37 626.24 498.49 630.24 498.58 634.13C498.58 634.41 499.03 634.43 499.02 634.13C498.94 630.13 498.8 626.131 497.02 622.401C496.993 622.342 496.943 622.297 496.882 622.276C496.821 622.254 496.754 622.258 496.695 622.285C496.637 622.313 496.592 622.363 496.571 622.424C496.549 622.485 496.553 622.552 496.58 622.61Z" fill="#7EC2D3"/>
<path d="M503.119 628.23C503.403 629.13 503.554 630.067 503.569 631.01C503.58 631.062 503.609 631.108 503.65 631.141C503.691 631.174 503.742 631.192 503.794 631.192C503.847 631.192 503.898 631.174 503.939 631.141C503.98 631.108 504.009 631.062 504.019 631.01C503.997 630.03 503.839 629.057 503.549 628.12C503.459 627.85 502.999 628 503.119 628.23Z" fill="#7EC2D3"/>
<path d="M1376.24 75.5398C1369.4 70.8849 1362.31 66.615 1355 62.7498C1354.32 62.3898 1353.75 63.1598 1354.43 63.5198C1361.74 67.389 1368.82 71.6589 1375.66 76.3098C1376.29 76.7398 1376.85 75.9998 1376.24 75.5398Z" fill="#3C6B56"/>
<path d="M1049.86 907C1046.84 900.694 1043.5 894.546 1039.86 888.58C1036.48 883.058 1032.8 877.717 1028.86 872.58C1027.68 871.03 1018.81 859.35 1017.86 865.81C1017.13 870.81 1010.71 871.05 1008.7 867.16C1004.97 859.79 1000.13 853.043 994.33 847.16C992.21 845.03 990.09 842.74 987.26 841.95C986.62 841.77 984.95 841.95 984.4 841.61C984.27 841.61 984.13 841.66 984 841.68C984.14 846.42 978.22 848.84 975.45 845.44C969.373 837.96 962.413 831.245 954.72 825.44C954.65 826.24 954.59 827.03 954.52 827.83C954.16 832.2 950.57 834.74 946.98 832.71C931.02 823.69 914.77 815.403 898.23 807.85L904.95 821.85C908.02 828.26 899.41 833.94 896.29 827.56C895.542 825.933 894.426 824.502 893.03 823.38C894.364 834.86 895.667 846.333 896.94 857.8C897.48 862.51 892.39 864.23 889.4 862.68L878.19 856.89C878.115 857.058 878.052 857.232 878 857.41C876.66 861.54 872.6 862.81 869.62 859.9L855.41 846C854.25 844.87 850.22 842 848.99 840.08C849.41 846.08 847.63 854.64 843.77 858.59C843.248 859.182 842.587 859.634 841.846 859.906C841.105 860.179 840.308 860.262 839.527 860.149C838.746 860.036 838.005 859.729 837.372 859.258C836.739 858.787 836.233 858.165 835.9 857.45C832.299 850.589 827.245 844.597 821.09 839.89C821.814 849.569 821.967 859.282 821.55 868.98C821.35 873.74 816.15 876.63 812.99 872.98C808.51 867.8 796.3 854.47 790.38 865.06C788.81 867.87 784.64 869.14 782.51 866.2C774.87 855.7 763.74 848.87 751.61 848.2C748.624 848.023 745.626 848.197 742.68 848.72C739.13 849.35 737.45 848.47 734.34 846.48C729.694 843.528 724.876 840.856 719.91 838.48C719.084 840.611 717.889 842.581 716.38 844.3C715.86 844.894 715.198 845.349 714.457 845.622C713.716 845.896 712.918 845.98 712.136 845.867C711.354 845.754 710.612 845.447 709.979 844.974C709.346 844.501 708.841 843.877 708.51 843.16C704.799 835.881 700.053 829.178 694.42 823.26C695.018 829.926 697.303 836.331 701.06 841.87C702.34 843.72 703.26 846.53 701.84 848.72C700.193 851.131 699.074 853.864 698.557 856.739C698.04 859.614 698.137 862.565 698.84 865.4C700.22 871.26 694.17 874.29 690.46 870.9C681.486 862.677 671.283 855.906 660.22 850.83C659.74 853.11 659.254 855.396 658.76 857.69C658.644 858.37 658.388 859.018 658.008 859.594C657.629 860.17 657.134 860.662 656.556 861.037C655.977 861.413 655.327 861.665 654.646 861.777C653.965 861.889 653.269 861.86 652.6 861.69C644.9 859.69 639.31 854.12 632.88 849.38C629.42 846.83 624.64 843.49 620.28 844.76C617.12 845.69 614.74 848.84 615.94 852.45C617.82 858.08 610.94 861.45 607.56 857.95C596.865 846.794 584.636 837.218 571.24 829.51C572.406 832.765 574.373 835.675 576.96 837.97C579.44 840.21 578.59 845.29 575.96 846.84C566.46 852.43 574.68 866.39 578.67 873C580.67 876.33 578.06 882 574.34 881.5C567.49 880.63 563.2 876.35 558.34 871.18C556.34 869.04 554.56 866.74 551.69 866.39C550.726 866.325 549.758 866.413 548.82 866.65C547.58 866.84 547.82 867.9 547.65 866.94C548.47 871.94 544.36 875.55 540.28 873.32C525.438 865.213 510.169 857.912 494.54 851.45L491.69 859.7C490.63 862.78 487.22 865.39 484.33 863.08C478.88 858.72 472.94 853.6 466.12 852.59C461.12 851.85 454.93 854.01 453.28 859.93C452.28 863.41 448.8 865.16 445.91 863.3L429 852.33C426.31 850.6 423.64 848.71 420.88 847.11C420.48 846.88 413.25 843.28 414.09 846.49C415.28 851.02 410.38 855.69 406.73 852.87C402.481 849.511 397.576 847.079 392.33 845.73C394.457 853.463 396.594 861.196 398.74 868.93C400.18 874.16 393.66 878.74 390.36 874.43C389.03 872.69 387.36 869.92 385.28 869.17C382.89 868.29 383.28 869.07 384.04 871.06C386.04 876.56 388.7 881.89 391.04 887.25C393.13 892.11 388.74 898.05 384.18 894.99C381.29 892.99 378.48 896.33 377.53 899.25C376.799 901.753 376.538 904.371 376.76 906.97L1049.86 907Z" fill="#537060"/>
<path d="M964.09 308.91C964.09 308.91 1036.96 430.11 1057.21 570.42C1076 700.76 1075.09 907 1075.09 907H1119C1119 907 1104.23 690.31 1082.29 562.22C1060.35 434.13 970.06 300.53 970.06 300.53L964.09 308.91Z" fill="#645848"/>
<path d="M973.56 309.81C973.56 309.81 974.26 249.68 952.25 205.62C930.24 161.56 876.59 129.79 849.53 129.91C822.47 130.03 818.93 137.74 818.93 137.74L832.43 145.55L848.97 145.24L843.34 150.92L864.76 169.83L891.76 172.1L882.03 182.1C882.03 182.1 902.75 208.51 915.82 221.03C918.39 223.49 934.76 219.89 934.76 219.89L927.35 231.13L973.56 309.81Z" fill="#5D8271"/>
<path d="M762.449 195.1C762.449 195.1 797.899 172.61 861.529 183.36C925.159 194.11 973.529 309.81 973.529 309.81L889.419 255.17L895.729 244L880.069 252.94L829.559 232L851.639 216.64L822.699 229.22C815.62 220.489 806.921 213.209 797.079 207.78C786.619 202.11 762.449 195.1 762.449 195.1Z" fill="#5D8271"/>
<path d="M708.391 359.75C708.391 359.75 732.931 314.05 803.871 291.75C855.071 275.68 973.561 309.75 973.561 309.75L874.561 325.61L871.731 313.11L866.111 330.24L814.621 348.6L820.691 322.4L807.691 351.11C807.691 351.11 793.521 352.35 766.511 351.89C754.531 351.75 708.391 359.75 708.391 359.75Z" fill="#5D8271"/>
<path d="M973.56 309.81C973.56 309.81 911.61 233.81 812.8 223.24C713.99 212.67 666.92 226.24 666.92 226.24C666.92 226.24 700.92 251.86 705.97 256.03C711.02 260.2 735.22 248.62 735.22 248.62L721.1 262.43L748.59 286.86L769.59 272.65L761.09 290.23C761.09 290.23 809.38 303.92 824.25 305.15C839.12 306.38 851 287.62 851 287.62L847.16 306L973.56 309.81Z" fill="#5D8271"/>
<path d="M973.559 309.81C973.559 309.81 958.369 277.81 955.039 259.5C951.709 241.19 932.509 194.23 932.509 194.23L939.509 189.76L929.009 187.46L926.449 156.46C942.581 171.247 956.187 188.572 966.729 207.75C984.109 239.48 973.559 309.81 973.559 309.81Z" fill="#5D8271"/>
<path d="M973.561 309.81C973.561 309.81 911.561 310.1 866.471 331.74C821.381 353.38 786.471 382.34 786.471 382.34L847.241 373.26L850.641 362.1L856.401 371.89C856.401 371.89 880.401 367.48 890.961 363.99C897.801 361.653 904.431 358.743 910.781 355.29L904.401 334.12L915.731 350.73L973.561 309.81Z" fill="#5D8271"/>
<path d="M1017.78 851.46C1021.99 854.6 1017.66 861.03 1011.95 859.4C1005.95 857.69 1009.73 865.25 1011.03 866.62C1013.49 869.19 1017.03 871.35 1020.22 873.3C1027.67 877.722 1035.69 881.116 1044.05 883.39C1047.81 884.44 1049.51 887.51 1047.63 890.39C1046.02 892.862 1045.17 895.754 1045.19 898.705C1045.2 901.656 1046.09 904.537 1047.73 906.99H1677.48C1673.82 888.017 1668.91 869.309 1662.77 850.99C1659.16 840.23 1655.12 829.563 1650.64 818.99C1648.83 814.74 1647.36 809.89 1644.03 806.17C1642.03 803.92 1635.97 800.33 1633.11 803.85C1630.38 807.19 1623.51 806.85 1622.11 802.71C1615.99 784.37 1599.75 768.87 1578.34 760.71C1578.55 761.64 1578.77 762.57 1578.98 763.5C1579.98 767.64 1573.1 772.18 1568.98 768.12C1561.25 760.522 1552.91 753.575 1544.04 747.35C1540.02 744.328 1535.77 741.63 1531.33 739.28C1529.65 738.47 1523.77 735.83 1521.78 737.28C1519.29 739.06 1524.97 748.73 1525.92 750.84C1527.92 755.24 1530.02 759.58 1532.38 763.84C1537.19 772.472 1542.63 780.735 1548.66 788.56C1552.66 793.8 1542.34 798.56 1538.3 793.35C1537.7 792.57 1535.93 795.22 1535.78 795.79C1535.17 798.19 1536.52 800.93 1537.39 803.22C1538.83 807.03 1534.28 809.56 1530.02 809.06C1520.68 807.96 1514.42 802.67 1507.56 798.06C1504.56 796.06 1498.88 792.39 1494.45 793.75C1492.61 794.32 1491 796.1 1491.8 797.43L1492.46 798.09C1497.25 802.91 1490.06 808.65 1483.99 804.8C1482.6 803.965 1481.42 802.814 1480.56 801.44C1466.49 787.716 1451.15 775.37 1434.73 764.57C1433.55 763.8 1426.14 758.84 1424.09 760.39C1422.98 761.24 1424.68 765.39 1424.93 766.39C1425.6 768.91 1426.35 771.413 1427.18 773.9C1430.51 783.357 1435.16 792.296 1441 800.45C1443.51 804.03 1439.35 808.57 1434.23 807.45C1429.94 806.45 1424.34 809.55 1425.23 813.39C1426.23 817.7 1419.59 821.8 1415.23 818.01C1407.64 811.44 1403.54 802.71 1395.58 796.46C1392.2 793.8 1387.19 790.92 1382.12 791.58C1378.75 792.02 1373.43 795.22 1375.12 798.4L1375.76 799.62C1378.27 804.62 1367.55 808.14 1364.76 803.28C1364.55 802.9 1364.35 802.52 1364.18 802.14C1356.75 787.56 1345.62 775.19 1331.9 766.27C1331.29 765.87 1327.18 763.09 1326.61 763.59C1326.04 764.09 1326.85 766.45 1326.97 767.07C1327.84 771.42 1329.27 775.76 1330.42 780.07C1332.71 788.736 1335.01 797.403 1337.3 806.07C1338.63 811.07 1329.3 814.85 1326.3 809.73C1322.58 803.34 1309.3 804 1310.68 812.22C1311.68 818.14 1301.68 820.69 1299.11 814.74C1291.93 798.158 1281.53 783.165 1268.52 770.63C1261.73 764.028 1254.4 758.006 1246.6 752.63C1241.35 749.01 1232.03 741.69 1223.81 741.87C1228.9 754.023 1233.99 766.166 1239.09 778.3C1240.69 782.13 1235.86 784.6 1231.71 784.15C1228.08 783.75 1226.71 788.15 1226.79 790.15C1226.85 793.07 1228.22 795.99 1229.36 798.73C1231.16 803.07 1223.16 807.05 1219.36 803.35C1192.55 777.35 1157.7 744.6 1111.24 746.54C1112.49 747.66 1114.02 748.65 1115.24 749.62C1118.13 751.94 1120.96 754.46 1122.3 757.62C1124.36 762.41 1121.93 766.8 1121.47 771.62C1120.97 776.8 1122.65 781.69 1125.91 786.15C1128.98 790.34 1122.91 794.91 1117.71 792.65C1098.68 784.417 1078.85 778.184 1058.54 774.05C1053.37 772.823 1048.13 771.888 1042.86 771.25C1042.02 771.18 1039.07 770.57 1038.62 771.37C1038.08 772.37 1040.29 774.37 1041.03 774.97C1043.87 777.13 1048.42 777.54 1052.03 778.51C1056.21 779.498 1060.17 781.262 1063.7 783.71C1065.88 785.31 1066.17 788.87 1063.7 790.43C1057.43 794.43 1062.93 801.33 1067.08 804.88C1072.9 809.88 1078.66 814.11 1082.08 820.49C1084.16 824.43 1077.35 827.87 1073.27 825.85C1041.27 810.07 1003.1 803.37 965.85 806.94L977.37 812.18C981.55 814.08 980.92 818.37 977.37 820.38C968.6 825.38 981.02 835.71 986.69 838.14C997.17 842.67 1008.82 844.76 1017.78 851.46Z" fill="#5B8170"/>
<path d="M1489.83 884.08C1493.5 888.61 1490.04 894.43 1484.33 893.52C1483.81 893.44 1483.73 897.4 1483.82 898.37C1484.12 900.512 1484.64 902.617 1485.38 904.65C1485.65 905.44 1485.94 906.21 1486.26 906.97H1674.46C1669.23 900.79 1662.74 894.89 1660.4 899.68C1658.4 903.86 1652.92 902.78 1650.64 899.68C1650.42 899.37 1645.07 892.68 1644.39 895.09C1644.07 896.141 1643.45 897.077 1642.61 897.787C1641.77 898.497 1640.75 898.951 1639.66 899.093C1638.57 899.235 1637.46 899.061 1636.47 898.59C1635.48 898.12 1634.64 897.373 1634.06 896.44C1630.24 890.307 1625.63 884.711 1620.33 879.8C1618.93 878.5 1617.5 877.22 1615.98 876.06C1615.54 875.698 1615.09 875.365 1614.61 875.06C1613.61 878.13 1613.61 882.32 1613.09 885.34C1612.27 890.09 1604.84 890.84 1602.76 886.69C1599.5 880.04 1595.18 873.962 1589.98 868.69C1587.24 865.911 1584.24 863.39 1581.04 861.16C1579 859.57 1576.83 858.155 1574.56 856.93C1574.39 859.661 1574.61 862.402 1575.22 865.07C1576.51 871.01 1567.57 875.54 1564.89 869.43C1562.34 863.291 1558.3 857.88 1553.15 853.68C1552.49 853.16 1546.47 848.39 1545.35 849.41C1544.23 850.43 1546.26 858.85 1546.61 860.6C1547.61 865.6 1541.08 870.8 1537.16 866.1C1534.66 863.1 1529.75 857.99 1524.96 855.83C1524.74 857.707 1523.87 859.446 1522.49 860.74C1520.49 862.74 1516.49 863.15 1514.49 860.74C1508.82 853.74 1501.79 844.31 1491.78 844.29C1490.56 844.229 1489.33 844.392 1488.17 844.77H1488.1C1488.9 846.23 1490.04 848.4 1490.1 848.55C1492.69 853.026 1495.5 857.365 1498.54 861.55C1501.89 866.2 1495.39 872.19 1490.81 869.28C1487.99 867.49 1478.35 862.28 1481.06 869.84C1482.93 874.92 1486.43 879.87 1489.83 884.08Z" fill="#577A69"/>
<path d="M1033.66 907H1448.32C1441.26 893.556 1431.76 881.537 1420.32 871.55C1412.58 864.641 1403.87 858.912 1394.46 854.55C1389.09 851.98 1383.17 850.736 1377.22 850.92C1376.96 850.955 1376.69 850.924 1376.44 850.83C1376.42 850.884 1376.4 850.938 1376.38 850.99C1375.97 852.08 1376.62 855.15 1376.68 856.17C1376.87 859.11 1377.05 862.06 1377.24 865.01C1377.57 870.35 1371.04 871.81 1367.59 869.01C1366.62 868.175 1365.52 867.5 1364.34 867.01C1364.5 867.346 1364.58 867.717 1364.57 868.09C1364.55 868.463 1364.45 868.827 1364.26 869.15C1363.36 871.37 1363.78 875.15 1363.59 877.59C1363.15 883.217 1362.71 888.847 1362.26 894.48C1361.9 898.97 1356.1 902.48 1352.61 898.48C1350.31 895.85 1347.83 892.67 1344.67 891.04C1343.13 890.25 1336.67 889.04 1337.41 892.74C1338.95 899.89 1328.89 902.6 1326.51 895.74C1318.28 871.98 1297.94 854.16 1273.85 848.06C1272.9 851.56 1269.18 854.54 1265.53 852.06C1264.66 851.469 1263.75 850.928 1262.81 850.44C1262.97 852.996 1263.34 855.535 1263.92 858.03C1265.11 863.17 1258.38 868.03 1254.48 863.53C1249.05 857.155 1242.54 851.786 1235.24 847.67C1232.24 845.99 1219.53 838.56 1217.15 844.11C1215.68 847.53 1210.59 847.56 1208.27 845.25C1205.72 842.71 1198.53 835.36 1195.85 841.25C1194.16 844.96 1187.78 844.94 1186.09 841.25C1184.39 837.426 1181.89 834.015 1178.75 831.253C1175.6 828.491 1171.9 826.443 1167.89 825.25C1169.77 834.965 1172.95 844.383 1177.34 853.25H1177.27C1177.51 853.679 1177.72 854.12 1177.91 854.57C1180.36 860.57 1170.37 864.57 1167.58 858.93L1167.39 858.53C1167.29 858.45 1166.87 858.04 1166.56 859.34C1166.06 861.316 1165.95 863.372 1166.24 865.39C1167.03 871.54 1158.54 872.25 1155.71 868.24C1150.94 861.48 1145.89 854.95 1140.48 848.69C1137.97 845.78 1135.42 842.87 1132.74 840.12C1131.49 838.84 1130.07 837.9 1128.81 836.69C1130.54 841.49 1124 846.78 1119.38 842.52C1112.69 836.307 1104.57 831.841 1095.74 829.52C1098.63 839.568 1103.54 848.92 1110.17 857C1113.38 860.89 1110.5 868.6 1104.68 866.45C1102.43 865.591 1100.08 865.026 1097.68 864.77C1099.34 867.74 1101.38 870.477 1103.76 872.91C1108.3 877.6 1102.52 884.81 1096.91 881.79C1085.22 875.47 1072.33 868.56 1058.91 867.98C1064.91 871.9 1059.42 881.19 1053.09 877.66C1047.5 874.15 1042.42 873.66 1036.29 872.07L1035.78 872.22C1036.15 873.05 1036.47 874.22 1036.71 874.7C1037.92 877.166 1039.26 879.569 1040.71 881.9C1042.79 885.3 1040.59 888.9 1037.33 890.2C1032.7 892.05 1031.53 898.2 1032.33 902.55C1032.61 904.077 1033.06 905.57 1033.66 907Z" fill="#577A69"/>
<path d="M1342.78 231.14C1342.78 231.14 1425.13 368.14 1448 526.65C1469.26 674 1468.21 907 1468.21 907H1517.82C1517.82 907 1501.12 662.13 1476.33 517.38C1451.57 372.8 1349.52 221.7 1349.52 221.7L1342.78 231.14Z" fill="#6C5339"/>
<path d="M1349.52 221.67L1342.78 231.14C1342.78 231.14 1366.21 270.14 1391.55 330.56C1391.93 316.79 1393.97 307.87 1395.55 299.81C1370.4 252.58 1349.52 221.67 1349.52 221.67Z" fill="#614A34"/>
<path d="M1476.33 517.35C1468.4 471 1452.51 424 1434.6 381.5C1433.75 395.89 1434.25 411.38 1437.89 424.7C1446.17 455.09 1473.89 559.7 1492.21 630.26C1487.43 590.1 1482.1 551 1476.33 517.35Z" fill="#614A34"/>
<path d="M1468.21 907H1517.82C1517.82 907 1511.99 821.57 1502.12 721.81C1495.46 757.72 1478.97 796.22 1467.32 820.44C1468.37 871.91 1468.21 907 1468.21 907Z" fill="#614A34"/>
<path d="M1403.5 360.43C1409.51 357.514 1415.28 354.148 1420.78 350.36C1419.07 346.68 1417.35 343.05 1415.64 339.47C1410.46 343.229 1404.94 346.512 1399.17 349.28C1400.61 352.933 1402.05 356.65 1403.5 360.43Z" fill="#664E36"/>
<path d="M1427.16 431.16C1432.65 422.38 1438.37 413.73 1444.16 405.16C1442.41 400.607 1440.63 396.104 1438.81 391.65C1433.38 399.73 1427.94 407.82 1422.66 415.99C1424.22 420.977 1425.72 426.034 1427.16 431.16Z" fill="#664E36"/>
<path d="M1485 573.88C1474.48 573.738 1463.99 572.93 1453.57 571.46C1454 575.46 1454.41 579.523 1454.82 583.65C1465.37 585.012 1475.99 585.746 1486.63 585.85C1486.08 581.83 1485.54 577.84 1485 573.88Z" fill="#664E36"/>
<path d="M1488.54 600.59C1477.53 599.21 1466.62 597.173 1455.85 594.49C1456.24 598.66 1456.61 602.87 1456.98 607.09C1467.9 609.648 1478.95 611.571 1490.09 612.85C1489.58 608.737 1489.06 604.65 1488.54 600.59Z" fill="#664E36"/>
<path d="M1501.49 715.51C1488.02 722.009 1475.7 730.652 1465 741.1C1465.23 746.82 1465.43 752.47 1465.63 758.04C1476.01 745.872 1488.62 735.799 1502.78 728.36C1502.35 724.12 1501.92 719.836 1501.49 715.51Z" fill="#664E36"/>
<path d="M1498.78 689.07C1486.78 695.07 1474.69 700.88 1463.57 708.28C1463.8 713.02 1464.02 717.75 1464.22 722.43C1475.16 713.97 1487.62 707.8 1500.09 701.67C1499.66 697.484 1499.23 693.284 1498.78 689.07Z" fill="#664E36"/>
<path d="M1509.55 802.17C1500.29 805.737 1491.35 810.086 1482.82 815.17C1477.5 818.235 1472.35 821.608 1467.42 825.27C1467.53 830.91 1467.62 836.34 1467.7 841.53C1473.56 834.16 1482.97 828.96 1490.7 824.45C1497.11 820.722 1503.77 817.437 1510.63 814.62C1510.28 810.567 1509.92 806.417 1509.55 802.17Z" fill="#664E36"/>
<path d="M1353.48 232.16C1353.48 232.16 1365.17 170.78 1348.61 122.07C1332.05 73.36 1278 32 1247.78 27.58C1217.56 23.16 1212.22 30.5 1212.22 30.5L1225.86 40.73L1244.37 43.16L1237.06 48L1257.52 70.9L1287.23 77.72L1274.57 86.32C1274.57 86.32 1295.35 110.68 1306.72 126.26C1318.09 141.84 1326.52 133.73 1326.52 133.73L1321.33 140.88L1353.48 232.16Z" fill="#40755D"/>
<path d="M1150.84 51.4402C1150.84 51.4402 1195.66 35.8602 1262.84 64.1102C1330.02 92.3602 1353.44 232.16 1353.44 232.16L1275.01 150.32L1284.81 139.66L1265.27 145.45L1215.1 109.45L1243.35 98.2502L1208.28 104.58C1202.75 93.1473 1195.06 82.8923 1185.63 74.3802C1175.62 65.4002 1150.84 51.4402 1150.84 51.4402Z" fill="#40755D"/>
<path d="M1050 262.14C1050 262.14 1082.16 213.14 1164.21 195.08C1223.43 182.08 1353.45 232.16 1353.45 232.16L1240.39 240.21L1238.39 225.86L1230.39 244.59L1170.61 260.16L1180.04 231.27L1162.5 262.27C1162.5 262.27 1146.43 262.27 1116.08 259.07C1102.76 257.7 1050 262.14 1050 262.14Z" fill="#40755D"/>
<path d="M1353.48 232.16C1353.48 232.16 1302.81 139.28 1210.74 115.4C1118.67 91.5196 1072.91 101.07 1072.91 101.07C1072.91 101.07 1102.33 133.97 1106.69 139.28C1111.05 144.59 1135 134.5 1135 134.5L1120.29 148.3L1143.71 179.08L1165 165.67L1155.19 184.39C1155.19 184.39 1199.32 205.62 1213.19 208.81C1227.06 212 1240.19 192.35 1240.19 192.35L1234.74 212.52L1353.48 232.16Z" fill="#40755D"/>
<path d="M1353.48 232.16C1353.48 232.16 1346.82 192.66 1348.85 171.75C1350.88 150.84 1344.46 93.8503 1344.46 93.8503L1353.46 91.1503L1342.76 85.4103L1331.29 59.7803C1331.29 59.7803 1368.39 79.3403 1377.5 119.14C1386.61 158.94 1353.48 232.16 1353.48 232.16Z" fill="#40755D"/>
<path d="M1353.48 232.16C1353.48 232.16 1284.19 217.39 1230.13 241.9C1176.07 266.41 1132.33 305.53 1132.33 305.53H1201.76L1207.42 288L1212.22 305.53C1212.22 305.53 1239.79 304.18 1252.16 301.04C1260.37 298.802 1268.29 295.631 1275.77 291.59L1272.18 255.17L1282.07 285.3L1353.48 232.16Z" fill="#40755D"/>
<path d="M1186.42 275.44C1179.86 282.812 1172.73 289.66 1165.1 295.92C1164.5 296.41 1165.35 297.25 1165.94 296.76C1173.58 290.509 1180.71 283.664 1187.27 276.29C1187.78 275.71 1186.93 274.86 1186.42 275.44Z" fill="#3C6B56"/>
<path d="M1195.54 283.76C1193.26 287.527 1190.51 290.989 1187.35 294.06C1186.8 294.6 1187.65 295.45 1188.2 294.91C1191.43 291.761 1194.24 288.217 1196.58 284.36C1197 283.7 1196 283.1 1195.54 283.76Z" fill="#3C6B56"/>
<path d="M1218.91 282.55C1218.74 281.8 1217.58 282.12 1217.75 282.87C1218.48 286.031 1218.92 289.251 1219.07 292.49C1219.07 293.26 1220.31 293.27 1220.27 292.49C1220.12 289.142 1219.67 285.815 1218.91 282.55V282.55Z" fill="#3C6B56"/>
<path d="M1235 290.16C1233.6 284.952 1232.63 279.637 1232.11 274.27C1232.04 273.51 1230.84 273.51 1230.91 274.27C1231.44 279.744 1232.42 285.165 1233.84 290.48C1233.88 290.634 1233.98 290.765 1234.12 290.843C1234.26 290.922 1234.43 290.943 1234.58 290.9C1234.73 290.858 1234.86 290.756 1234.94 290.617C1235.02 290.478 1235.04 290.314 1235 290.16V290.16Z" fill="#3C6B56"/>
<path d="M1247.57 288.12C1246.63 284.647 1245.56 281.22 1244.35 277.84C1244.09 277.12 1242.93 277.43 1243.19 278.16C1244.4 281.54 1245.48 284.967 1246.41 288.44C1246.45 288.594 1246.55 288.725 1246.69 288.804C1246.83 288.882 1247 288.903 1247.15 288.86C1247.3 288.818 1247.43 288.716 1247.51 288.577C1247.59 288.439 1247.61 288.274 1247.57 288.12V288.12Z" fill="#3C6B56"/>
<path d="M1262.36 280.72C1260.36 275.76 1258.53 270.76 1256.88 265.72C1256.63 264.99 1255.47 265.3 1255.72 266.04C1257.4 271.113 1259.23 276.113 1261.2 281.04C1261.48 281.75 1262.64 281.44 1262.36 280.72Z" fill="#3C6B56"/>
<path d="M1102.58 224.07C1094.33 231.869 1085.37 238.898 1075.84 245.07C1075.19 245.49 1075.84 246.53 1076.44 246.07C1086.07 239.86 1095.1 232.784 1103.44 224.93C1104 224.39 1103.14 223.54 1102.58 224.07Z" fill="#3C6B56"/>
<path d="M1121.8 225.76L1104.41 239.61C1103.81 240.09 1104.66 240.93 1105.26 240.45L1122.65 226.61C1123.25 226.13 1122.4 225.29 1121.8 225.76Z" fill="#3C6B56"/>
<path d="M1146.46 219.15C1136.5 228.041 1127.36 237.799 1119.13 248.31C1118.65 248.91 1119.5 249.76 1119.97 249.15C1128.21 238.649 1137.35 228.895 1147.3 220C1147.88 219.49 1147 218.64 1146.46 219.15Z" fill="#3C6B56"/>
<path d="M1165.79 223.64C1160.87 227.706 1156.5 232.392 1152.79 237.58C1152.34 238.21 1153.38 238.81 1153.79 238.19C1157.47 233.089 1161.78 228.484 1166.64 224.49C1167.23 224 1166.38 223.15 1165.79 223.64Z" fill="#3C6B56"/>
<path d="M1155.71 113.52C1136.58 109.7 1117.18 105.95 1097.59 107.71C1096.83 107.78 1096.82 108.98 1097.59 108.91C1117.08 107.15 1136.36 110.91 1155.39 114.68C1156.15 114.83 1156.47 113.67 1155.71 113.52Z" fill="#3C6B56"/>
<path d="M1144.47 120.8L1114.11 120.34C1113.95 120.34 1113.8 120.403 1113.69 120.516C1113.57 120.628 1113.51 120.781 1113.51 120.94C1113.51 121.099 1113.57 121.252 1113.69 121.364C1113.8 121.477 1113.95 121.54 1114.11 121.54L1144.47 122C1144.63 122 1144.78 121.937 1144.89 121.824C1145.01 121.712 1145.07 121.559 1145.07 121.4C1145.07 121.241 1145.01 121.088 1144.89 120.976C1144.78 120.863 1144.63 120.8 1144.47 120.8Z" fill="#3C6B56"/>
<path d="M1174.82 135.11C1165.85 141.796 1155.57 146.509 1144.65 148.94C1143.9 149.11 1144.22 150.26 1144.97 150.1C1156 147.63 1166.38 142.859 1175.43 136.1C1176 135.69 1175.44 134.64 1174.82 135.11Z" fill="#3C6B56"/>
<path d="M1179.59 145.29C1172.69 149.752 1165.1 153.043 1157.13 155.03C1156.98 155.073 1156.84 155.175 1156.77 155.313C1156.69 155.452 1156.67 155.617 1156.71 155.77C1156.75 155.924 1156.85 156.055 1156.99 156.134C1157.13 156.212 1157.3 156.233 1157.45 156.19C1165.52 154.172 1173.21 150.837 1180.2 146.32C1180.84 145.91 1180.24 144.87 1179.59 145.29Z" fill="#3C6B56"/>
<path d="M1219.2 162.51C1204.52 165.983 1190.22 170.938 1176.54 177.3C1175.84 177.63 1176.45 178.66 1177.14 178.3C1190.73 171.987 1204.93 167.068 1219.52 163.62C1220.27 163.49 1220 162.33 1219.2 162.51Z" fill="#3C6B56"/>
<path d="M1234.72 171.06C1225.24 173.679 1216.22 177.725 1207.96 183.06C1207.32 183.47 1207.96 184.51 1208.57 184.06C1216.73 178.797 1225.64 174.805 1235 172.22C1235.14 172.17 1235.26 172.07 1235.33 171.94C1235.4 171.81 1235.42 171.658 1235.38 171.514C1235.35 171.37 1235.26 171.244 1235.14 171.16C1235.02 171.076 1234.87 171.04 1234.72 171.06Z" fill="#3C6B56"/>
<path d="M1222.65 59.2005C1209.13 55.5448 1195.1 54.126 1181.12 55.0005C1180.35 55.0005 1180.35 56.2405 1181.12 56.2005C1194.99 55.3364 1208.91 56.745 1222.33 60.3705C1222.49 60.4129 1222.65 60.392 1222.79 60.3123C1222.93 60.2326 1223.03 60.1006 1223.08 59.9455C1223.12 59.7903 1223.1 59.6247 1223.02 59.4849C1222.94 59.3452 1222.81 59.2429 1222.65 59.2005V59.2005Z" fill="#3C6B56"/>
<path d="M1240 65.9105C1228.94 64.2317 1217.74 63.6589 1206.57 64.2005C1205.8 64.2005 1205.79 65.4305 1206.57 65.4005C1217.64 64.8558 1228.73 65.4152 1239.69 67.0705C1240.4 67.1905 1240.73 66.0005 1240 65.9105Z" fill="#3C6B56"/>
<path d="M1225.25 76.7299C1219.43 77.7291 1213.55 78.3305 1207.65 78.5299C1206.88 78.5299 1206.87 79.7599 1207.65 79.7299C1213.66 79.5171 1219.64 78.9024 1225.57 77.8899C1226.33 77.7599 1226 76.5999 1225.25 76.7299Z" fill="#3C6B56"/>
<path d="M1281.51 54.9298C1271.61 51.1799 1261.36 48.4589 1250.9 46.8098C1250.15 46.6898 1249.82 47.8098 1250.58 47.9698C1261.04 49.6141 1271.29 52.3353 1281.19 56.0898C1281.91 56.3598 1282.23 55.1998 1281.51 54.9298Z" fill="#3C6B56"/>
<path d="M1260 40.9999C1252.19 37.8747 1244.17 35.2886 1236 33.2599C1235.85 33.2175 1235.68 33.2379 1235.54 33.3167C1235.4 33.3955 1235.3 33.5261 1235.26 33.6799C1235.22 33.8338 1235.24 33.9982 1235.32 34.1369C1235.4 34.2757 1235.53 34.3775 1235.68 34.4199C1243.85 36.444 1251.87 39.0302 1259.68 42.1599C1260.37 42.4299 1260.68 41.2699 1260 40.9999Z" fill="#3C6B56"/>
<path d="M1367.54 115.83C1364.27 111.308 1360.08 107.534 1355.24 104.76C1355.11 104.72 1354.97 104.724 1354.85 104.772C1354.72 104.82 1354.62 104.908 1354.55 105.024C1354.48 105.139 1354.45 105.274 1354.47 105.408C1354.48 105.541 1354.54 105.665 1354.64 105.76C1359.3 108.427 1363.35 112.05 1366.51 116.39C1367 117.05 1368 116.45 1367.54 115.83Z" fill="#3C6B56"/>
<path d="M1270 95.9998C1261.91 103 1251.54 106 1241.42 108.82C1241.27 108.861 1241.13 108.961 1241.06 109.099C1240.98 109.237 1240.95 109.401 1240.99 109.555C1241.04 109.709 1241.14 109.84 1241.27 109.92C1241.41 109.999 1241.58 110.021 1241.73 109.98C1252.07 107.11 1262.6 103.98 1270.85 96.8398C1271.45 96.2898 1270.6 95.4398 1270 95.9998Z" fill="#3C6B56"/>
<path d="M1260.51 116.58C1258.36 117.913 1256.03 118.924 1253.59 119.58C1253.44 119.623 1253.31 119.725 1253.23 119.863C1253.15 120.002 1253.13 120.167 1253.17 120.32C1253.21 120.474 1253.31 120.605 1253.45 120.684C1253.59 120.762 1253.76 120.783 1253.91 120.74C1256.45 120.044 1258.88 118.987 1261.12 117.6C1261.77 117.21 1261.17 116.17 1260.51 116.58Z" fill="#3C6B56"/>
<path d="M1569.42 907C1569.42 907 1595.05 699.91 1595.05 565C1595.05 430.09 1510.62 240.6 1510.62 240.6L1521.3 234.49C1521.3 234.49 1613.94 424.83 1623.38 549.56C1632.82 674.29 1618 907 1618 907H1569.42Z" fill="#6C5339"/>
<path d="M1595.05 565C1595.05 699.89 1569.42 907 1569.42 907H1579.42C1585.49 895 1594.55 872.19 1601.51 833.22C1613.04 768.74 1611.4 574.06 1613.74 541.86C1616.08 509.66 1574.74 391.75 1559.51 373.16C1578.17 433.46 1595.05 504.68 1595.05 565Z" fill="#614A34"/>
<path d="M1589.31 701.17C1602.34 703.757 1614.74 708.826 1625.85 716.1C1625.94 711.487 1626.03 706.867 1626.11 702.24C1614.92 695.932 1602.75 691.538 1590.11 689.24C1589.86 693.234 1589.59 697.21 1589.31 701.17Z" fill="#664E36"/>
<path d="M1620.41 526.44C1617.32 536.58 1612.09 545.941 1605.08 553.89C1601.99 557.154 1598.65 560.163 1595.08 562.89C1595.08 563.59 1595.08 564.29 1595.08 564.98C1595.08 569.58 1595.05 574.246 1594.99 578.98C1597.99 575.52 1601.99 573.07 1605.49 570.17C1609.8 566.527 1613.72 562.445 1617.19 557.99C1619.44 555.123 1621.5 552.117 1623.37 548.99C1622.78 541.44 1621.9 533.65 1620.75 525.68C1620.62 525.925 1620.51 526.179 1620.41 526.44V526.44Z" fill="#664E36"/>
<path d="M1594.41 544C1603.41 537.2 1612.27 530.28 1620.22 522.43C1619.49 517.61 1618.66 512.727 1617.74 507.78C1610.56 516.06 1602.06 523.13 1593.35 529.84C1593.78 534.614 1594.14 539.334 1594.41 544Z" fill="#664E36"/>
<path d="M1625.77 720C1613.77 715.32 1601.51 711.69 1588.57 711.29C1588.28 715.29 1587.98 719.29 1587.66 723.29C1600.86 723.61 1613.34 727.74 1625.48 732.74C1625.58 728.52 1625.68 724.273 1625.77 720Z" fill="#664E36"/>
<path d="M1620.61 859.79C1620.81 855.897 1621.01 851.813 1621.22 847.54C1604.82 850.44 1588.99 854.97 1574.44 863.3C1573.83 868.83 1573.26 873.94 1572.74 878.55C1587.44 868.38 1603.64 863.05 1620.61 859.79Z" fill="#664E36"/>
<path d="M1558.14 368.74C1564.93 369.027 1571.7 369.735 1578.4 370.86C1576.83 366.54 1575.25 362.277 1573.68 358.07C1567.24 357.237 1560.77 356.753 1554.28 356.62C1555.57 360.6 1556.86 364.64 1558.14 368.74Z" fill="#664E36"/>
<path d="M1586.35 393.34C1584.96 389.28 1583.56 385.254 1582.13 381.26C1575.54 381.166 1568.96 381.712 1562.48 382.89C1563.63 386.704 1564.77 390.55 1565.88 394.43C1572.64 393.275 1579.51 392.909 1586.35 393.34Z" fill="#664E36"/>
<path d="M1623.87 785.1C1624.04 780.44 1624.2 775.7 1624.36 770.91C1608.36 780.18 1594.09 792.18 1580.48 804.91C1579.87 811.223 1579.26 817.33 1578.66 823.23C1592.74 809.48 1607.35 795.76 1623.87 785.1Z" fill="#664E36"/>
<path d="M1623 807.1C1607.33 815.37 1592.14 824.511 1577.49 834.48C1576.93 839.95 1576.37 845.19 1575.84 850.17C1590.79 839.556 1606.35 829.817 1622.43 821C1622.63 816.49 1622.83 811.84 1623 807.1Z" fill="#664E36"/>
<path d="M1523.61 246.11C1523.61 246.11 1465.75 173 1396.26 142.49C1326.77 111.98 1257.48 101.49 1257.48 101.49L1325.48 163.86L1342.89 156.03L1335.73 173.26C1335.73 173.26 1363.63 197.03 1377.87 205.83C1387.25 211.478 1397.13 216.248 1407.38 220.08L1428.48 190.01L1417.8 221.1L1523.61 246.11Z" fill="#488065"/>
<path d="M1330.79 127.93C1319.13 127.442 1307.53 126.081 1296.07 123.86C1295.15 123.69 1295.41 125.07 1296.32 125.25C1307.78 127.47 1319.38 128.83 1331.04 129.32C1331.93 129.35 1331.68 128 1330.79 127.93Z" fill="#3C6B56"/>
<path d="M1334.1 142.25C1329.13 142.983 1324.09 143.064 1319.1 142.49C1318.19 142.39 1318.45 143.78 1319.36 143.88C1324.46 144.46 1329.61 144.376 1334.69 143.63C1335.54 143.5 1334.94 142.13 1334.1 142.25Z" fill="#3C6B56"/>
<path d="M1357.79 162.36C1358.13 161.65 1356.79 160.84 1356.44 161.55C1355.04 164.509 1353.29 167.289 1351.22 169.83C1350.74 170.43 1351.91 171.51 1352.4 170.9C1354.53 168.276 1356.34 165.409 1357.79 162.36V162.36Z" fill="#3C6B56"/>
<path d="M1368.42 182.44C1370.54 177.408 1373.2 172.617 1376.34 168.15C1376.78 167.52 1375.61 166.44 1375.16 167.07C1371.96 171.627 1369.24 176.511 1367.07 181.64C1366.76 182.36 1368.11 183.17 1368.42 182.44Z" fill="#3C6B56"/>
<path d="M1382.08 192.21C1383.51 188.81 1384.77 185.32 1385.88 181.74C1386.11 180.97 1384.77 180.16 1384.53 180.93C1383.44 184.481 1382.17 187.976 1380.73 191.4C1380.43 192.13 1381.77 192.94 1382.08 192.21Z" fill="#3C6B56"/>
<path d="M1401.56 200C1402.99 194.574 1404.59 189.24 1406.36 184C1406.62 183.25 1405.27 182.44 1405.01 183.2C1403.24 188.44 1401.64 193.774 1400.21 199.2C1400 200 1401.35 200.82 1401.56 200Z" fill="#3C6B56"/>
<path d="M1220.16 276.09C1220.16 276.09 1252.31 227.09 1334.36 209.03C1393.59 196.03 1523.61 246.11 1523.61 246.11L1410.55 254.11L1408.55 239.76L1400.55 258.5L1340.76 274.06L1350.19 245.17L1332.66 276.17C1332.66 276.17 1316.59 276.17 1286.23 272.98C1272.89 271.65 1220.16 276.09 1220.16 276.09Z" fill="#488065"/>
<path d="M1316.58 233.11C1306.63 242.005 1297.49 251.759 1289.25 262.26C1288.78 262.86 1289.63 263.71 1290.1 263.11C1298.34 252.621 1307.48 242.88 1317.43 234C1318 233.44 1317.16 232.59 1316.58 233.11Z" fill="#3C6B56"/>
<path d="M1335.92 237.59C1331 241.658 1326.63 246.347 1322.92 251.54C1322.46 252.16 1323.5 252.76 1323.92 252.14C1327.59 247.036 1331.91 242.431 1336.77 238.44C1337.36 238 1336.51 237.11 1335.92 237.59Z" fill="#3C6B56"/>
<path d="M1523.61 246.11C1523.61 246.11 1516.97 140.52 1443.61 79.9399C1370.25 19.3599 1324.8 8.66992 1324.8 8.66992C1324.8 8.66992 1337.54 50.9299 1339.25 57.5799C1340.96 64.2299 1366.94 65.2299 1366.94 65.2299L1347.77 71.5199L1355.98 109.32L1380.91 106.15L1364.11 119C1364.11 119 1395.11 156.9 1406.36 165.66C1417.61 174.42 1437.75 162.16 1437.75 162.16L1424.29 178.16L1523.61 246.11Z" fill="#488065"/>
<path d="M1402.76 82.6099C1391.8 84.8773 1380.49 84.8023 1369.56 82.3899C1368.81 82.2199 1368.56 83.3899 1369.36 83.5699C1380.39 86.009 1391.81 86.0907 1402.87 83.8099C1403.61 83.6499 1403.51 82.4599 1402.76 82.6099Z" fill="#3C6B56"/>
<path d="M1402.77 93.8502C1394.63 94.9817 1386.36 94.7587 1378.3 93.1902C1378.15 93.1758 1378 93.219 1377.88 93.3113C1377.76 93.4035 1377.68 93.5378 1377.65 93.6872C1377.63 93.8367 1377.66 93.9902 1377.74 94.1169C1377.82 94.2436 1377.95 94.3341 1378.1 94.3702C1386.27 95.9603 1394.64 96.19 1402.88 95.0502C1403.64 94.9402 1403.54 93.7502 1402.77 93.8502Z" fill="#3C6B56"/>
<path d="M1431.38 126.21C1416.61 123.152 1401.56 121.598 1386.47 121.57C1385.7 121.57 1385.81 122.77 1386.58 122.77C1401.57 122.801 1416.51 124.349 1431.18 127.39C1431.94 127.55 1432.14 126.37 1431.38 126.21Z" fill="#3C6B56"/>
<path d="M1441.83 140.53C1432.13 138.899 1422.24 138.751 1412.5 140.09C1411.74 140.19 1411.85 141.39 1412.61 141.28C1422.24 139.954 1432.02 140.099 1441.61 141.71C1441.77 141.739 1441.93 141.705 1442.06 141.615C1442.19 141.525 1442.28 141.387 1442.31 141.23C1442.34 141.074 1442.31 140.912 1442.22 140.781C1442.13 140.65 1441.99 140.559 1441.83 140.53V140.53Z" fill="#3C6B56"/>
<path d="M1523.61 246.11C1523.61 246.11 1548.81 203.52 1544 162.17C1539.19 120.82 1496.72 73.9999 1468.72 61.9299C1440.72 49.8599 1433.92 53.7499 1433.92 53.7499L1444.68 65.3899L1461.9 72.6199L1453.78 74.1399L1468.2 97.2699L1495.2 111.05L1472.2 112.26C1472.2 112.26 1485.52 139.31 1492.88 154.26C1500.24 169.21 1520.14 164.46 1520.14 164.46L1503.23 171.04L1523.61 246.11Z" fill="#488065"/>
<path d="M1494.88 92.2802C1486.13 86.5274 1476.92 81.5102 1467.34 77.2802C1466.65 76.9702 1466.07 77.7402 1466.77 78.0502C1476.35 82.2842 1485.56 87.3012 1494.31 93.0502C1494.94 93.4702 1495.5 92.6902 1494.88 92.2802Z" fill="#3C6B56"/>
<path d="M1523 246.11C1523 246.11 1493.09 279.93 1473.69 293.59C1454.29 307.25 1409.06 353.59 1409.06 353.59L1400.93 348.65L1402.85 361.01L1388 388.47C1388 388.47 1381.07 345.84 1409.67 309.92C1438.27 274 1523 246.11 1523 246.11Z" fill="#488065"/>
<path d="M1413.26 320C1411.46 325.638 1410.9 331.594 1411.59 337.47C1411.69 338.26 1412.97 337.97 1412.88 337.18C1412.2 331.522 1412.73 325.783 1414.45 320.35C1414.47 320.272 1414.48 320.19 1414.47 320.109C1414.46 320.028 1414.44 319.949 1414.4 319.878C1414.36 319.806 1414.31 319.743 1414.24 319.692C1414.18 319.641 1414.11 319.603 1414.03 319.58C1413.95 319.557 1413.87 319.55 1413.79 319.558C1413.71 319.567 1413.63 319.591 1413.56 319.63C1413.49 319.669 1413.42 319.722 1413.37 319.786C1413.32 319.849 1413.28 319.922 1413.26 320Z" fill="#3C6B56"/>
<path d="M1290.64 386.55C1290.64 386.55 1288.94 339.13 1335.74 283.21C1382.54 227.29 1523 246.11 1523 246.11L1421.72 297L1414.41 284.5L1414.19 304.88L1365 342.17L1362.61 311.87L1358.34 347.25C1345.78 349.171 1333.7 353.5 1322.78 360C1311.28 367 1290.64 386.55 1290.64 386.55Z" fill="#488065"/>
<path d="M1319.2 320.21C1311.74 332.059 1306.27 345.046 1303 358.66C1302.82 359.4 1304 359.76 1304.14 359.01C1307.4 345.499 1312.84 332.612 1320.26 320.86C1320.35 320.719 1320.37 320.55 1320.33 320.39C1320.3 320.23 1320.19 320.091 1320.05 320.005C1319.91 319.919 1319.74 319.892 1319.58 319.93C1319.42 319.969 1319.29 320.069 1319.2 320.21V320.21Z" fill="#3C6B56"/>
<path d="M1330.72 305.64C1325.85 315.713 1322 326.249 1319.23 337.09C1319.04 337.83 1320.23 338.19 1320.37 337.44C1323.11 326.702 1326.92 316.264 1331.73 306.28C1332.06 305.6 1331.05 305 1330.72 305.64Z" fill="#3C6B56"/>
<path d="M1336.72 322.89C1335.96 328.745 1334.8 334.541 1333.26 340.24C1333.06 340.98 1334.2 341.34 1334.4 340.59C1335.97 334.786 1337.14 328.882 1337.92 322.92C1338 322.16 1336.82 322.13 1336.72 322.89Z" fill="#3C6B56"/>
<path d="M1368.27 285.76C1372.61 295.56 1372.41 306.35 1372.11 316.85C1372.11 317.009 1372.17 317.162 1372.29 317.274C1372.4 317.387 1372.55 317.45 1372.71 317.45C1372.87 317.45 1373.02 317.387 1373.13 317.274C1373.25 317.162 1373.31 317.009 1373.31 316.85C1373.61 306.13 1373.75 295.16 1369.31 285.16C1369 284.49 1368 285.05 1368.27 285.76Z" fill="#3C6B56"/>
<path d="M1385.19 300.92C1385.83 303.37 1386.11 305.9 1386.03 308.43C1386.03 308.589 1386.09 308.742 1386.2 308.855C1386.32 308.967 1386.47 309.03 1386.63 309.03C1386.79 309.03 1386.94 308.967 1387.05 308.855C1387.17 308.742 1387.23 308.589 1387.23 308.43C1387.32 305.799 1387.02 303.168 1386.36 300.62C1386.16 299.91 1385 300.17 1385.19 300.92Z" fill="#3C6B56"/>
<path d="M355.141 908.3C355.141 908.3 355.271 902.79 361.841 903.85C368.411 904.91 377.731 905.91 383.661 903.72C389.591 901.53 393.661 896.86 403.371 899.4C413.081 901.94 422.021 905.55 431.141 902.58C440.261 899.61 443.851 897.92 461.871 900.67C479.891 903.42 479.671 900.88 493.231 900.46C506.791 900.04 509.121 902.9 524.171 903.46C539.221 904.02 531.801 894.29 548.971 896.41C566.141 898.53 584.971 904.68 591.561 900.86C598.151 897.04 583.561 891.57 611.911 896.11C640.261 900.65 647.731 901.92 653.241 899.59C658.751 897.26 656.411 888.78 690.111 896.84C723.811 904.9 730.111 905.31 741.401 903.19C752.691 901.07 763.011 900.44 782.511 902.14C802.011 903.84 838.511 905.53 850.121 904.89C861.731 904.25 868.981 896.4 906.061 900.89C943.141 905.38 923.231 898.34 956.931 900.89C990.631 903.44 985.541 891.99 1010.76 895.38C1035.98 898.77 1014.95 886.69 1044.76 890.93C1074.57 895.17 1070.76 888.34 1096.3 894.06C1121.84 899.78 1135.21 902.42 1147.85 899.17C1160.49 895.92 1152.85 894.01 1176.07 898.46C1199.29 902.91 1221.2 902.8 1240.2 901.53C1259.2 900.26 1262.54 895.01 1287.01 898.35C1311.48 901.69 1344.01 905.98 1360.66 902.91C1377.31 899.84 1374.11 893.16 1392.55 896.76C1410.99 900.36 1417.88 904.39 1427.41 901.42C1436.94 898.45 1429.11 894.42 1447.55 898.42C1465.99 902.42 1491.84 905.94 1500.55 903.18C1509.26 900.42 1508.71 896.72 1525.03 900.11C1541.35 903.5 1559.2 906.68 1568.6 904.35C1578 902.02 1578.22 898.35 1596.23 902.66C1614.24 906.97 1614.78 905.41 1622.94 903.08C1631.1 900.75 1637.45 903.08 1648.69 904.24C1659.93 905.4 1656.1 903.29 1662.78 903.93C1667.76 904.531 1672.69 905.535 1677.51 906.93L355.141 908.3Z" fill="#8DD1E3" fill-opacity="0.6"/>
<path opacity="0.6" d="M1055.26 814.94C1055.26 814.94 1098.92 739.67 1225.48 691.13C1352.04 642.59 1463.57 649.63 1453.84 631.56C1444.11 613.49 1284.64 622.36 1175.9 687.08C1073.4 748.07 1055.26 814.94 1055.26 814.94Z" fill="white"/>
<path opacity="0.6" d="M1164.67 783.55C1164.67 783.55 1249 740.44 1391 739C1533 737.56 1628.06 772.54 1630.3 756.78C1632.54 741.02 1485.2 704.78 1349.3 722.78C1221.18 739.72 1164.67 783.55 1164.67 783.55Z" fill="white"/>
<path opacity="0.6" d="M1150.32 833.1C1150.32 833.1 1205.08 802.66 1311.32 794.64C1417.56 786.62 1495.83 803.12 1494.39 793.42C1492.95 783.72 1375.24 769.1 1276.81 786.87C1184.08 803.62 1150.32 833.1 1150.32 833.1Z" fill="white"/>
<path opacity="0.6" d="M1201.81 431.34C1201.81 431.34 1108.45 354.46 924.931 330.26C741.411 306.06 605.271 343.06 608.191 319.39C611.111 295.72 815.491 265 985.001 312.72C1144.74 357.71 1201.81 431.34 1201.81 431.34Z" fill="#BDD2EC"/>
<path opacity="0.6" d="M989.839 360C989.839 360 888.129 334 746.839 372.84C605.549 411.68 526.209 479.5 517.339 461.83C508.469 444.16 639.129 360 781.329 342.12C915.359 325.27 989.839 360 989.839 360Z" fill="#BDD2EC"/>
<path opacity="0.6" d="M1099.06 407.55C1099.06 407.55 1033 380.81 921.251 389.38C809.501 397.95 734.451 430.76 732.801 419C731.151 407.24 847.351 370 954.181 374.27C1054.88 378.38 1099.06 407.55 1099.06 407.55Z" fill="#BDD2EC"/>
<path opacity="0.6" d="M469.199 891.71C469.199 891.71 515.359 841 609.769 818C704.179 795 775.769 811.32 773.609 797.12C771.449 782.92 664.609 773.54 578.139 810.12C496.649 844.56 469.199 891.71 469.199 891.71Z" fill="#BDD2EC"/>
<path opacity="0.6" d="M577 839C577 839 629 818.67 703.3 835.81C777.6 852.95 820.74 890.41 824.83 879.31C828.92 868.21 758.76 823.15 684.54 818.74C614.58 814.56 577 839 577 839Z" fill="#BDD2EC"/>
<path opacity="0.6" d="M521.76 872.67C521.76 872.67 555.23 853.5 613.39 853.67C671.55 853.84 711.39 870.29 711.92 863.12C712.45 855.95 651.13 838.6 595.92 846.04C543.82 853 521.76 872.67 521.76 872.67Z" fill="#BDD2EC"/>
<path opacity="0.6" d="M504.32 746.46C504.32 746.46 546 700.67 631.11 680C716.22 659.33 780.87 674 778.89 661.17C776.91 648.34 680.57 639.9 602.58 672.87C529.07 703.93 504.32 746.46 504.32 746.46Z" fill="white"/>
<path opacity="0.6" d="M554.77 694.87C554.77 694.87 573.54 678.56 611.33 662.87C654.08 645.1 675.619 643.33 674.219 638.53C672.819 633.73 641.629 635.12 600.219 657.99C567.999 675.77 554.77 694.87 554.77 694.87Z" fill="white"/>
<path d="M862.801 669.52L835.801 770.64C835.801 770.64 801.421 794.91 827.031 799.64C852.641 804.37 936.551 825.64 936.551 825.64L902.741 703.229L862.801 669.52Z" fill="#735A2A" stroke="black" stroke-miterlimit="10"/>
<path d="M803.479 1132C803.479 1132 742.13 1099.64 823.7 1021.44L809.55 954L836.549 888.61L829.77 865L875.27 764.89L924.82 673.89L962.82 656.7L1068.4 649.62L1097.72 676.93L1075.48 941.86L803.479 1132Z" fill="#718088" stroke="black" stroke-miterlimit="10"/>
<path d="M801.46 1266.12C801.46 1266.12 716.52 1236.46 801.46 1128.6C801.46 1128.6 905.27 1045.01 932.24 1026.13C959.21 1007.25 1041.44 920.97 1085.94 1042.31V1154.21C1085.94 1154.21 1100.77 1154.21 1143.94 1266.12L1095.4 1365.89L909.4 1345.66L801.46 1266.12Z" fill="#3B2F14" stroke="black" stroke-miterlimit="10"/>
<path d="M876.381 787.78C878.114 790.03 879.138 792.745 879.321 795.58C879.321 795.58 841.571 847.15 839.551 855.58C837.531 864.01 805.911 849.86 805.551 848.5L805.151 847.14C805.151 847.14 798.811 838.05 807.911 824.23L840.611 779.74C840.611 779.74 867.271 776.1 876.381 787.78Z" fill="#A3624B" stroke="black" stroke-miterlimit="10"/>
<path d="M907.63 685.73L835.84 777.88L879.32 806.31L945.04 733.25L907.63 685.73Z" fill="#21292D"/>
<path d="M953.811 557.84V596.94L957.401 627.95L968.641 646.14L988.411 665.81L1027.51 672.44L1046.39 639.63L1034.56 568.18L1008.44 532.67L959.201 544.36L953.811 557.84Z" fill="#A1644C" stroke="black" stroke-miterlimit="10"/>
<path d="M953.811 543.46C953.811 543.46 980.481 491.89 1034.56 516.16C1088.64 540.43 1049.2 646.16 1049.2 646.16L1027 665.81H993.311V636.49L996.311 605.06L993.311 578.85L979.431 554.58L953.811 550.58V543.46Z" fill="black"/>
<path d="M1054.93 1078.71L1009.09 1088.15C1009.09 1088.15 994.26 1089.5 1009.09 1007.26C1023.92 925.02 1036.09 654.02 1014.48 647.26H1002.48C1002.48 647.26 979.41 525.26 1006.37 509.07C1033.33 492.88 1078.5 527.95 1079.85 561.65C1079.85 561.65 1085.24 595.36 1096.7 607.49L1103.44 712.65C1103.44 712.65 1125.69 759.82 1114.9 796.57L1104.79 815.8L1104.12 837.37L1091.31 859.61L1083.22 1052.41L1068.39 1055.11C1068.39 1055.11 1054.25 1058.49 1054.93 1078.71Z" fill="#E3CC54" stroke="black" stroke-miterlimit="10"/>
<path d="M1021.9 651.6C1021.9 651.6 1080.54 805.6 1069.42 884.86C1058.3 964.12 1029.42 965.12 1029.42 965.12C1029.42 965.12 924.82 774 906.62 766.93C888.42 759.86 878.31 741.65 857.07 742.66C835.83 743.67 913.7 636.49 1021.9 651.6Z" fill="#E3CC54" stroke="black" stroke-miterlimit="10"/>
<path d="M1049.53 1081.41L1023.92 1061.19V1020.74L1036.73 895.35V775.35L1023.92 685C1023.92 685 1013.13 644.55 979.43 652.64C979.43 652.64 999.65 638.7 1021.9 651.57C1021.9 651.57 1074.48 686.01 1086.61 843.75C1098.74 1001.49 1071.11 1055.09 1071.11 1055.09L1049.53 1081.41Z" fill="#E3CC54" stroke="black" stroke-miterlimit="10"/>
<path d="M898.421 610.87L896.511 624C896.511 624 862.801 635.46 856.401 650C856.401 650 832.131 676 885.051 720.45C885.051 720.45 909.651 734.94 922.131 733.59L937.971 733.68C937.971 733.68 939.801 708.41 946.201 706.73L932.911 699.55C932.911 699.55 916.401 691.55 916.061 684.81C916.061 684.81 923.811 658.43 947.061 665.51L958.181 657.08C958.181 657.08 969.891 652.97 967.961 646.63C966.031 640.29 932.901 610.9 932.901 610.9L898.421 610.87Z" fill="#D29C2A" stroke="black" stroke-miterlimit="10"/>
<path d="M899.43 592L895.83 587.5L892.24 571.77C892.24 571.77 884.15 550.65 895.83 543.46C895.83 543.46 902.58 529.08 916.06 525.93C916.06 525.93 962.35 507.06 978.53 542.56C978.53 542.56 983.92 548.85 984.37 578.56L899.43 592Z" fill="black"/>
<path d="M897.551 594.28C897.551 594.28 889.461 581.28 884.971 587.54C880.481 593.8 885.421 616.31 897.551 612.26C909.681 608.21 896.731 599.26 896.731 599.26L897.551 594.28Z" fill="#A96344" stroke="black" stroke-miterlimit="10"/>
<path fill-rule="evenodd" clip-rule="evenodd" d="M938.57 708.59C938.57 708.59 947 711.96 951.38 711.59C955.76 711.22 964.87 708.59 964.87 708.59C964.87 708.59 977 706.25 980 710.12C983 713.99 973.6 714.32 973.6 714.32C973.6 714.32 979.33 727.13 990.45 731.17C1001.57 735.21 1002.59 741.62 1002.59 741.62L983.04 735.89L998.04 744.65L999.76 746.02C999.76 746.02 998.52 748.53 998.04 748.53C997.56 748.53 980.54 740.44 980.54 740.44L995.71 751.56C995.71 751.56 997.39 754.43 992.34 752.91C987.29 751.39 977.34 743.64 977.34 743.64L982.73 753.35C982.73 753.35 985.73 757.63 982.22 756.62C978.71 755.61 971.94 751.06 971.94 751.06L951.55 734.88L938.55 728.64L932.15 726.64L938.57 708.59Z" fill="#AD5835" stroke="black" stroke-miterlimit="10"/>
<path d="M895.83 587.5C895.83 587.5 900.33 538.07 947.07 550.65C947.07 550.65 977.18 545.71 982.07 560.09C982.07 560.09 989.71 585.71 977.13 631.09L957 647.72L940.13 650L913.36 634.72L895.83 610.9V587.5Z" fill="#A96344" stroke="black" stroke-miterlimit="10"/>
<path d="M923.641 734H942.771C942.771 734 940.771 712 950.161 706.59L936.901 698.05C936.901 698.05 919.601 703.93 923.641 734Z" fill="#6A4529" stroke="black" stroke-miterlimit="10"/>
<path fill-rule="evenodd" clip-rule="evenodd" d="M946.309 608.92C945.199 615.17 935.389 613.65 935.449 609.02C936.843 609.833 938.394 610.338 939.999 610.5C942.234 610.756 944.486 610.194 946.34 608.92H946.309Z" fill="#713115"/>
<path fill-rule="evenodd" clip-rule="evenodd" d="M969.27 588C965.484 586.318 962.045 583.944 959.13 581C955.38 577.08 954.46 581.13 956.13 583.14C959.42 587.02 965.39 590 968.98 590.48C972.33 590.94 973.74 589.72 969.23 587.92L969.27 588Z" fill="black"/>
<path fill-rule="evenodd" clip-rule="evenodd" d="M908.9 580.94C913.161 580.532 917.309 579.332 921.13 577.4C926.13 574.76 925.69 579.05 923.35 580.48C918.85 583.23 912.01 584.23 908.35 583.54C904.9 582.9 903.91 581.25 908.94 580.94H908.9Z" fill="black"/>
<path fill-rule="evenodd" clip-rule="evenodd" d="M945.87 625.27C936.12 615.8 923.2 626.43 928.65 624.39C931.413 623.219 934.434 622.788 937.414 623.138C940.395 623.489 943.233 624.61 945.65 626.39C947.41 627.58 946.54 625.91 945.92 625.3L945.87 625.27Z" fill="#713115"/>
<path fill-rule="evenodd" clip-rule="evenodd" d="M969.909 600.51L955.529 601.78C955.699 593.4 971.609 588.61 969.909 600.51Z" fill="#713115"/>
<path fill-rule="evenodd" clip-rule="evenodd" d="M955.51 601.84C957.68 606.98 968.11 606.84 969.9 600.66C968.9 596.52 964.29 595.32 961.63 595.89C960.159 596.237 958.812 596.979 957.733 598.037C956.654 599.094 955.885 600.427 955.51 601.89V601.84Z" fill="white"/>
<path fill-rule="evenodd" clip-rule="evenodd" d="M962.441 594.9C965.181 595.29 967.051 598.12 966.611 601.22C966.171 604.32 963.611 606.51 960.841 606.11C958.071 605.71 956.221 602.89 956.671 599.8C957.121 596.71 959.671 594.51 962.441 594.9V594.9Z" fill="black"/>
<path fill-rule="evenodd" clip-rule="evenodd" d="M960.339 598C960.662 598.029 960.968 598.155 961.219 598.36C961.47 598.566 961.653 598.841 961.745 599.152C961.837 599.463 961.834 599.794 961.736 600.103C961.638 600.412 961.45 600.684 961.195 600.885C960.941 601.086 960.632 601.206 960.309 601.229C959.985 601.252 959.663 601.178 959.382 601.016C959.101 600.854 958.876 600.611 958.734 600.319C958.593 600.028 958.542 599.7 958.589 599.38C958.639 598.965 958.851 598.587 959.179 598.329C959.507 598.07 959.924 597.952 960.339 598Z" fill="white"/>
<path fill-rule="evenodd" clip-rule="evenodd" d="M965.63 596.82C962.56 595.82 957.63 597.93 955.52 601.82C955.08 601.71 958.3 592.4 966.85 595.25C969.85 596.25 969.98 599.49 969.85 600.67C969.491 599.739 968.917 598.905 968.175 598.238C967.433 597.571 966.544 597.088 965.58 596.83L965.63 596.82Z" fill="black"/>
<path fill-rule="evenodd" clip-rule="evenodd" d="M915.86 586.78C919.53 586.84 927.06 591.89 925.93 597.78C917.65 595.68 920.71 595.47 916.25 594.78C911.79 594.09 915.85 593.22 907.67 593.23C908.27 589.05 912.18 586.7 915.86 586.75V586.78Z" fill="#713115"/>
<path fill-rule="evenodd" clip-rule="evenodd" d="M918.65 589.87C923.12 590.51 923.65 592.44 926.11 597.56C921.91 602.67 908.35 600.35 907.59 593.4C909.003 591.95 910.751 590.87 912.679 590.255C914.608 589.639 916.658 589.507 918.65 589.87V589.87Z" fill="white"/>
<path fill-rule="evenodd" clip-rule="evenodd" d="M918.79 589.46C919.902 589.608 920.945 590.083 921.786 590.824C922.627 591.566 923.229 592.541 923.516 593.626C923.802 594.711 923.759 595.856 923.393 596.916C923.027 597.977 922.355 598.904 921.46 599.582C920.566 600.259 919.491 600.655 918.371 600.72C917.251 600.785 916.137 600.516 915.171 599.947C914.204 599.378 913.428 598.534 912.942 597.523C912.456 596.513 912.281 595.38 912.44 594.27C912.54 593.537 912.785 592.831 913.158 592.192C913.532 591.554 914.028 590.995 914.618 590.548C915.208 590.102 915.88 589.776 916.595 589.589C917.311 589.402 918.057 589.358 918.79 589.46V589.46Z" fill="black"/>
<path fill-rule="evenodd" clip-rule="evenodd" d="M926.11 597.56C924.42 587.94 910.42 585.07 907.79 592.83C907.656 593.103 907.611 593.411 907.66 593.71C907.66 593.71 919.53 584.98 926.11 597.56Z" fill="black"/>
<path fill-rule="evenodd" clip-rule="evenodd" d="M916.08 591.65C916.482 591.736 916.837 591.971 917.072 592.308C917.307 592.645 917.406 593.059 917.347 593.465C917.289 593.872 917.078 594.242 916.757 594.499C916.436 594.756 916.03 594.882 915.62 594.85C915.218 594.765 914.863 594.53 914.628 594.193C914.392 593.856 914.294 593.442 914.352 593.035C914.411 592.628 914.622 592.259 914.943 592.002C915.263 591.744 915.67 591.619 916.08 591.65V591.65Z" fill="white"/>
<path fill-rule="evenodd" clip-rule="evenodd" d="M701.661 1065.26C686.881 1076.19 648.051 1077.26 626.271 1091.26C599.671 1108.34 567.981 1090.79 572.271 1117.45C574.931 1134.02 513.271 1115.82 499.171 1134.33C485.071 1152.84 504.361 1172.83 520.641 1176.53C546.151 1182.32 451.991 1179.68 473.791 1145.98C504.501 1098.47 502.791 1118.85 545.341 1102.9C555.921 1098.9 558.681 1069.33 579.411 1071.55C600.141 1073.77 617.171 1086.36 618.651 1073.77C620.131 1061.18 629.751 1061.18 650.481 1058.96C671.211 1056.74 671.211 1069.33 695.641 1048.6C720.071 1027.87 706.751 1024.17 744.511 1026.39C782.271 1028.61 741.981 1033.74 773.071 1033.74C851.431 1033.74 822.741 1039.13 776.071 1045.87C755.801 1048.8 737.851 1042.34 725.071 1045.6C714.641 1048.28 708.351 1060.31 701.661 1065.26Z" fill="url(#paint0_linear_833_1643)"/>
<path fill-rule="evenodd" clip-rule="evenodd" d="M1110.45 972.53C1099.02 969.76 1134.03 980.6 1158.09 980.6C1182.15 980.6 1288.71 957.42 1313.14 957.42C1337.57 957.42 1338.72 972.58 1334.27 987.42C1329.82 1002.26 1346.46 986.97 1377.56 993.63C1408.66 1000.29 1399.7 1007.34 1432.74 1006.63C1495.82 1005.35 1439.32 1022.28 1440.14 1042.9C1441.35 1073.16 1579.87 1050.12 1603.02 1046.61C1643.31 1040.49 1663.1 1048.68 1694.93 1069.41C1726.76 1090.14 1690.38 1093.25 1674.1 1096.95C1657.82 1100.65 1640.78 1105.1 1614.1 1118.42C1584.45 1133.25 1630.1 1141.57 1644.5 1149.17C1657.09 1155.83 1638.5 1161.36 1622.24 1167.29C1605.98 1173.22 1601.55 1184.29 1628.94 1190.94C1686.07 1204.83 1782.16 1156.94 1809.55 1206.53C1820.55 1226.42 1718.87 1216.53 1717.39 1244.62C1713.92 1310.42 1632.17 1258.34 1565.21 1234.11C1534.92 1223.11 1523.45 1262.45 1487.91 1261.71C1452.37 1260.97 1440.12 1270.2 1441.6 1285C1443.08 1299.8 1433.45 1296.11 1396.43 1289.45C1331.68 1277.79 1422.9 1326.91 1504.19 1321.66C1532.25 1319.85 1562.19 1380.77 1531.1 1392.61C1456 1421.22 1363.88 1277.38 1270.57 1329.43C1261.16 1334.68 1267.57 1338.31 1262.43 1347.94C1257.29 1357.57 1253.54 1347.94 1220.97 1345.72C1188.4 1343.5 1220.13 1358.26 1219.39 1373.06C1217.99 1401.06 1163.39 1359.2 1139.53 1370.89C1125.3 1377.89 1143.97 1376.81 1152.11 1399.02C1160.25 1421.23 1149.89 1416.79 1118.8 1416.79C1087.71 1416.79 1083.26 1423.45 1045.5 1416.05C1007.74 1408.65 1014.41 1399.76 987.01 1428.64C956.57 1460.72 820.71 1514.43 900.39 1396.8C915.94 1373.8 913.72 1384.96 917.39 1362.01C921.06 1339.06 901.1 1350.9 883.33 1359.78C865.56 1368.66 879 1342.69 813.1 1333.07C747.2 1323.45 790.79 1351.64 736.74 1344.24C682.69 1336.84 721.94 1348.68 704.17 1367.24C686.4 1385.8 687.88 1371.68 671.59 1367.24C655.3 1362.8 664.19 1370.94 675.29 1394.63C686.39 1418.32 681.22 1411.63 669.37 1438.31C657.52 1464.99 643.46 1446.46 640.5 1412.4C637.54 1378.34 640.5 1396.11 618.29 1376.12C596.08 1356.13 593.4 1387.12 539.21 1415.12C485.02 1443.12 528 1444.2 494 1477.51C428.58 1541.51 476.23 1435.16 476.23 1423.51C476.23 1403.51 452.53 1431.66 451.79 1406.51C451.05 1381.36 522.48 1346.51 521.74 1327.29C521 1308.07 495.08 1330.8 474.35 1332.29C387.82 1338.46 446.15 1297.5 453.28 1273.29C460.68 1248.12 405.78 1294.38 370.93 1292.5C327.19 1290.14 328.1 1314.18 288.18 1328.08C261.35 1337.42 223.18 1333.93 286.7 1294.76C349.43 1256.06 387.16 1284.5 343.7 1255.52C332.6 1248.12 334.7 1243.43 343.56 1222.7C352.42 1201.97 328.74 1216.08 311.13 1218.5C248.54 1227.13 239.31 1213.85 305.9 1189.43C328.12 1181.29 308.17 1174.08 347.4 1169.64C386.63 1165.2 361.47 1152.64 372.58 1132.64C383.69 1112.64 376.28 1114.13 359.25 1083.04C342.22 1051.95 391.84 1062.85 434.04 1049.52C502.58 1027.88 385.27 1028.95 368.14 1013.45C352.59 999.38 388.22 998.83 414.04 1002.34C439.86 1005.85 428.84 1011.22 451.8 1020.11C484.17 1032.64 508.23 1027.05 541.38 1023.81C571.73 1020.81 544.58 1008.81 561.61 998.43C578.64 988.05 600.81 1014.36 614.67 1012.67C628.53 1010.98 652.97 990.67 658.52 987.67C664.07 984.67 675.92 982.12 688.88 983.97C701.84 985.82 733.38 998.38 745.97 991.35C758.56 984.32 749.21 976.93 775.87 978.41C802.53 979.89 806.57 988.84 830.63 991.8C854.69 994.76 831.58 990 860.29 998.87C816.5 997.384 864.63 997.22 860.29 997.22C855.95 997.22 854.48 999.33 848.47 999.33L841.71 998.87L831.58 998.98C825.24 999.06 791.58 991.58 766.43 1001.98C741.28 1012.38 739.19 1005.49 693.28 1001.05C647.37 996.61 658.33 999.05 645.01 1025.67C631.69 1052.29 600.59 1030.12 535.44 1043.44C490.09 1052.72 457.22 1052.16 441.11 1068.31C434.11 1075.31 449.73 1090.07 436.23 1102.67C390.47 1145.38 455.62 1158.08 465.1 1178.91C468.8 1187.04 447.4 1182.25 427.34 1191.5C358.75 1223.12 487.51 1223.13 500.02 1255.5C512.38 1287.5 568.67 1252.94 585.78 1253.67C602.31 1254.38 617.18 1308.13 634.86 1311.56C676.86 1319.71 709.27 1290.86 727.93 1294.39C781.11 1304.45 803.46 1302.31 865.64 1293.65C944.64 1282.65 973.31 1333.65 1048.02 1324.71C1110.21 1317.31 1082.56 1285.51 1146.23 1287.71C1209.9 1289.91 1220.23 1287.71 1276.53 1276.6C1332.83 1265.49 1290.6 1275.86 1311.33 1252.91C1332.06 1229.96 1360.85 1256.08 1394.6 1236.48C1428.35 1216.88 1433.6 1228.24 1465.48 1216.4C1497.36 1204.56 1495.68 1191.46 1491.24 1181.84C1486.8 1172.22 1511.97 1156.66 1528.24 1150C1584.24 1127.07 1432.18 1091.75 1431.24 1091.51C1373.82 1076.95 1390.24 1063.97 1379.43 1059.33C1354.95 1048.85 1358.73 1039.73 1375.67 1030.76C1392.61 1021.79 1366.09 1021.18 1344.67 1015.99C1298.51 1004.85 1314.32 992.83 1290.77 984.55C1263.38 974.93 1228.92 974.82 1192.15 990.08C1155.38 1005.34 1101.39 1008.76 1110.45 972.53Z" fill="url(#paint1_linear_833_1643)"/>
<path fill-rule="evenodd" clip-rule="evenodd" d="M806.559 1056.79C800.429 1058.46 783.869 1068.42 752.349 1074.5C733.099 1078.2 701.429 1071.59 720.679 1081.96C739.929 1092.33 751.769 1080.48 753.249 1093.06C756.849 1123.61 796.959 1119 789.529 1111.57C776.999 1099 752.609 1089 772.599 1079.34C792.589 1069.68 807.159 1075.53 807.159 1075.53L806.559 1056.79Z" fill="url(#paint2_linear_833_1643)"/>
<path fill-rule="evenodd" clip-rule="evenodd" d="M873.511 1130.77C873.511 1130.77 900.701 1141.24 934.941 1132.65C969.181 1124.06 974.811 1141.27 1013.94 1138.98C1053.07 1136.69 1060.88 1119.98 1068.32 1110.46C1075.76 1100.94 1087.11 1103.81 1107.5 1098.52C1127.89 1093.23 1164.73 1089.65 1157.29 1079.82C1149.85 1069.99 1148.38 1063.52 1140.99 1061.04C1133.6 1058.56 1120.31 1044.69 1131.67 1046.84C1143.03 1048.99 1154.44 1042.92 1163.75 1057.84C1173.06 1072.76 1180.62 1074.36 1179.32 1086.34C1178.02 1098.32 1157.24 1098.44 1148.38 1108.78C1139.52 1119.12 1147.77 1129.62 1124.32 1133.66C1100.87 1137.7 1090.02 1122.2 1062.54 1141.4C1035.06 1160.6 1004.22 1163.61 975.891 1156.84C947.561 1150.07 965.891 1159.26 922.121 1150.02C878.351 1140.78 862.611 1148.68 859.821 1131.82C857.031 1114.96 859.021 1111.82 865.951 1115.01C872.881 1118.2 873.511 1130.77 873.511 1130.77Z" fill="url(#paint3_linear_833_1643)"/>
<path fill-rule="evenodd" clip-rule="evenodd" d="M1015 1238.22C1015 1238.22 1066.18 1237.43 1107.51 1237.43C1144.16 1237.43 1177.66 1219.55 1189.25 1208.61C1198.76 1199.61 1222.68 1199.87 1235.71 1198.94C1284.16 1195.48 1261.4 1168.08 1272.82 1161.52C1290.87 1151.16 1314.05 1157.52 1304.63 1144.2C1295.21 1130.88 1303.85 1112.36 1314.84 1097.56C1325.83 1082.76 1343.09 1078.31 1316.41 1069.42C1274.65 1055.52 1226.8 1029.7 1310.91 1056.84C1340.74 1066.46 1372.91 1065.72 1358.79 1081.27C1344.67 1096.82 1327.39 1084.97 1321.5 1110.14C1333.35 1135.31 1388.88 1161.97 1371.85 1173.81C1354.82 1185.65 1361.78 1194.01 1341.05 1202.15C1305.71 1216.03 1226.52 1216.92 1210.45 1234.52C1194.9 1251.52 1202.31 1263.4 1177.13 1258.21C1151.95 1253.02 1159.37 1235.21 1138.64 1246.37C1117.91 1257.53 1123.83 1250.81 1110.5 1261.92C1097.17 1273.03 1094.95 1286.35 1088.29 1270.8C1081.63 1255.25 1077.07 1247.95 1056.35 1247.95C1055.5 1247.95 918.61 1262.06 978.72 1244.89C994.31 1240.45 1015 1238.22 1015 1238.22Z" fill="url(#paint4_linear_833_1643)"/>
<path fill-rule="evenodd" clip-rule="evenodd" d="M888.61 1198.69C862.49 1206.9 836.87 1203 817.61 1194.58C787.51 1181.44 765.05 1198.34 758.4 1192.84C741.4 1178.78 761.85 1163.57 733.72 1165.05C705.59 1166.53 697.44 1177.63 670.79 1173.93C601.66 1164.33 620.34 1141.36 655.98 1141.36C667.83 1141.36 647.84 1133.21 631.55 1141.36C615.26 1149.51 589.45 1145.85 612.36 1171.36C635.27 1196.87 609 1202.45 643.79 1202.45C678.58 1202.45 679.63 1177.97 710.72 1189.81C741.81 1201.65 696.8 1208.72 729.37 1219.81C782.9 1238.06 775.85 1193.14 818.86 1217.58C851.43 1236.09 855.14 1236.09 874.39 1225.73C893.64 1215.37 877.39 1202.04 915.11 1210.92C952.83 1219.8 943.24 1226.47 965.45 1219.81C987.66 1213.15 1023.94 1212.4 1000.25 1205.74C976.56 1199.08 982.33 1200.85 961.6 1203.82C933.14 1207.92 908.45 1192.46 888.61 1198.69Z" fill="url(#paint5_linear_833_1643)"/>
<path fill-rule="evenodd" clip-rule="evenodd" d="M1478.82 1432.14C1513.45 1489.02 1437.54 1433.92 1424.04 1425.47C1371.29 1392.5 1466.08 1411.2 1478.82 1432.14Z" fill="url(#paint6_linear_833_1643)"/>
<path fill-rule="evenodd" clip-rule="evenodd" d="M1036.83 1472.52C1010.17 1488.07 982.04 1504.35 992.41 1482.14C1010.55 1443.26 1096.83 1437.52 1036.83 1472.52Z" fill="url(#paint7_linear_833_1643)"/>
<path fill-rule="evenodd" clip-rule="evenodd" d="M387.54 1427C391.98 1435.89 390.54 1441.81 381.61 1443.29C341.14 1450 382.9 1417.69 387.54 1427Z" fill="url(#paint8_linear_833_1643)"/>
<path fill-rule="evenodd" clip-rule="evenodd" d="M182.681 1186C164.171 1190.81 160.841 1194.89 145.291 1205.62C84.1806 1247.82 170.991 1219.33 181.571 1212.28C192.681 1204.88 198.231 1203.77 209.331 1199.7C220.431 1195.63 224.141 1194.52 224.141 1190.07C224.141 1178.65 190.001 1184.08 182.681 1186Z" fill="#B2E1ED"/>
<defs>
<linearGradient id="paint0_linear_833_1643" x1="646.39" y1="1022.59" x2="642.12" y2="1214.08" gradientUnits="userSpaceOnUse">
<stop stop-color="#91DAED"/>
<stop offset="1" stop-color="#118AA9" stop-opacity="0"/>
</linearGradient>
<linearGradient id="paint1_linear_833_1643" x1="1032" y1="946" x2="1020" y2="1622" gradientUnits="userSpaceOnUse">
<stop stop-color="#91DAED"/>
<stop offset="1" stop-color="#118AA9" stop-opacity="0"/>
</linearGradient>
<linearGradient id="paint2_linear_833_1643" x1="760.973" y1="1055.52" x2="758.459" y2="1130.85" gradientUnits="userSpaceOnUse">
<stop stop-color="#91DAED"/>
<stop offset="1" stop-color="#118AA9" stop-opacity="0"/>
</linearGradient>
<linearGradient id="paint3_linear_833_1643" x1="1019.2" y1="1044.22" x2="1016.63" y2="1186.2" gradientUnits="userSpaceOnUse">
<stop stop-color="#91DAED"/>
<stop offset="1" stop-color="#118AA9" stop-opacity="0"/>
</linearGradient>
<linearGradient id="paint4_linear_833_1643" x1="1169.47" y1="1040.01" x2="1161.04" y2="1331.24" gradientUnits="userSpaceOnUse">
<stop stop-color="#91DAED"/>
<stop offset="1" stop-color="#118AA9" stop-opacity="0"/>
</linearGradient>
<linearGradient id="paint5_linear_833_1643" x1="805.84" y1="1135.73" x2="804.413" y2="1254.53" gradientUnits="userSpaceOnUse">
<stop stop-color="#91DAED"/>
<stop offset="1" stop-color="#118AA9" stop-opacity="0"/>
</linearGradient>
<linearGradient id="paint6_linear_833_1643" x1="1448.03" y1="1406.48" x2="1446.02" y2="1469.02" gradientUnits="userSpaceOnUse">
<stop stop-color="#91DAED"/>
<stop offset="1" stop-color="#118AA9" stop-opacity="0"/>
</linearGradient>
<linearGradient id="paint7_linear_833_1643" x1="1024.01" y1="1448.4" x2="1022.21" y2="1502.99" gradientUnits="userSpaceOnUse">
<stop stop-color="#91DAED"/>
<stop offset="1" stop-color="#118AA9" stop-opacity="0"/>
</linearGradient>
<linearGradient id="paint8_linear_833_1643" x1="377.055" y1="1424.9" x2="376.17" y2="1448.53" gradientUnits="userSpaceOnUse">
<stop stop-color="#91DAED"/>
<stop offset="1" stop-color="#118AA9" stop-opacity="0"/>
</linearGradient>
</defs>
</svg>
