<svg id="Layer_1" data-name="Layer 1" xmlns="http://www.w3.org/2000/svg" xmlns:xlink="http://www.w3.org/1999/xlink" viewBox="0 0 1920 1080"><defs><style>.cls-1,.cls-2{fill:none;}.cls-2{clip-path:url(#clip-path);clip-rule:evenodd;}.cls-10,.cls-3{font-size:51.29px;}.cls-10,.cls-3,.cls-5{fill:#00abbd;}.cls-3{font-family:D-DIN-Bold, D-DIN;font-weight:700;}.cls-4{clip-path:url(#clip-path-4);}.cls-6{clip-path:url(#clip-path-5);}.cls-11,.cls-7{fill:#004970;}.cls-8{clip-path:url(#clip-path-6);}.cls-9{fill:#8ed8f8;}.cls-10{font-family:DIN-Medium, DIN Medium;font-weight:500;}.cls-11{fill-rule:evenodd;}</style><clipPath id="clip-path"><rect class="cls-1" x="302.34" y="265.34" width="749.33" height="749.33"/></clipPath><clipPath id="clip-path-4"><path class="cls-2" d="M661.36,516a60.38,60.38,0,0,1-4.59-27.36h0s-48.56,32-141.2,19.86a151.5,151.5,0,0,0-.6,62.13c7.28,36.74,21.68,61.6,48.84,83.26,83-10.33,125.87-67.94,97.55-137.9"/></clipPath><clipPath id="clip-path-5"><path class="cls-2" d="M747.7,413.85c-18.78,9-77.88,43.49-42.2,105.43,39.93,69.31,22,136.58-58.31,173A152.17,152.17,0,0,0,747.7,413.85"/></clipPath><clipPath id="clip-path-6"><path class="cls-2" d="M675.37,442.53c20.73-21.3,44.85-32.63,57.17-37.43a152.13,152.13,0,0,0-206.15,71.5c86.47,19.27,133.55-18.36,149-34.07"/></clipPath></defs><text class="cls-3" transform="translate(1373.46 665.86)">|</text><g class="cls-4"><rect class="cls-5" x="504.24" y="480.81" width="173.64" height="180.86"/></g><g class="cls-6"><rect class="cls-7" x="639.39" y="406.05" width="184.81" height="294.97"/></g><g class="cls-8"><rect class="cls-9" x="518.58" y="381.06" width="221.77" height="108.72"/></g><text class="cls-10" transform="translate(887.68 666.42)">Climate</text><text class="cls-3" transform="translate(1086.16 665.86)">|</text><text class="cls-10" transform="translate(1113.72 666.42)">Innovation</text><text class="cls-10" transform="translate(1397.12 666.42)">Capital</text><path id="Sangam" class="cls-11" d="M989.93,524.73a37.34,37.34,0,0,1-3.31,16,33.17,33.17,0,0,1-9.47,12,44.05,44.05,0,0,1-14.77,7.57,64.45,64.45,0,0,1-19,2.66q-15.15,0-26-4.17a58.56,58.56,0,0,1-20.26-13.64l9.85-9.84q8.32,8.32,16.85,11.55a56.06,56.06,0,0,0,19.89,3.22q14.76,0,23.29-6.54t8.52-18.46a27.81,27.81,0,0,0-1.61-9.66,17.4,17.4,0,0,0-4.83-7.19,20.39,20.39,0,0,0-6.72-4.07,66.36,66.36,0,0,0-10.89-2.37l-15.72-2.46q-16.1-2.66-24.81-10.23-10.22-9.09-10.22-25.19a39.41,39.41,0,0,1,3-15.62,33.14,33.14,0,0,1,8.61-12,39.83,39.83,0,0,1,13.54-7.67,55,55,0,0,1,18-2.75q12.89,0,22.16,3.5a58.16,58.16,0,0,1,18,11.27l-9.28,9.28a45.52,45.52,0,0,0-13.44-8.62q-7.2-2.93-18-2.93-13.64,0-21,6.82t-7.39,18.18q0,10.22,6.06,15.52a29.46,29.46,0,0,0,8,4.55,53.57,53.57,0,0,0,10.13,2.84L954,488.56c3.16.51,6,1,8.43,1.61a44.58,44.58,0,0,1,6.53,2,36.08,36.08,0,0,1,5.21,2.56,27.77,27.77,0,0,1,4.45,3.31Q989.93,507.69,989.93,524.73ZM1084,561.85h-13.63V553a32.44,32.44,0,0,1-11.65,7.86q-6,2.18-15.24,2.18a52.6,52.6,0,0,1-15.81-2,24.91,24.91,0,0,1-10.51-6.54,22.32,22.32,0,0,1-5.21-8.42,30.92,30.92,0,0,1-1.8-10.51q0-12.31,8.24-19.6t23.95-7.29h28v-8.9q0-10.23-5.49-15.34t-18.37-5.12q-9.09,0-14.2,2.37a23.92,23.92,0,0,0-9.28,8.24l-9.28-8.52q6.24-8.14,13.92-11t19-2.84q18.93,0,28.12,7.86t9.18,23.2Zm-13.63-33v-10h-26.13q-20.84,0-20.83,16.48,0,8.14,5.11,12t16.29,3.88a63.16,63.16,0,0,0,11.26-.94,18.07,18.07,0,0,0,9.57-5.3Q1070.36,540.46,1070.36,528.9Zm115.71,33h-13.64V504.47q0-12.5-6.15-18.65t-16.76-6.16q-10.61,0-16.85,6.25t-6.25,18.56v57.38h-13.64V468.68h13.64V478.9a31.77,31.77,0,0,1,11.55-8.52,36.71,36.71,0,0,1,14.58-2.84q15.15,0,23.86,8.71,9.66,9.48,9.66,25.95Zm101.83,2.84a46.43,46.43,0,0,1-2.66,16,36.55,36.55,0,0,1-7.57,12.59,34.34,34.34,0,0,1-12.21,8.34,42.4,42.4,0,0,1-16.39,3,59.55,59.55,0,0,1-9.46-.67,35,35,0,0,1-7.86-2.17,40.06,40.06,0,0,1-7.2-3.89,55.91,55.91,0,0,1-7.1-5.77l8.9-8.71a51,51,0,0,0,4.83,4,32.63,32.63,0,0,0,4.92,2.94,22.46,22.46,0,0,0,5.59,1.8,38.21,38.21,0,0,0,7,.57,27.09,27.09,0,0,0,11.64-2.28,22.57,22.57,0,0,0,8-6.06,23.78,23.78,0,0,0,4.54-9,42.58,42.58,0,0,0,1.42-11.27V549.54q-5.68,7.2-12.12,9.66a38.92,38.92,0,0,1-14,2.46,35.26,35.26,0,0,1-13-2.27,27.83,27.83,0,0,1-9.57-6.06,33.72,33.72,0,0,1-9.18-17.24,108,108,0,0,1,0-43.17,33.69,33.69,0,0,1,9.18-17.23,26.41,26.41,0,0,1,9.66-6,37.37,37.37,0,0,1,13.07-2.18,40.09,40.09,0,0,1,14.11,2.37q6.33,2.37,12,9.75v-11h13.45Zm-13.64-50.18a106.71,106.71,0,0,0-.76-12.79,32.73,32.73,0,0,0-3.22-11.17,20.46,20.46,0,0,0-7-7.86q-4.54-3-12.12-3t-12.22,3a20.24,20.24,0,0,0-7.1,7.86,33.18,33.18,0,0,0-3.22,11.17,110.11,110.11,0,0,0,0,25.66,33.07,33.07,0,0,0,3.22,11.08,20.24,20.24,0,0,0,7.1,7.86q4.65,3,12.22,3t12.12-3a20.46,20.46,0,0,0,7-7.86,32.62,32.62,0,0,0,3.22-11.08A105.73,105.73,0,0,0,1274.26,514.51Zm114.14,47.34h-13.64V553a32.41,32.41,0,0,1-11.64,7.86q-6,2.18-15.25,2.18a52.6,52.6,0,0,1-15.81-2,25,25,0,0,1-10.51-6.54,22.45,22.45,0,0,1-5.21-8.42,30.92,30.92,0,0,1-1.8-10.51q0-12.31,8.24-19.6t24-7.29h28v-8.9q0-10.23-5.49-15.34t-18.37-5.12q-9.09,0-14.2,2.37a24,24,0,0,0-9.28,8.24l-9.28-8.52q6.25-8.14,13.92-11t19-2.84q18.95,0,28.12,7.86t9.19,23.2Zm-13.64-33v-10h-26.13q-20.84,0-20.83,16.48,0,8.14,5.11,12t16.29,3.88a63.27,63.27,0,0,0,11.27-.94A18,18,0,0,0,1370,545Q1374.76,540.46,1374.76,528.9Zm175.74,33h-13.63V504.47q0-12.5-6.16-18.65T1514,479.66q-10.21,0-16.76,6.06T1490.66,503v58.9H1477V504.47q0-12.5-6.16-18.65t-16.76-6.16q-10.6,0-16.95,6.25t-6.34,18.56v57.38h-13.64V468.68h13.64V478.9a31.53,31.53,0,0,1,11.65-8.52,37.36,37.36,0,0,1,14.67-2.84,35.63,35.63,0,0,1,16.95,3.88,28.78,28.78,0,0,1,11.65,11.65q11-15.52,30.67-15.53a38.75,38.75,0,0,1,13.64,2.27,30.48,30.48,0,0,1,10.42,6.44q10,9.66,10,25.95Z"/></svg>