<svg width="53" height="50" viewBox="0 0 53 50" fill="none" xmlns="http://www.w3.org/2000/svg">
<path d="M52.807 49.9967V49.9946H52.8202V31.6571C52.8202 22.6863 50.7801 15.7759 39.7012 15.7759C34.3753 15.7759 30.8012 18.5425 29.3421 21.1655H29.188V16.6134H18.6836V49.9946H29.6216V33.4655C29.6216 29.1134 30.4931 24.905 36.1866 24.905C41.7964 24.905 41.88 29.8717 41.88 33.7446V49.9967H52.807Z" fill="#ACACAC"/>
<path d="M0.873047 16.6182H11.8242V49.9994H0.873047V16.6182Z" fill="#ACACAC"/>
<path d="M6.34271 0C2.84124 0 0 2.68958 0 6.00417C0 9.31875 2.84124 12.0646 6.34271 12.0646C9.84419 12.0646 12.6854 9.31875 12.6854 6.00417C12.6832 2.68958 9.84199 0 6.34271 0V0Z" fill="#ACACAC"/>
</svg>
