<svg width="60" height="47" viewBox="0 0 60 47" fill="none" xmlns="http://www.w3.org/2000/svg">
<path d="M59.4216 5.54916C57.2383 6.49039 54.8875 7.1269 52.4216 7.4113C54.9398 5.94867 56.8721 3.62947 57.7824 0.866739C55.4246 2.22102 52.8192 3.20626 50.036 3.73443C47.8177 1.43554 44.6473 0 41.1386 0C34.4106 0 28.9522 5.29862 28.9522 11.833C28.9522 12.7607 29.0569 13.6613 29.2661 14.528C19.1341 14.0337 10.153 9.3276 4.13653 2.16008C3.0867 3.91387 2.4868 5.94867 2.4868 8.11552C2.4868 12.219 4.63877 15.8417 7.91033 17.9645C5.91531 17.907 4.0319 17.3686 2.38566 16.4884V16.6339C2.38566 22.3693 6.58845 27.1533 12.1689 28.2367C11.147 28.5144 10.0693 28.6532 8.95667 28.6532C8.17191 28.6532 7.4046 28.5821 6.6617 28.4433C8.21377 33.1426 12.713 36.5655 18.0494 36.657C13.878 39.8327 8.61835 41.7254 2.90882 41.7254C1.92526 41.7254 0.952169 41.6712 0 41.5628C5.39563 44.9147 11.8062 46.875 18.6876 46.875C41.1142 46.875 53.3738 28.8462 53.3738 13.2076C53.3738 12.693 53.3633 12.1784 53.3424 11.6739C55.7246 10.0047 57.7928 7.92253 59.4216 5.54916" fill="#ACACAC"/>
</svg>
