<svg width="718" height="418" viewBox="0 0 718 418" fill="none" xmlns="http://www.w3.org/2000/svg">
<g filter="url(#filter0_d_423_284)">
<rect x="9" y="9" width="700" height="400" fill="white"/>
<rect x="8.5" y="8.5" width="701" height="401" stroke="#004970" stroke-opacity="0.88"/>
<path fill-rule="evenodd" clip-rule="evenodd" d="M220.22 151C221.694 151.479 223.159 151.99 224.645 152.432C234.088 155.238 240.76 161.348 244.809 170.136C246.989 174.866 243.691 178.826 239.348 178.812C236.97 178.804 235.173 177.372 234.104 175.124C231.873 170.439 228.488 166.928 223.696 164.762C213.636 160.217 202.066 164.492 197.053 174.317C191.413 185.365 196.627 197.904 207.108 202.793C207.704 203.073 208.387 203.161 209.29 203.414C209.339 202.612 209.413 201.972 209.414 201.331C209.425 197.547 209.403 193.765 209.428 189.983C209.447 186.929 211.131 184.678 213.967 183.835C216.305 183.141 218.987 184.309 220.461 186.821C220.866 187.509 221.039 188.426 221.053 189.243C221.119 193.212 221.095 197.183 221.109 201.149C221.117 203.26 221.811 203.707 223.692 202.799C228.424 200.517 231.942 197.021 234.154 192.233C235.556 189.2 237.597 187.967 240.704 188.25C242.931 188.453 245.07 190.325 245.588 193.104C245.827 194.39 245.478 195.967 244.918 197.195C241.172 205.378 235.022 211.119 226.701 214.512C225.587 214.966 224.375 215.23 223.18 215.417C221.689 215.655 221.078 216.395 221.09 217.914C221.136 223.556 220.937 229.204 221.172 234.838C221.312 238.166 219.831 240.216 217.244 241.826C215.877 241.826 214.514 241.826 213.149 241.826C213.118 241.645 213.144 241.341 213.055 241.301C210.132 240.078 209.403 237.661 209.416 234.789C209.438 229.089 209.4 223.386 209.439 217.686C209.447 216.566 209.246 215.707 208.005 215.498C203.51 214.741 199.572 212.713 196.035 209.968C190.414 205.597 186.302 200.126 184.417 193.14C184.034 191.725 183.476 190.358 183 188.97C183 185.37 183 181.771 183 178.173C183.226 177.951 183.614 177.753 183.652 177.505C184.577 171.312 187.451 166.05 191.609 161.516C196.368 156.325 202.159 152.813 209.23 151.661C209.573 151.605 209.86 151.228 210.173 151C213.518 151 216.87 151 220.22 151Z" fill="#1D1D1D"/>
<path fill-rule="evenodd" clip-rule="evenodd" d="M563.795 211.677C562.515 213.158 561.478 215.017 559.906 216.057C555.024 219.288 550.008 218.545 545.143 215.796C544.268 215.305 543.227 214.782 542.757 213.981C542.284 213.167 542.025 211.796 542.405 211.033C542.886 210.063 544.028 209.873 545.289 210.524C547.433 211.628 549.729 212.448 551.957 213.401C553.882 214.226 557.756 212.561 558.789 210.923C559.87 209.207 558.524 206.818 556.007 206.118C553.26 205.351 550.441 204.786 547.771 203.814C544.397 202.578 542.418 200.509 542.801 196.264C543.064 193.35 545.83 190.612 548.855 189.689C553.333 188.325 557.225 189.343 560.914 191.856C562.312 192.81 562.977 194.765 562.064 195.612C560.955 196.647 559.571 196.479 558.357 195.651C556.439 194.339 554.434 193.325 552.021 193.716C551.137 193.859 550.251 194.129 549.411 194.459C548.176 194.938 547.059 195.871 547.444 197.2C547.735 198.202 548.718 199.328 549.676 199.752C551.404 200.509 553.333 200.82 555.194 201.246C558.739 202.064 561.907 203.39 563.475 207.032C563.512 207.122 563.685 207.148 563.795 207.21C563.795 208.694 563.795 210.186 563.795 211.677Z" fill="#1D1D1D"/>
<path fill-rule="evenodd" clip-rule="evenodd" d="M369.245 192.292C370.64 191.621 371.791 190.939 373.03 190.493C383.254 186.826 391.935 195.12 391.112 204.763C390.649 210.177 387.941 214.077 382.998 216.45C376.858 219.398 368.777 216.604 366.174 210.315C365.205 207.975 364.532 205.352 364.448 202.836C364.219 195.779 364.368 188.711 364.367 181.647C364.365 180.164 364.654 178.91 366.484 178.779C368.223 178.657 369.121 179.429 369.138 181.19C369.171 184.226 369.146 187.262 369.154 190.3C369.156 190.891 369.206 191.486 369.245 192.292ZM386.24 203.673C386.508 198.482 382.087 194.484 377.764 194.528C372.986 194.574 369.289 198.633 369.17 203.473C369.055 208.025 372.925 212.575 377.823 212.582C382.305 212.591 386.64 207.962 386.24 203.673Z" fill="#1D1D1D"/>
<path fill-rule="evenodd" clip-rule="evenodd" d="M513.549 205.262C513.851 208.848 517.002 212.548 520.635 213.269C524.83 214.103 527.882 212.635 530.345 209.398C531.314 208.124 532.938 207.698 533.849 208.637C534.887 209.715 534.754 211.045 533.93 212.19C531.048 216.188 527.082 218.305 522.176 218.109C516.802 217.893 512.762 215.167 510.309 210.415C506.351 202.752 509.863 193.605 517.343 190.228C524.241 187.114 532.138 190.677 535.108 197.205C535.685 198.466 536.1 199.807 536.486 201.141C537.176 203.548 535.872 205.251 533.362 205.257C527.472 205.273 521.583 205.264 515.695 205.264C515.021 205.262 514.35 205.262 513.549 205.262ZM531.045 200.516C531.11 196.821 526.297 193.422 521.654 193.771C517.935 194.051 513.958 197.723 514.39 200.516C519.942 200.516 525.494 200.516 531.045 200.516Z" fill="#1D1D1D"/>
<path fill-rule="evenodd" clip-rule="evenodd" d="M327.947 215.064C326.393 215.733 324.934 216.425 323.428 216.996C317.213 219.352 310.393 215.068 308.049 209.606C305.255 203.09 307.157 194.847 313.916 191.159C319.974 187.853 327.285 189.868 331.064 195.911C332.718 198.553 333.355 201.509 333.325 204.623C333.295 207.97 333.336 211.318 333.303 214.662C333.289 216.085 332.563 217.162 331.207 217.545C329.846 217.925 329.073 216.985 328.478 215.898C328.305 215.579 328.088 215.282 327.947 215.064ZM311.495 203.664C311.849 205.007 312.097 206.387 312.578 207.683C314.104 211.793 319.605 213.754 323.483 211.742C327.953 209.425 328.932 204.705 327.862 200.628C326.993 197.321 323.673 194.783 320.844 194.477C315.766 193.93 311.447 198.648 311.495 203.664Z" fill="#1D1D1D"/>
<path fill-rule="evenodd" clip-rule="evenodd" d="M423.553 203.646C423.682 209.269 421.138 213.45 416.328 216.116C409.745 219.763 402.274 216.411 399.164 210.766C395.366 203.866 397.364 195.753 403.596 191.616C409.716 187.557 418.224 189.48 421.862 196.605C422.942 198.719 423.329 201.182 424.032 203.492C423.875 203.541 423.712 203.592 423.553 203.646ZM418.755 203.544C418.918 199.028 415.232 194.852 411.189 194.468C406.287 194.007 401.727 198.838 402.296 204.387C402.724 208.565 405.516 212.013 408.886 212.424C414.544 213.116 418.78 209.299 418.755 203.544Z" fill="#1D1D1D"/>
<path fill-rule="evenodd" clip-rule="evenodd" d="M287.637 195.138C284.044 195.006 281.527 196.778 279.975 199.83C278.349 203.023 278.721 206.211 280.897 209.06C283.141 211.996 286.264 213.012 289.777 212.238C292.298 211.682 294.218 210.017 295.418 207.661C296.321 205.885 297.544 205.142 298.755 205.694C300.389 206.437 300.86 207.98 300.031 209.872C297.642 215.321 290.552 218.576 284.844 217.195C279.827 215.986 276.497 212.959 274.795 208.332C272.187 201.245 276.02 192.95 283.752 190.426C290.19 188.327 297.208 191.978 299.72 197.092C300.197 198.063 300.142 199.503 299.812 200.566C299.652 201.078 298.215 201.545 297.469 201.413C296.723 201.278 295.916 200.489 295.485 199.778C293.907 197.189 291.486 194.874 287.637 195.138Z" fill="#1D1D1D"/>
<path fill-rule="evenodd" clip-rule="evenodd" d="M453.678 207.357C453.678 209.778 453.689 212.195 453.675 214.612C453.663 216.411 452.766 217.576 451.398 217.622C449.962 217.67 448.999 216.483 448.99 214.557C448.971 210.216 449.024 205.876 448.966 201.535C448.907 197.426 445.666 194.314 441.81 194.542C438.752 194.727 435.84 197.632 435.799 200.694C435.733 205.403 435.854 210.122 435.688 214.827C435.653 215.726 434.81 216.819 434.024 217.386C433.586 217.702 432.286 217.358 431.764 216.886C431.229 216.39 430.929 215.377 430.932 214.595C430.947 209.39 430.921 204.18 431.213 198.989C431.466 194.503 436.322 190.141 440.781 189.718C447.075 189.118 451.767 192.558 453.37 198.29C454.052 200.716 453.614 203.456 453.678 206.057C453.686 206.489 453.678 206.924 453.678 207.357Z" fill="#1D1D1D"/>
<path fill-rule="evenodd" clip-rule="evenodd" d="M492.746 203.682C492.746 201.203 492.664 198.725 492.773 196.249C492.853 194.468 492.531 193.351 490.388 193.708C488.94 193.95 488.254 192.794 488.172 191.754C488.109 190.969 488.796 190.006 489.392 189.34C489.697 188.994 490.545 189.016 491.131 189.063C492.37 189.165 492.773 188.627 492.751 187.45C492.714 185.097 492.672 182.74 492.796 180.392C492.908 178.222 494.114 177.352 495.925 178.152C496.528 178.417 497.152 179.349 497.203 180.021C497.375 182.176 497.389 184.358 497.265 186.517C497.156 188.358 497.566 189.225 499.677 189.154C500.436 189.128 501.615 190.215 501.903 191.036C502.116 191.655 501.347 192.773 500.758 193.452C500.463 193.794 499.6 193.747 499.005 193.708C497.715 193.629 497.263 194.143 497.276 195.439C497.327 200.707 497.219 205.97 497.375 211.232C497.403 212.097 498.259 213.275 499.057 213.707C500.262 214.354 501.026 215.121 500.66 216.366C500.255 217.75 499.098 218.301 497.609 218.036C494.529 217.483 492.871 215.517 492.773 212.045C492.692 209.261 492.757 206.468 492.757 203.683C492.752 203.682 492.749 203.682 492.746 203.682Z" fill="#1D1D1D"/>
<path fill-rule="evenodd" clip-rule="evenodd" d="M462.215 197.922C462.215 192.164 462.214 186.407 462.218 180.648C462.22 178.808 463.17 177.502 464.507 177.464C465.977 177.425 466.869 178.566 466.869 180.564C466.875 192.082 466.875 203.597 466.869 215.11C466.869 217.025 466.052 218.042 464.574 218.058C463.101 218.077 462.22 216.951 462.218 215.012C462.214 209.314 462.215 203.617 462.215 197.922Z" fill="#1D1D1D"/>
<path fill-rule="evenodd" clip-rule="evenodd" d="M341.27 207.857C341.19 205.056 341.072 201.429 342.732 198.034C344.675 194.063 349.31 190.191 354.602 190.391C356.502 190.465 357.481 191.22 357.507 192.761C357.531 194.204 356.442 195.211 354.724 195.297C350.163 195.524 346.538 199.419 346.549 203.336C346.558 206.864 346.607 210.398 346.42 213.919C346.368 214.944 345.836 216.34 345.055 216.855C343.37 217.969 341.356 216.585 341.282 214.441C341.216 212.526 341.27 210.605 341.27 207.857Z" fill="#1D1D1D"/>
<path fill-rule="evenodd" clip-rule="evenodd" d="M480.082 203.508C480.082 207.473 480.035 211.444 480.107 215.404C480.137 217.008 479.485 217.895 477.943 218.039C476.573 218.168 475.536 217.061 475.53 215.374C475.497 207.566 475.499 199.76 475.53 191.95C475.536 190.218 476.694 188.892 477.998 189.081C479.626 189.313 480.135 190.392 480.107 191.982C480.036 195.824 480.082 199.666 480.082 203.508Z" fill="#1D1D1D"/>
</g>
<defs>
<filter id="filter0_d_423_284" x="0" y="0" width="718" height="418" filterUnits="userSpaceOnUse" color-interpolation-filters="sRGB">
<feFlood flood-opacity="0" result="BackgroundImageFix"/>
<feColorMatrix in="SourceAlpha" type="matrix" values="0 0 0 0 0 0 0 0 0 0 0 0 0 0 0 0 0 0 127 0" result="hardAlpha"/>
<feOffset/>
<feGaussianBlur stdDeviation="4"/>
<feComposite in2="hardAlpha" operator="out"/>
<feColorMatrix type="matrix" values="0 0 0 0 0 0 0 0 0 0 0 0 0 0 0 0 0 0 0.1 0"/>
<feBlend mode="normal" in2="BackgroundImageFix" result="effect1_dropShadow_423_284"/>
<feBlend mode="normal" in="SourceGraphic" in2="effect1_dropShadow_423_284" result="shape"/>
</filter>
</defs>
</svg>
