<svg width="88" height="88" viewBox="0 0 88 88" fill="none" xmlns="http://www.w3.org/2000/svg">
<g filter="url(#filter0_d_421_134)">
<circle r="34" transform="matrix(-1 0 0 1 44 39)" fill="white"/>
<path d="M60.7116 26.3221C60.7116 25.4103 60.4412 24.519 59.9346 23.7608C59.428 23.0027 58.708 22.4118 57.8656 22.0628C57.0232 21.7139 56.0963 21.6226 55.202 21.8005C54.3077 21.9784 53.4862 22.4175 52.8415 23.0622C52.1968 23.7069 51.7577 24.5284 51.5798 25.4227C51.4019 26.317 51.4932 27.2439 51.8421 28.0863C52.1911 28.9287 52.782 29.6487 53.5401 30.1553C54.2982 30.6619 55.1896 30.9323 56.1014 30.9323C57.3241 30.9323 58.4967 30.4465 59.3613 29.582C60.2258 28.7174 60.7116 27.5448 60.7116 26.3221ZM58.2376 26.7295L55.3563 29.6109L54.5414 28.796L56.439 26.8984H54.3726C54.2586 26.8984 54.1472 26.8646 54.0524 26.8012C53.9577 26.7379 53.8838 26.6479 53.8402 26.5426C53.7966 26.4373 53.7852 26.3215 53.8074 26.2097C53.8297 26.0979 53.8846 25.9952 53.9651 25.9147L56.8465 23.0333L57.6613 23.8482L55.7637 25.7458H57.8302C57.9442 25.7458 58.0556 25.7796 58.1503 25.8429C58.2451 25.9062 58.319 25.9962 58.3626 26.1015C58.4062 26.2068 58.4176 26.3227 58.3953 26.4345C58.3731 26.5463 58.3182 26.6489 58.2376 26.7295V26.7295Z" fill="url(#paint0_linear_421_134)"/>
<path d="M39.3896 29.2029C39.3896 30.1147 39.66 31.0061 40.1666 31.7642C40.6732 32.5224 41.3932 33.1133 42.2356 33.4622C43.078 33.8111 44.0049 33.9024 44.8992 33.7245C45.7935 33.5466 46.615 33.1076 47.2597 32.4628C47.9044 31.8181 48.3435 30.9966 48.5214 30.1023C48.6993 29.2081 48.608 28.2811 48.2591 27.4387C47.9101 26.5963 47.3192 25.8763 46.5611 25.3697C45.803 24.8632 44.9116 24.5928 43.9998 24.5928C42.7771 24.5928 41.6045 25.0785 40.7399 25.9431C39.8754 26.8076 39.3896 27.9802 39.3896 29.2029V29.2029ZM45.5598 26.729L43.6622 28.6267H45.7286C45.8426 28.6267 45.954 28.6605 46.0488 28.7238C46.1435 28.7871 46.2174 28.8771 46.261 28.9824C46.3046 29.0877 46.316 29.2036 46.2938 29.3153C46.2715 29.4271 46.2166 29.5298 46.1361 29.6104L43.2547 32.4917L42.4399 31.6769L44.3375 29.7792H42.271C42.157 29.7792 42.0456 29.7454 41.9509 29.6821C41.8561 29.6188 41.7822 29.5288 41.7386 29.4235C41.695 29.3182 41.6836 29.2023 41.7059 29.0906C41.7281 28.9788 41.783 28.8761 41.8636 28.7955L44.7449 25.9142L45.5598 26.729Z" fill="url(#paint1_linear_421_134)"/>
<path d="M50.9155 51.9661C50.9155 51.584 50.7637 51.2175 50.4935 50.9474C50.2233 50.6772 49.8569 50.5254 49.4748 50.5254H38.5256C38.1435 50.5254 37.7771 50.6772 37.5069 50.9474C37.2367 51.2175 37.085 51.584 37.085 51.9661C37.085 52.3482 37.2367 52.7146 37.5069 52.9848C37.7771 53.255 38.1435 53.4067 38.5256 53.4067H49.4748C49.8569 53.4067 50.2233 53.255 50.4935 52.9848C50.7637 52.7146 50.9155 52.3482 50.9155 51.9661Z" fill="url(#paint2_linear_421_134)"/>
<path d="M40.5422 53.9834C40.2365 53.9834 39.9434 54.1048 39.7272 54.321C39.5111 54.5371 39.3896 54.8303 39.3896 55.1359C39.3896 55.4416 39.5111 55.7348 39.7272 55.9509C39.9434 56.1671 40.2365 56.2885 40.5422 56.2885H47.4574C47.7631 56.2885 48.0563 56.1671 48.2724 55.9509C48.4886 55.7348 48.61 55.4416 48.61 55.1359C48.61 54.8303 48.4886 54.5371 48.2724 54.321C48.0563 54.1048 47.7631 53.9834 47.4574 53.9834H40.5422Z" fill="url(#paint3_linear_421_134)"/>
<path d="M57.1944 33.0713L56.0469 33.181C56.0832 33.5612 56.1017 33.9498 56.102 34.3361L57.2546 34.3355C57.2543 33.9129 57.234 33.4877 57.1944 33.0713Z" fill="url(#paint4_linear_421_134)"/>
<path d="M50.0893 22.9658C49.7067 22.7933 49.3107 22.6369 48.912 22.501L48.54 23.5916C48.9042 23.716 49.266 23.8586 49.6155 24.0165L50.0893 22.9658Z" fill="url(#paint5_linear_421_134)"/>
<path d="M47.6943 22.1522C47.2857 22.0557 46.8667 21.978 46.4494 21.9209L46.293 23.0628C46.6742 23.1148 47.0569 23.186 47.4298 23.2738L47.6943 22.1522Z" fill="url(#paint6_linear_421_134)"/>
<path d="M60.1359 52.8301H58.9834V53.9826H60.1359V52.8301Z" fill="url(#paint7_linear_421_134)"/>
<path d="M60.1359 55.1357H58.9834V56.2883H60.1359V55.1357Z" fill="url(#paint8_linear_421_134)"/>
<path d="M61.2883 53.9834H60.1357V55.1359H61.2883V53.9834Z" fill="url(#paint9_linear_421_134)"/>
<path d="M58.9826 53.9834H57.8301V55.1359H58.9826V53.9834Z" fill="url(#paint10_linear_421_134)"/>
<path d="M29.0168 52.8301H27.8643V53.9826H29.0168V52.8301Z" fill="url(#paint11_linear_421_134)"/>
<path d="M29.0168 55.1357H27.8643V56.2883H29.0168V55.1357Z" fill="url(#paint12_linear_421_134)"/>
<path d="M30.1691 53.9834H29.0166V55.1359H30.1691V53.9834Z" fill="url(#paint13_linear_421_134)"/>
<path d="M27.8645 53.9834H26.7119V55.1359H27.8645V53.9834Z" fill="url(#paint14_linear_421_134)"/>
<path d="M44.0003 36.1439V34.3903C42.6247 34.3903 41.3056 33.8439 40.3329 32.8712C39.3603 31.8986 38.8138 30.5794 38.8138 29.2038C38.8138 27.8283 39.3603 26.5091 40.3329 25.5365C41.3056 24.5638 42.6247 24.0174 44.0003 24.0174V21.7139C43.7531 21.7151 43.4403 21.722 43.19 21.7375C40.7106 21.8958 38.3324 22.7793 36.351 24.2781C34.3695 25.7769 32.8722 27.825 32.0452 30.1677C31.2181 32.5105 31.0978 35.0447 31.6992 37.4552C32.3005 39.8658 33.597 42.0465 35.4275 43.7263C36.2988 44.5036 36.9987 45.4538 37.4825 46.5165C37.9663 47.5792 38.2234 48.7309 38.2376 49.8985V49.9496H49.763V49.8986C49.7774 48.7307 50.0348 47.5786 50.5189 46.5156C51.003 45.4526 51.7032 44.5021 52.5748 43.7247C54.7361 41.743 56.1414 39.0718 56.5502 36.1681L44.0003 36.1439ZM46.8816 48.2208H41.1189C40.9661 48.2208 40.8195 48.1601 40.7114 48.052C40.6034 47.9439 40.5426 47.7974 40.5426 47.6445V44.7631L39.851 45.6853L38.9292 44.9936L40.658 42.6885C40.714 42.6204 40.7843 42.5656 40.864 42.5279C40.9437 42.4903 41.0308 42.4707 41.1189 42.4707C41.2071 42.4707 41.2941 42.4903 41.3738 42.5279C41.4535 42.5656 41.5239 42.6204 41.5798 42.6885L43.3086 44.9936L42.3868 45.6853L41.6952 44.7631V47.0682H46.8816V48.2208ZM47.2891 45.1706C47.2356 45.2241 47.172 45.2666 47.1021 45.2955C47.0322 45.3245 46.9573 45.3394 46.8816 45.3394C46.8059 45.3394 46.731 45.3245 46.6611 45.2955C46.5912 45.2666 46.5277 45.2241 46.4742 45.1706L44.7454 43.4418L45.5602 42.6269L46.3054 43.372V40.7293H41.1189V39.5767H46.8816C47.0345 39.5767 47.181 39.6374 47.2891 39.7455C47.3972 39.8536 47.4579 40.0002 47.4579 40.153V43.372L48.203 42.6269L49.0179 43.4418L47.2891 45.1706Z" fill="url(#paint15_linear_421_134)"/>
</g>
<defs>
<filter id="filter0_d_421_134" x="0" y="0" width="88" height="88" filterUnits="userSpaceOnUse" color-interpolation-filters="sRGB">
<feFlood flood-opacity="0" result="BackgroundImageFix"/>
<feColorMatrix in="SourceAlpha" type="matrix" values="0 0 0 0 0 0 0 0 0 0 0 0 0 0 0 0 0 0 127 0" result="hardAlpha"/>
<feOffset dy="5"/>
<feGaussianBlur stdDeviation="5"/>
<feComposite in2="hardAlpha" operator="out"/>
<feColorMatrix type="matrix" values="0 0 0 0 0.14902 0 0 0 0 0.196078 0 0 0 0 0.219608 0 0 0 0.05 0"/>
<feBlend mode="normal" in2="BackgroundImageFix" result="effect1_dropShadow_421_134"/>
<feBlend mode="normal" in="SourceGraphic" in2="effect1_dropShadow_421_134" result="shape"/>
</filter>
<linearGradient id="paint0_linear_421_134" x1="51.4912" y1="15.6528" x2="51.4912" y2="37.7817" gradientUnits="userSpaceOnUse">
<stop stop-color="#004970"/>
<stop offset="1" stop-color="#00ABBD"/>
</linearGradient>
<linearGradient id="paint1_linear_421_134" x1="39.3896" y1="18.5337" x2="39.3896" y2="40.6625" gradientUnits="userSpaceOnUse">
<stop stop-color="#004970"/>
<stop offset="1" stop-color="#00ABBD"/>
</linearGradient>
<linearGradient id="paint2_linear_421_134" x1="37.085" y1="48.6319" x2="37.085" y2="55.5472" gradientUnits="userSpaceOnUse">
<stop stop-color="#004970"/>
<stop offset="1" stop-color="#00ABBD"/>
</linearGradient>
<linearGradient id="paint3_linear_421_134" x1="39.3896" y1="52.4686" x2="39.3896" y2="58.0008" gradientUnits="userSpaceOnUse">
<stop stop-color="#004970"/>
<stop offset="1" stop-color="#00ABBD"/>
</linearGradient>
<linearGradient id="paint4_linear_421_134" x1="56.0469" y1="32.2401" x2="56.0469" y2="35.2757" gradientUnits="userSpaceOnUse">
<stop stop-color="#004970"/>
<stop offset="1" stop-color="#00ABBD"/>
</linearGradient>
<linearGradient id="paint5_linear_421_134" x1="48.54" y1="21.5051" x2="48.54" y2="25.1423" gradientUnits="userSpaceOnUse">
<stop stop-color="#004970"/>
<stop offset="1" stop-color="#00ABBD"/>
</linearGradient>
<linearGradient id="paint6_linear_421_134" x1="46.293" y1="21.0319" x2="46.293" y2="24.2788" gradientUnits="userSpaceOnUse">
<stop stop-color="#004970"/>
<stop offset="1" stop-color="#00ABBD"/>
</linearGradient>
<linearGradient id="paint7_linear_421_134" x1="58.9834" y1="52.0727" x2="58.9834" y2="54.8388" gradientUnits="userSpaceOnUse">
<stop stop-color="#004970"/>
<stop offset="1" stop-color="#00ABBD"/>
</linearGradient>
<linearGradient id="paint8_linear_421_134" x1="58.9834" y1="54.3784" x2="58.9834" y2="57.1445" gradientUnits="userSpaceOnUse">
<stop stop-color="#004970"/>
<stop offset="1" stop-color="#00ABBD"/>
</linearGradient>
<linearGradient id="paint9_linear_421_134" x1="60.1357" y1="53.226" x2="60.1357" y2="55.9921" gradientUnits="userSpaceOnUse">
<stop stop-color="#004970"/>
<stop offset="1" stop-color="#00ABBD"/>
</linearGradient>
<linearGradient id="paint10_linear_421_134" x1="57.8301" y1="53.226" x2="57.8301" y2="55.9921" gradientUnits="userSpaceOnUse">
<stop stop-color="#004970"/>
<stop offset="1" stop-color="#00ABBD"/>
</linearGradient>
<linearGradient id="paint11_linear_421_134" x1="27.8643" y1="52.0727" x2="27.8643" y2="54.8388" gradientUnits="userSpaceOnUse">
<stop stop-color="#004970"/>
<stop offset="1" stop-color="#00ABBD"/>
</linearGradient>
<linearGradient id="paint12_linear_421_134" x1="27.8643" y1="54.3784" x2="27.8643" y2="57.1445" gradientUnits="userSpaceOnUse">
<stop stop-color="#004970"/>
<stop offset="1" stop-color="#00ABBD"/>
</linearGradient>
<linearGradient id="paint13_linear_421_134" x1="29.0166" y1="53.226" x2="29.0166" y2="55.9921" gradientUnits="userSpaceOnUse">
<stop stop-color="#004970"/>
<stop offset="1" stop-color="#00ABBD"/>
</linearGradient>
<linearGradient id="paint14_linear_421_134" x1="26.7119" y1="53.226" x2="26.7119" y2="55.9921" gradientUnits="userSpaceOnUse">
<stop stop-color="#004970"/>
<stop offset="1" stop-color="#00ABBD"/>
</linearGradient>
<linearGradient id="paint15_linear_421_134" x1="31.3223" y1="3.15895" x2="31.3223" y2="70.9247" gradientUnits="userSpaceOnUse">
<stop stop-color="#004970"/>
<stop offset="1" stop-color="#00ABBD"/>
</linearGradient>
</defs>
</svg>
