<svg width="88" height="88" viewBox="0 0 88 88" fill="none" xmlns="http://www.w3.org/2000/svg">
<g filter="url(#filter0_d_422_214)">
<circle r="34" transform="matrix(-1 0 0 1 44 39)" fill="white"/>
<path d="M51.5439 37.1622C50.0612 37.1622 48.8551 38.3683 48.8551 39.8511H47.5107C47.5107 37.8692 48.9484 36.2205 50.8354 35.8844C50.5329 33.2037 48.254 31.1124 45.4941 31.1124C44.6862 31.1124 43.897 31.302 43.1761 31.6474C43.3673 32.3343 43.4774 33.0542 43.4774 33.8012H42.133C42.133 30.0947 39.1174 27.0791 35.4109 27.0791C31.7045 27.0791 28.6889 30.0947 28.6889 33.8012C28.6889 34.4983 28.799 35.1792 29.007 35.834C31.0827 35.9973 32.7221 37.7342 32.7221 39.8511H31.3777C31.3777 38.3683 30.1716 37.1622 28.6888 37.1622C27.2061 37.1622 26 38.3683 26 39.8511C26 41.3338 27.2061 42.5399 28.6888 42.5399H37.4275V37.1622C37.4275 35.6794 38.6336 34.4734 40.1164 34.4734C41.5991 34.4734 42.8052 35.6794 42.8052 37.1622V42.5399H51.5439C53.0267 42.5399 54.2327 41.3338 54.2327 39.8511C54.2327 38.368 53.0267 37.1622 51.5439 37.1622L51.5439 37.1622Z" fill="url(#paint0_linear_422_214)"/>
<path d="M41.7273 53.1746L41.4605 52.9729V37.1618C41.4605 36.4203 40.8576 35.8174 40.1161 35.8174C39.3746 35.8174 38.7717 36.4203 38.7717 37.1618V38.5062H40.1161V39.8506H38.7717V41.195H40.1161V42.5395H38.7717V43.8839H40.1161V45.2283H38.7717V46.5727H40.1161V47.9171H38.7717V49.2615H40.1161V50.606H38.7717V52.9722L38.5055 53.1745C37.6718 53.805 37.2868 54.7931 37.4744 55.8189C37.6673 56.8722 38.4947 57.7253 39.5327 57.9396C40.3636 58.1131 41.1721 57.9195 41.8122 57.3985C42.4433 56.8842 42.8049 56.124 42.8049 55.3114C42.8049 54.4702 42.4124 53.6912 41.7273 53.1745L41.7273 53.1746ZM40.7883 55.9837H39.4439V54.6393H40.7883V55.9837Z" fill="url(#paint1_linear_422_214)"/>
<path d="M60.2826 31.1121C60.2826 27.035 56.9654 23.7178 52.8884 23.7178C49.3088 23.7178 46.253 26.3226 45.6177 29.7736C49.0595 29.837 51.8758 32.4955 52.1852 35.8733C53.5188 36.0879 54.6333 36.9554 55.1912 38.1393C58.2162 37.1559 60.2826 34.3458 60.2826 31.112L60.2826 31.1121Z" fill="url(#paint2_linear_422_214)"/>
<path d="M63.5672 34.8562C64.023 34.7413 64.8714 34.5267 65.0016 34.3341C64.962 34.1681 64.3597 33.5811 64.035 33.2661C63.3481 32.5972 62.6375 31.9061 62.6375 31.1129C62.6375 30.3198 63.3482 29.6287 64.035 28.9598C64.3591 28.6444 64.962 28.0577 64.9881 27.8339C64.8711 27.6982 64.0221 27.4837 63.5672 27.3687C62.6159 27.1287 61.718 26.9021 61.3348 26.2389C60.9455 25.5661 61.1991 24.6658 61.468 23.7127C61.5937 23.2676 61.8263 22.4394 61.7303 22.2311C61.5688 22.1774 60.7349 22.4085 60.2889 22.5336C59.3349 22.8031 58.4338 23.0558 57.7621 22.6669C57.0992 22.2837 56.8726 21.3858 56.6323 20.4345C56.5173 19.9786 56.3028 19.1302 56.1101 19C55.9441 19.0396 55.3572 19.6419 55.0421 19.9666C54.3726 20.6535 53.6815 21.3633 52.8883 21.3633C52.0958 21.3633 51.4041 20.6526 50.7352 19.9658C50.4198 19.6416 49.8331 19.0388 49.6093 19.0127C49.4736 19.1297 49.2591 19.9787 49.1441 20.4336C48.9041 21.3849 48.6775 22.2828 48.0143 22.666C47.3427 23.0552 46.4421 22.8026 45.4881 22.5328C45.043 22.4076 44.2136 22.1751 44.0065 22.2705C43.9507 22.4386 44.1839 23.2668 44.309 23.7119C44.5779 24.6659 44.8312 25.5659 44.4423 26.2387C44.0591 26.9016 43.1612 27.1281 42.2099 27.3685C41.7924 27.4742 41.0509 27.6629 40.8291 27.8424C41.6109 28.5536 42.251 29.414 42.7059 30.3812C43.1966 30.1573 43.7121 30.0001 44.2427 29.8998C44.8393 25.64 48.5331 22.3738 52.8884 22.3738C57.7067 22.3738 61.6271 26.2942 61.6271 31.1125C61.6271 34.9521 59.1601 38.285 55.5551 39.4333C55.5698 39.571 55.5773 39.71 55.5773 39.8513C55.5773 40.6855 55.3225 41.4619 54.8871 42.1059C54.9381 42.1584 54.9891 42.2055 55.0404 42.2584C55.3564 42.5825 55.944 43.1865 56.1676 43.213C56.3032 43.0959 56.5178 42.247 56.6327 41.792C56.8728 40.8407 57.0993 39.9429 57.7625 39.5596C58.4342 39.171 59.3347 39.424 60.2887 39.6929C60.7338 39.818 61.5611 40.0497 61.7703 39.9552C61.8261 39.7871 61.5929 38.9588 61.4678 38.5138C61.1989 37.5598 60.9456 36.6598 61.3346 35.987C61.7178 35.3232 62.616 35.0966 63.5672 34.8565L63.5672 34.8562Z" fill="url(#paint3_linear_422_214)"/>
</g>
<defs>
<filter id="filter0_d_422_214" x="0" y="0" width="88" height="88" filterUnits="userSpaceOnUse" color-interpolation-filters="sRGB">
<feFlood flood-opacity="0" result="BackgroundImageFix"/>
<feColorMatrix in="SourceAlpha" type="matrix" values="0 0 0 0 0 0 0 0 0 0 0 0 0 0 0 0 0 0 127 0" result="hardAlpha"/>
<feOffset dy="5"/>
<feGaussianBlur stdDeviation="5"/>
<feComposite in2="hardAlpha" operator="out"/>
<feColorMatrix type="matrix" values="0 0 0 0 0.14902 0 0 0 0 0.196078 0 0 0 0 0.219608 0 0 0 0.05 0"/>
<feBlend mode="normal" in2="BackgroundImageFix" result="effect1_dropShadow_422_214"/>
<feBlend mode="normal" in="SourceGraphic" in2="effect1_dropShadow_422_214" result="shape"/>
</filter>
<linearGradient id="paint0_linear_422_214" x1="26" y1="16.9192" x2="26" y2="54.025" gradientUnits="userSpaceOnUse">
<stop stop-color="#004970"/>
<stop offset="1" stop-color="#00ABBD"/>
</linearGradient>
<linearGradient id="paint1_linear_422_214" x1="37.4277" y1="21.2392" x2="37.4277" y2="74.4813" gradientUnits="userSpaceOnUse">
<stop stop-color="#004970"/>
<stop offset="1" stop-color="#00ABBD"/>
</linearGradient>
<linearGradient id="paint2_linear_422_214" x1="45.6177" y1="14.2408" x2="45.6177" y2="48.8524" gradientUnits="userSpaceOnUse">
<stop stop-color="#004970"/>
<stop offset="1" stop-color="#00ABBD"/>
</linearGradient>
<linearGradient id="paint3_linear_422_214" x1="40.8291" y1="3.08862" x2="40.8291" y2="61.1998" gradientUnits="userSpaceOnUse">
<stop stop-color="#004970"/>
<stop offset="1" stop-color="#00ABBD"/>
</linearGradient>
</defs>
</svg>
