<svg width="88" height="88" viewBox="0 0 88 88" fill="none" xmlns="http://www.w3.org/2000/svg">
<g filter="url(#filter0_d_844_23)">
<circle r="34" transform="matrix(-1 0 0 1 44 39)" fill="white"/>
<path d="M60.7119 26.3221C60.7119 25.4103 60.4415 24.519 59.9349 23.7608C59.4283 23.0027 58.7083 22.4118 57.8659 22.0628C57.0235 21.7139 56.0966 21.6226 55.2023 21.8005C54.308 21.9784 53.4866 22.4175 52.8418 23.0622C52.1971 23.7069 51.758 24.5284 51.5801 25.4227C51.4022 26.317 51.4935 27.2439 51.8424 28.0863C52.1914 28.9287 52.7823 29.6487 53.5404 30.1553C54.2986 30.6619 55.1899 30.9323 56.1017 30.9323C57.3244 30.9323 58.497 30.4465 59.3616 29.582C60.2261 28.7174 60.7119 27.5448 60.7119 26.3221ZM58.2379 26.7295L55.3566 29.6109L54.5417 28.796L56.4393 26.8984H54.3729C54.2589 26.8984 54.1475 26.8646 54.0527 26.8012C53.958 26.7379 53.8841 26.6479 53.8405 26.5426C53.7969 26.4373 53.7855 26.3215 53.8077 26.2097C53.83 26.0979 53.8849 25.9952 53.9655 25.9147L56.8468 23.0333L57.6617 23.8482L55.764 25.7458H57.8305C57.9445 25.7458 58.0559 25.7796 58.1506 25.8429C58.2454 25.9062 58.3193 25.9962 58.3629 26.1015C58.4065 26.2068 58.4179 26.3227 58.3956 26.4345C58.3734 26.5463 58.3185 26.6489 58.2379 26.7295V26.7295Z" fill="url(#paint0_linear_844_23)"/>
<path d="M39.3898 29.2034C39.3898 30.1152 39.6602 31.0066 40.1668 31.7647C40.6734 32.5228 41.3934 33.1137 42.2358 33.4627C43.0782 33.8116 44.0051 33.9029 44.8994 33.725C45.7937 33.5471 46.6151 33.1081 47.2599 32.4633C47.9046 31.8186 48.3437 30.9971 48.5216 30.1028C48.6995 29.2085 48.6082 28.2816 48.2592 27.4392C47.9103 26.5968 47.3194 25.8768 46.5613 25.3702C45.8031 24.8636 44.9118 24.5933 44 24.5933C42.7773 24.5933 41.6047 25.079 40.7401 25.9435C39.8755 26.8081 39.3898 27.9807 39.3898 29.2034V29.2034ZM45.56 26.7295L43.6623 28.6272H45.7288C45.8428 28.6272 45.9542 28.661 46.049 28.7243C46.1437 28.7876 46.2176 28.8776 46.2612 28.9829C46.3048 29.0882 46.3162 29.204 46.294 29.3158C46.2717 29.4276 46.2168 29.5303 46.1362 29.6109L43.2549 32.4922L42.44 31.6774L44.3377 29.7797H42.2712C42.1572 29.7797 42.0458 29.7459 41.951 29.6826C41.8563 29.6193 41.7824 29.5293 41.7388 29.424C41.6952 29.3187 41.6838 29.2028 41.706 29.091C41.7283 28.9793 41.7832 28.8766 41.8638 28.796L44.7451 25.9147L45.56 26.7295Z" fill="url(#paint1_linear_844_23)"/>
<path d="M50.9153 51.9661C50.9153 51.584 50.7635 51.2175 50.4933 50.9474C50.2231 50.6772 49.8567 50.5254 49.4746 50.5254H38.5254C38.1433 50.5254 37.7769 50.6772 37.5067 50.9474C37.2365 51.2175 37.0847 51.584 37.0847 51.9661C37.0847 52.3482 37.2365 52.7146 37.5067 52.9848C37.7769 53.255 38.1433 53.4067 38.5254 53.4067H49.4746C49.8567 53.4067 50.2231 53.255 50.4933 52.9848C50.7635 52.7146 50.9153 52.3482 50.9153 51.9661Z" fill="url(#paint2_linear_844_23)"/>
<path d="M40.5424 53.9832C40.2367 53.9832 39.9435 54.1046 39.7274 54.3207C39.5113 54.5369 39.3898 54.83 39.3898 55.1357C39.3898 55.4414 39.5113 55.7345 39.7274 55.9507C39.9435 56.1668 40.2367 56.2882 40.5424 56.2882H47.4576C47.7633 56.2882 48.0565 56.1668 48.2726 55.9507C48.4887 55.7345 48.6102 55.4414 48.6102 55.1357C48.6102 54.83 48.4887 54.5369 48.2726 54.3207C48.0565 54.1046 47.7633 53.9832 47.4576 53.9832H40.5424Z" fill="url(#paint3_linear_844_23)"/>
<path d="M57.194 33.0713L56.0465 33.181C56.0828 33.5612 56.1014 33.9498 56.1017 34.3361L57.2542 34.3355C57.2539 33.9129 57.2337 33.4877 57.194 33.0713Z" fill="url(#paint4_linear_844_23)"/>
<path d="M50.0895 22.9663C49.7069 22.7938 49.311 22.6374 48.9122 22.5015L48.5403 23.5921C48.9044 23.7165 49.2662 23.8591 49.6157 24.017L50.0895 22.9663Z" fill="url(#paint5_linear_844_23)"/>
<path d="M47.6941 22.152C47.2856 22.0554 46.8666 21.9778 46.4493 21.9207L46.2928 23.0625C46.6741 23.1146 47.0568 23.1858 47.4296 23.2735L47.6941 22.152Z" fill="url(#paint6_linear_844_23)"/>
<path d="M60.1356 52.8306H58.9831V53.9831H60.1356V52.8306Z" fill="url(#paint7_linear_844_23)"/>
<path d="M60.1356 55.1355H58.9831V56.288H60.1356V55.1355Z" fill="url(#paint8_linear_844_23)"/>
<path d="M61.2881 53.9832H60.1356V55.1357H61.2881V53.9832Z" fill="url(#paint9_linear_844_23)"/>
<path d="M58.983 53.9832H57.8305V55.1357H58.983V53.9832Z" fill="url(#paint10_linear_844_23)"/>
<path d="M29.017 52.8306H27.8644V53.9831H29.017V52.8306Z" fill="url(#paint11_linear_844_23)"/>
<path d="M29.017 55.1355H27.8644V56.288H29.017V55.1355Z" fill="url(#paint12_linear_844_23)"/>
<path d="M30.1695 53.9832H29.0169V55.1357H30.1695V53.9832Z" fill="url(#paint13_linear_844_23)"/>
<path d="M27.8644 53.9832H26.7119V55.1357H27.8644V53.9832Z" fill="url(#paint14_linear_844_23)"/>
<path d="M44 36.1436V34.39C42.6245 34.39 41.3053 33.8436 40.3327 32.871C39.36 31.8983 38.8136 30.5791 38.8136 29.2036C38.8136 27.8281 39.36 26.5089 40.3327 25.5362C41.3053 24.5636 42.6245 24.0172 44 24.0172V21.7136C43.7528 21.7149 43.44 21.7217 43.1898 21.7373C40.7104 21.8956 38.3322 22.7791 36.3507 24.2779C34.3693 25.7767 32.872 27.8247 32.0449 30.1675C31.2179 32.5103 31.0976 35.0444 31.6989 37.455C32.3003 39.8656 33.5968 42.0463 35.4273 43.7261C36.2986 44.5034 36.9984 45.4536 37.4822 46.5163C37.9661 47.5789 38.2232 48.7307 38.2373 49.8982V49.9494H49.7627V49.8984C49.7771 48.7304 50.0345 47.5783 50.5187 46.5153C51.0028 45.4524 51.7029 44.5019 52.5746 43.7244C54.7359 41.7428 56.1412 39.0715 56.5499 36.1679L44 36.1436ZM46.8814 48.2205H41.1187C40.9658 48.2205 40.8193 48.1598 40.7112 48.0518C40.6031 47.9437 40.5424 47.7971 40.5424 47.6443V44.7628L39.8508 45.685L38.929 44.9934L40.6578 42.6883C40.7137 42.6202 40.7841 42.5653 40.8638 42.5277C40.9435 42.49 41.0305 42.4705 41.1187 42.4705C41.2068 42.4705 41.2939 42.49 41.3736 42.5277C41.4532 42.5653 41.5236 42.6202 41.5796 42.6883L43.3084 44.9934L42.3866 45.685L41.6949 44.7628V47.068H46.8814V48.2205ZM47.2888 45.1703C47.2353 45.2239 47.1718 45.2663 47.1019 45.2953C47.032 45.3243 46.957 45.3392 46.8814 45.3392C46.8057 45.3392 46.7308 45.3243 46.6608 45.2953C46.5909 45.2663 46.5274 45.2239 46.4739 45.1703L44.7451 43.4415L45.56 42.6267L46.3051 43.3718V40.729H41.1187V39.5765H46.8814C47.0342 39.5765 47.1808 39.6372 47.2889 39.7453C47.3969 39.8533 47.4577 39.9999 47.4577 40.1528V43.3718L48.2028 42.6266L49.0176 43.4415L47.2888 45.1703Z" fill="url(#paint15_linear_844_23)"/>
</g>
<defs>
<filter id="filter0_d_844_23" x="0" y="0" width="88" height="88" filterUnits="userSpaceOnUse" color-interpolation-filters="sRGB">
<feFlood flood-opacity="0" result="BackgroundImageFix"/>
<feColorMatrix in="SourceAlpha" type="matrix" values="0 0 0 0 0 0 0 0 0 0 0 0 0 0 0 0 0 0 127 0" result="hardAlpha"/>
<feOffset dy="5"/>
<feGaussianBlur stdDeviation="5"/>
<feComposite in2="hardAlpha" operator="out"/>
<feColorMatrix type="matrix" values="0 0 0 0 0.14902 0 0 0 0 0.196078 0 0 0 0 0.219608 0 0 0 0.05 0"/>
<feBlend mode="normal" in2="BackgroundImageFix" result="effect1_dropShadow_844_23"/>
<feBlend mode="normal" in="SourceGraphic" in2="effect1_dropShadow_844_23" result="shape"/>
</filter>
<linearGradient id="paint0_linear_844_23" x1="64.0213" y1="38.4968" x2="54.9196" y2="17.9293" gradientUnits="userSpaceOnUse">
<stop stop-color="#454545"/>
<stop offset="1" stop-color="#004970"/>
</linearGradient>
<linearGradient id="paint1_linear_844_23" x1="51.9196" y1="41.3782" x2="42.818" y2="20.8107" gradientUnits="userSpaceOnUse">
<stop stop-color="#454545"/>
<stop offset="1" stop-color="#004970"/>
</linearGradient>
<linearGradient id="paint2_linear_844_23" x1="55.8793" y1="55.7707" x2="55.1767" y2="48.1495" gradientUnits="userSpaceOnUse">
<stop stop-color="#454545"/>
<stop offset="1" stop-color="#004970"/>
</linearGradient>
<linearGradient id="paint3_linear_844_23" x1="51.9196" y1="58.1794" x2="51.2475" y2="52.1049" gradientUnits="userSpaceOnUse">
<stop stop-color="#454545"/>
<stop offset="1" stop-color="#004970"/>
</linearGradient>
<linearGradient id="paint4_linear_844_23" x1="57.6877" y1="35.3738" x2="56.4005" y2="32.5964" gradientUnits="userSpaceOnUse">
<stop stop-color="#454545"/>
<stop offset="1" stop-color="#004970"/>
</linearGradient>
<linearGradient id="paint5_linear_844_23" x1="50.6456" y1="25.2604" x2="49.1718" y2="21.8557" gradientUnits="userSpaceOnUse">
<stop stop-color="#454545"/>
<stop offset="1" stop-color="#004970"/>
</linearGradient>
<linearGradient id="paint6_linear_844_23" x1="48.1971" y1="24.3835" x2="46.8932" y2="21.3317" gradientUnits="userSpaceOnUse">
<stop stop-color="#454545"/>
<stop offset="1" stop-color="#004970"/>
</linearGradient>
<linearGradient id="paint7_linear_844_23" x1="60.5493" y1="54.9287" x2="59.4116" y2="52.3577" gradientUnits="userSpaceOnUse">
<stop stop-color="#454545"/>
<stop offset="1" stop-color="#004970"/>
</linearGradient>
<linearGradient id="paint8_linear_844_23" x1="60.5493" y1="57.2336" x2="59.4116" y2="54.6627" gradientUnits="userSpaceOnUse">
<stop stop-color="#454545"/>
<stop offset="1" stop-color="#004970"/>
</linearGradient>
<linearGradient id="paint9_linear_844_23" x1="61.7018" y1="56.0813" x2="60.5641" y2="53.5103" gradientUnits="userSpaceOnUse">
<stop stop-color="#454545"/>
<stop offset="1" stop-color="#004970"/>
</linearGradient>
<linearGradient id="paint10_linear_844_23" x1="59.3967" y1="56.0813" x2="58.259" y2="53.5103" gradientUnits="userSpaceOnUse">
<stop stop-color="#454545"/>
<stop offset="1" stop-color="#004970"/>
</linearGradient>
<linearGradient id="paint11_linear_844_23" x1="29.4306" y1="54.9287" x2="28.2929" y2="52.3577" gradientUnits="userSpaceOnUse">
<stop stop-color="#454545"/>
<stop offset="1" stop-color="#004970"/>
</linearGradient>
<linearGradient id="paint12_linear_844_23" x1="29.4306" y1="57.2336" x2="28.2929" y2="54.6627" gradientUnits="userSpaceOnUse">
<stop stop-color="#454545"/>
<stop offset="1" stop-color="#004970"/>
</linearGradient>
<linearGradient id="paint13_linear_844_23" x1="30.5832" y1="56.0813" x2="29.4455" y2="53.5103" gradientUnits="userSpaceOnUse">
<stop stop-color="#454545"/>
<stop offset="1" stop-color="#004970"/>
</linearGradient>
<linearGradient id="paint14_linear_844_23" x1="28.2781" y1="56.0813" x2="27.1404" y2="53.5103" gradientUnits="userSpaceOnUse">
<stop stop-color="#454545"/>
<stop offset="1" stop-color="#004970"/>
</linearGradient>
<linearGradient id="paint15_linear_844_23" x1="65.6048" y1="73.1146" x2="35.6491" y2="12.6326" gradientUnits="userSpaceOnUse">
<stop stop-color="#454545"/>
<stop offset="1" stop-color="#004970"/>
</linearGradient>
</defs>
</svg>
