<svg width="88" height="88" viewBox="0 0 88 88" fill="none" xmlns="http://www.w3.org/2000/svg">
<g filter="url(#filter0_d_844_61)">
<circle r="34" transform="matrix(-1 0 0 1 44 39)" fill="white"/>
<path d="M32.1055 41.2731C31.8727 41.1707 31.632 41.0837 31.3771 41.0316V36.51C32.8034 36.2196 33.9291 35.0928 34.2197 33.6667H54.7828C55.0732 35.0931 56.2 36.2196 57.626 36.51V41.0316C56.1997 41.322 55.0732 42.4488 54.7828 43.8748H40.8552V41.0816C40.8552 38.6837 39.035 36.7102 36.7122 36.589C36.6339 36.5847 36.5549 36.5826 36.4766 36.5826C34.0663 36.5826 32.1052 38.5451 32.1052 40.9578L32.1055 41.2731ZM44.5015 41.6891C46.1133 41.6891 47.4199 40.3825 47.4199 38.7707C47.4199 37.1589 46.1133 35.8524 44.5015 35.8524C42.8897 35.8524 41.5832 37.1589 41.5832 38.7707C41.5832 40.3825 42.8897 41.6891 44.5015 41.6891Z" fill="url(#paint0_linear_844_61)"/>
<path d="M28.4586 29.2896H60.5416C61.3509 29.2896 62 29.9458 62 30.748V46.7895C62 47.5988 61.351 48.2479 60.5416 48.2479H40.8554V45.3338H55.4384C55.8415 45.3338 56.1677 45.0074 56.1677 44.6045C56.1677 43.3982 57.1489 42.4169 58.3552 42.4169C58.7583 42.4169 59.0845 42.0906 59.0845 41.6877V35.8545C59.0845 35.4517 58.7584 35.1253 58.3552 35.1253C57.149 35.1253 56.1677 34.144 56.1677 32.9377C56.1677 32.5349 55.8415 32.2085 55.4384 32.2085H33.5632C33.1601 32.2085 32.8339 32.5348 32.8339 32.9377C32.8339 34.144 31.8527 35.1253 30.6472 35.1253C30.2441 35.1253 29.9179 35.4516 29.9179 35.8545V41.6877C29.9179 42.0905 30.244 42.4169 30.6472 42.4169C31.2089 42.4169 31.717 42.6359 32.1047 42.9858V48.2475L28.4583 48.2478C27.6561 48.2478 26.9999 47.5988 26.9999 46.7894V30.7479C26.9999 29.946 27.6561 29.2896 28.4583 29.2896L28.4586 29.2896Z" fill="url(#paint1_linear_844_61)"/>
<path d="M33.5639 25.6458C33.5639 24.4377 34.5433 23.4583 35.7515 23.4583C36.9597 23.4583 37.9391 24.4377 37.9391 25.6458V27.831H33.5639L33.5639 25.6458Z" fill="url(#paint2_linear_844_61)"/>
<path d="M38.668 24.1876C38.668 22.9794 39.6474 22 40.8556 22C42.0638 22 43.0432 22.9794 43.0432 24.1876V27.8311H38.6681L38.668 24.1876Z" fill="url(#paint3_linear_844_61)"/>
<path d="M43.7525 26.3285C43.7525 25.1203 44.7319 24.1409 45.9401 24.1409C47.1483 24.1409 48.1277 25.1203 48.1277 26.3285V27.831H43.7526L43.7525 26.3285Z" fill="url(#paint4_linear_844_61)"/>
<path d="M51.0645 26.375C52.0148 26.375 52.8154 26.9844 53.1174 27.831H49.0118C49.3136 26.9846 50.1142 26.375 51.0644 26.375H51.0645Z" fill="url(#paint5_linear_844_61)"/>
<path d="M36.6364 38.0458C38.1844 38.1268 39.3971 39.4603 39.3971 41.0822V48.2505C39.3971 49.0548 40.0514 49.7088 40.8555 49.7088H53.2516V51.1667C53.2516 53.981 50.9617 56.2707 48.1475 56.2707H38.6683C35.8542 56.2707 33.5642 53.9811 33.5642 51.1667V40.9583C33.5639 39.2983 34.9446 37.9566 36.6365 38.046L36.6364 38.0458Z" fill="url(#paint6_linear_844_61)"/>
</g>
<defs>
<filter id="filter0_d_844_61" x="0" y="0" width="88" height="88" filterUnits="userSpaceOnUse" color-interpolation-filters="sRGB">
<feFlood flood-opacity="0" result="BackgroundImageFix"/>
<feColorMatrix in="SourceAlpha" type="matrix" values="0 0 0 0 0 0 0 0 0 0 0 0 0 0 0 0 0 0 127 0" result="hardAlpha"/>
<feOffset dy="5"/>
<feGaussianBlur stdDeviation="5"/>
<feComposite in2="hardAlpha" operator="out"/>
<feColorMatrix type="matrix" values="0 0 0 0 0.14902 0 0 0 0 0.196078 0 0 0 0 0.219608 0 0 0 0.05 0"/>
<feBlend mode="normal" in2="BackgroundImageFix" result="effect1_dropShadow_844_61"/>
<feBlend mode="normal" in="SourceGraphic" in2="effect1_dropShadow_844_61" result="shape"/>
</filter>
<linearGradient id="paint0_linear_844_61" x1="21.9557" y1="52.2498" x2="26.507" y2="25.8031" gradientUnits="userSpaceOnUse">
<stop stop-color="#454545"/>
<stop offset="1" stop-color="#004970"/>
</linearGradient>
<linearGradient id="paint1_linear_844_61" x1="14.4375" y1="63.8017" x2="25.9008" y2="15.9783" gradientUnits="userSpaceOnUse">
<stop stop-color="#454545"/>
<stop offset="1" stop-color="#004970"/>
</linearGradient>
<linearGradient id="paint2_linear_844_61" x1="31.9935" y1="31.4185" x2="36.3083" y2="21.6626" gradientUnits="userSpaceOnUse">
<stop stop-color="#454545"/>
<stop offset="1" stop-color="#004970"/>
</linearGradient>
<linearGradient id="paint3_linear_844_61" x1="37.0977" y1="32.6151" x2="43.9039" y2="21.0748" gradientUnits="userSpaceOnUse">
<stop stop-color="#454545"/>
<stop offset="1" stop-color="#004970"/>
</linearGradient>
<linearGradient id="paint4_linear_844_61" x1="42.1822" y1="30.8584" x2="45.4068" y2="22.2186" gradientUnits="userSpaceOnUse">
<stop stop-color="#454545"/>
<stop offset="1" stop-color="#004970"/>
</linearGradient>
<linearGradient id="paint5_linear_844_61" x1="47.5382" y1="29.0255" x2="48.133" y2="25.235" gradientUnits="userSpaceOnUse">
<stop stop-color="#454545"/>
<stop offset="1" stop-color="#004970"/>
</linearGradient>
<linearGradient id="paint6_linear_844_61" x1="26.498" y1="71.2262" x2="43.5578" y2="29.5907" gradientUnits="userSpaceOnUse">
<stop stop-color="#454545"/>
<stop offset="1" stop-color="#004970"/>
</linearGradient>
</defs>
</svg>
