<svg width="88" height="88" viewBox="0 0 88 88" fill="none" xmlns="http://www.w3.org/2000/svg">
<g filter="url(#filter0_d_422_195)">
<circle r="34" transform="matrix(-1 0 0 1 44 39)" fill="white"/>
<path d="M43.7859 35.6409L43.0372 34.8548C41.4648 33.2825 38.7693 33.582 37.6461 35.7534C36.9724 37.0638 37.3466 38.6361 38.3948 39.6844L43.374 44.6636C43.5986 44.8882 44.0104 44.8882 44.235 44.6636L49.3265 39.6094C50.8988 38.037 50.5993 35.3415 48.4279 34.2183C47.1175 33.5446 45.5452 33.9188 44.4969 34.967L43.7859 35.6409Z" fill="url(#paint0_linear_422_195)"/>
<path d="M36.4108 25.2331C36.2985 25.8695 36.1486 26.6932 35.9989 27.4419H36.1486C36.6353 27.4419 37.0845 27.5915 37.5337 27.8537C37.7583 28.0033 37.9455 28.1532 38.1328 28.3405L45.4705 28.2655C45.3955 28.0033 45.3582 27.7414 45.3582 27.4792V24.1473C45.3582 23.6981 45.4332 23.2863 45.5454 22.9118L35.5122 22.7998C36.1862 23.3613 36.5607 24.2599 36.4108 25.2331L36.4108 25.2331Z" fill="url(#paint1_linear_422_195)"/>
<path d="M48.2036 29.1269C49.3268 30.1378 51.9847 31.7474 51.9847 31.7474C52.3592 32.0096 52.9206 31.8971 53.1828 31.4852C53.4074 31.1108 53.2951 30.6989 52.9206 30.3247C52.5461 29.9503 51.7601 29.3139 51.7601 29.3139C51.4233 28.977 51.6478 28.6775 51.9847 28.6775C52.6211 28.7148 52.9956 28.7524 53.707 28.8271C54.4184 28.902 57.6753 29.5008 57.6753 29.5008C58.0871 29.5758 58.4616 29.3136 58.5363 28.9018C58.6112 28.49 58.349 28.1155 57.9372 28.0408L53.8942 27.3676C53.7819 27.3302 53.7069 27.2553 53.7069 27.143V27.068C53.7069 26.9184 53.8192 26.8059 53.9691 26.8059L58.8361 27.1054C59.2479 27.1427 59.6224 26.8059 59.6224 26.394C59.6224 25.9822 59.3228 25.6077 58.911 25.6077L53.8195 25.2708C53.7072 25.2708 53.5949 25.1585 53.5949 25.0462C53.5949 24.9339 53.6699 24.8216 53.8195 24.784L58.1997 24.5968C58.6115 24.5595 58.9484 24.2223 58.9111 23.8105C58.9111 23.3987 58.5366 23.0618 58.1247 23.0991L53.7819 23.3616C53.6696 23.3616 53.5573 23.2493 53.5573 23.137C53.5573 23.0247 53.6323 22.9124 53.7446 22.9124L57.1138 22.5006C57.5257 22.4632 57.8252 22.0887 57.7876 21.6769C57.7502 21.2651 57.3757 20.9656 56.9639 21.0032C56.9639 21.0032 52.3216 21.6023 50.5996 21.8268C48.915 22.0514 47.2304 22.4632 47.2304 24.1479V27.4798C47.1931 28.0786 47.7172 28.6777 48.2037 29.1269L48.2036 29.1269Z" fill="url(#paint2_linear_422_195)"/>
<path d="M57.3012 31.3732C56.6648 31.2609 55.8411 31.111 55.0924 30.9987C55.1298 31.5602 54.9428 32.0843 54.718 32.4961C54.5683 32.7207 54.4184 32.9079 54.1938 33.0952L54.2688 40.4329C54.531 40.358 54.7929 40.3206 55.0551 40.3206H58.3871C58.8362 40.3206 59.248 40.3956 59.6225 40.5078L59.6974 30.4746C59.2107 31.0361 58.4993 31.3732 57.7132 31.3732C57.6007 31.4103 57.4508 31.3729 57.3012 31.3729L57.3012 31.3732Z" fill="url(#paint3_linear_422_195)"/>
<path d="M60.7454 45.5245C60.5209 43.8399 60.109 42.1553 58.4244 42.1553H55.0925C54.4561 42.1553 53.8943 42.6794 53.4451 43.1662C52.4343 44.2893 50.8246 46.9473 50.8246 46.9473C50.5624 47.3217 50.675 47.8832 51.0868 48.1454C51.4613 48.37 51.8731 48.2577 52.2473 47.8832C52.6218 47.5087 53.2582 46.7227 53.2582 46.7227C53.595 46.3858 53.8946 46.6104 53.8946 46.9473C53.8572 47.5837 53.8196 47.9582 53.7449 48.6696C53.5574 49.3433 52.9583 52.6003 52.9583 52.6003C52.8834 53.0121 53.1456 53.3866 53.5574 53.4613C53.9692 53.5362 54.3437 53.274 54.4184 52.8622L55.1671 48.8566C55.1671 48.7443 55.2794 48.6693 55.3917 48.6693H55.4666C55.6162 48.6693 55.7288 48.7816 55.6912 48.9315L55.3917 53.7984C55.3543 54.2103 55.6912 54.5848 56.103 54.5848C56.5149 54.5848 56.8893 54.2852 56.8893 53.8734L57.2262 48.7819C57.2262 48.6696 57.3385 48.5573 57.4508 48.5573C57.5631 48.5573 57.6754 48.6696 57.713 48.7819L57.9002 53.1621C57.9002 53.5739 58.2747 53.9108 58.6866 53.8734C59.0984 53.8361 59.4352 53.499 59.3979 53.0871L59.2107 48.7069C59.2107 48.5947 59.323 48.4824 59.4353 48.4824C59.5476 48.4824 59.6599 48.5573 59.6599 48.6696L60.0717 52.0388C60.109 52.4507 60.4835 52.7502 60.8953 52.7126C61.3071 52.6752 61.6067 52.3008 61.5691 51.889C61.5691 51.889 60.97 47.2468 60.7454 45.5247L60.7454 45.5245Z" fill="url(#paint4_linear_422_195)"/>
<path d="M30.2712 46.1232C30.9076 46.2355 31.7313 46.3854 32.48 46.535C32.4426 45.9736 32.6296 45.4495 32.8545 45C33.0041 44.7754 33.154 44.5882 33.3786 44.401L33.3036 37.0632C33.0414 37.1382 32.7795 37.1755 32.5173 37.1755H29.1854C28.7362 37.1755 28.3244 37.1006 27.9499 36.9883L27.8379 47.0215C28.3247 46.4601 29.036 46.0856 29.8221 46.0856C29.9344 46.0856 30.1216 46.1229 30.2712 46.1229L30.2712 46.1232Z" fill="url(#paint5_linear_422_195)"/>
<path d="M32.5174 35.3416C33.1538 35.3416 33.7156 34.8175 34.1647 34.3307C35.1756 33.2075 36.7853 30.5496 36.7853 30.5496C37.0475 30.1751 36.9349 29.6137 36.5231 29.3515C36.1486 29.1269 35.7368 29.2392 35.3626 29.6137C34.9881 29.9881 34.3517 30.7742 34.3517 30.7742C34.0149 31.111 33.7153 30.8864 33.7153 30.5496C33.7527 29.9132 33.7903 29.5387 33.865 28.8273C33.9399 28.1159 34.5387 24.859 34.5387 24.859C34.6137 24.4472 34.3515 24.0727 33.9397 23.998C33.5278 23.9231 33.1533 24.1853 33.0787 24.5971L32.4052 28.6403C32.4052 28.7526 32.2929 28.8276 32.1806 28.8276H32.1057C31.956 28.8276 31.8435 28.7153 31.8811 28.5654L32.1806 23.6984C32.2179 23.2866 31.8811 22.9121 31.4692 22.9121C31.0574 22.9121 30.6829 23.2116 30.6829 23.6235L30.346 28.715C30.346 28.8273 30.2337 28.9396 30.1214 28.9396C30.0091 28.9396 29.8969 28.8646 29.8593 28.715L29.672 24.3348C29.672 23.923 29.2975 23.5861 28.8857 23.6234C28.4739 23.6234 28.137 23.9979 28.1743 24.4097L28.3616 28.7899C28.3616 28.9022 28.2493 29.0145 28.137 29.0145C28.0247 29.0145 27.9124 28.9396 27.9124 28.7899L27.5006 25.4207C27.4632 25.0089 27.0887 24.7093 26.6769 24.7469C26.2651 24.7843 25.9656 25.1588 26.0032 25.5706C26.0032 25.5706 26.6023 30.2129 26.8268 31.9349C27.0514 33.6195 27.4632 35.3041 29.1479 35.3041C30.4583 35.3415 31.207 35.3415 32.5174 35.3415L32.5174 35.3416Z" fill="url(#paint6_linear_422_195)"/>
<path d="M51.161 52.2628C51.2733 51.6264 51.4232 50.8028 51.5729 50.0541H51.4232C50.9365 50.0541 50.4873 49.9045 50.0381 49.6423C49.8135 49.4926 49.6263 49.3427 49.4391 49.1182L42.1013 49.2305C42.1763 49.4926 42.2136 49.7546 42.2136 50.0168V53.3487C42.2136 53.7979 42.1387 54.2097 42.0264 54.5841L52.0596 54.6964C51.8724 54.5468 51.7227 54.3969 51.6104 54.2097C51.1986 53.648 51.049 52.9742 51.1613 52.2629L51.161 52.2628Z" fill="url(#paint7_linear_422_195)"/>
<path d="M39.3686 48.3699C38.2454 47.3591 35.5875 45.7494 35.5875 45.7494C35.213 45.4872 34.6515 45.5998 34.3893 46.0116C34.1647 46.3861 34.277 46.7979 34.6515 47.1721C35.026 47.5466 35.812 48.183 35.812 48.183C36.1489 48.5198 35.9243 48.8194 35.5874 48.8194C34.951 48.782 34.5766 48.7444 33.8652 48.6697C33.1912 48.5196 29.9342 47.9205 29.9342 47.9205C29.5223 47.8456 29.1479 48.1077 29.0732 48.5196C28.9982 48.9314 29.2604 49.3059 29.6722 49.3806L33.6779 50.1292C33.7902 50.1666 33.8652 50.2415 33.8652 50.3538V50.4288C33.8652 50.5784 33.7529 50.691 33.603 50.6534L28.736 50.3541C28.3242 50.3167 27.9497 50.6536 27.9497 51.0655C27.9497 51.4773 28.2492 51.8518 28.6611 51.8518L33.7526 52.1887C33.8649 52.1887 33.9772 52.301 33.9772 52.4132C33.9772 52.5255 33.9022 52.6378 33.7526 52.6754L29.3724 52.8627C28.9606 52.8627 28.6237 53.2372 28.661 53.649C28.661 54.0608 29.0355 54.3977 29.4473 54.3604L33.8275 54.1731C33.9398 54.1731 34.0521 54.2854 34.0521 54.3977C34.0521 54.51 33.9772 54.6223 33.8649 54.6223L30.4956 55.0341C30.0838 55.0715 29.7843 55.446 29.8219 55.8578C29.8592 56.2696 30.2337 56.5691 30.6455 56.5315C30.6455 56.5315 35.2878 55.9324 37.0098 55.7079C38.6944 55.4833 40.3791 55.0715 40.3791 53.3868V50.0549C40.3791 49.4182 39.8549 48.8192 39.3684 48.37L39.3686 48.3699Z" fill="url(#paint8_linear_422_195)"/>
</g>
<defs>
<filter id="filter0_d_422_195" x="0" y="0" width="88" height="88" filterUnits="userSpaceOnUse" color-interpolation-filters="sRGB">
<feFlood flood-opacity="0" result="BackgroundImageFix"/>
<feColorMatrix in="SourceAlpha" type="matrix" values="0 0 0 0 0 0 0 0 0 0 0 0 0 0 0 0 0 0 127 0" result="hardAlpha"/>
<feOffset dy="5"/>
<feGaussianBlur stdDeviation="5"/>
<feComposite in2="hardAlpha" operator="out"/>
<feColorMatrix type="matrix" values="0 0 0 0 0.14902 0 0 0 0 0.196078 0 0 0 0 0.219608 0 0 0 0.05 0"/>
<feBlend mode="normal" in2="BackgroundImageFix" result="effect1_dropShadow_422_195"/>
<feBlend mode="normal" in="SourceGraphic" in2="effect1_dropShadow_422_195" result="shape"/>
</filter>
<linearGradient id="paint0_linear_422_195" x1="37.3076" y1="26.6569" x2="37.3076" y2="52.9795" gradientUnits="userSpaceOnUse">
<stop stop-color="#004970"/>
<stop offset="1" stop-color="#00ABBD"/>
</linearGradient>
<linearGradient id="paint1_linear_422_195" x1="35.5122" y1="19.1588" x2="35.5122" y2="32.4564" gradientUnits="userSpaceOnUse">
<stop stop-color="#004970"/>
<stop offset="1" stop-color="#00ABBD"/>
</linearGradient>
<linearGradient id="paint2_linear_422_195" x1="47.2285" y1="13.8447" x2="47.2285" y2="39.977" gradientUnits="userSpaceOnUse">
<stop stop-color="#004970"/>
<stop offset="1" stop-color="#00ABBD"/>
</linearGradient>
<linearGradient id="paint3_linear_422_195" x1="54.1938" y1="23.8813" x2="54.1938" y2="47.9611" gradientUnits="userSpaceOnUse">
<stop stop-color="#004970"/>
<stop offset="1" stop-color="#00ABBD"/>
</linearGradient>
<linearGradient id="paint4_linear_422_195" x1="50.6836" y1="33.9873" x2="50.6836" y2="63.8181" gradientUnits="userSpaceOnUse">
<stop stop-color="#004970"/>
<stop offset="1" stop-color="#00ABBD"/>
</linearGradient>
<linearGradient id="paint5_linear_422_195" x1="27.8379" y1="30.395" x2="27.8379" y2="54.4748" gradientUnits="userSpaceOnUse">
<stop stop-color="#004970"/>
<stop offset="1" stop-color="#00ABBD"/>
</linearGradient>
<linearGradient id="paint6_linear_422_195" x1="26" y1="14.7442" x2="26" y2="44.5749" gradientUnits="userSpaceOnUse">
<stop stop-color="#004970"/>
<stop offset="1" stop-color="#00ABBD"/>
</linearGradient>
<linearGradient id="paint7_linear_422_195" x1="42.0264" y1="45.4524" x2="42.0264" y2="58.8403" gradientUnits="userSpaceOnUse">
<stop stop-color="#004970"/>
<stop offset="1" stop-color="#00ABBD"/>
</linearGradient>
<linearGradient id="paint8_linear_422_195" x1="27.9497" y1="38.4283" x2="27.9497" y2="64.6514" gradientUnits="userSpaceOnUse">
<stop stop-color="#004970"/>
<stop offset="1" stop-color="#00ABBD"/>
</linearGradient>
</defs>
</svg>
