<svg width="88" height="88" viewBox="0 0 88 88" fill="none" xmlns="http://www.w3.org/2000/svg">
<g filter="url(#filter0_d_844_71)">
<circle r="34" transform="matrix(-1 0 0 1 44 39)" fill="white"/>
<path d="M49.101 19.6005C49.101 19.2403 48.8607 19 48.5004 19H39.0113C38.651 19 38.4107 19.2403 38.4107 19.6005V22.6635H49.0409L49.0406 19.6005H49.101Z" fill="url(#paint0_linear_844_71)"/>
<path d="M47.78 25.1263V23.8049H39.7922V31.9726C39.7922 32.3928 40.0924 32.6934 40.513 32.6934C40.8733 32.6934 41.2339 32.3931 41.2339 31.9726C41.2339 31.6123 41.5342 31.372 41.8344 31.372C42.1947 31.372 42.435 31.6123 42.435 31.9726C42.435 32.3328 42.7353 32.6934 43.1558 32.6934C43.5161 32.6934 43.8767 32.3931 43.8767 31.9726C43.8767 31.6123 44.177 31.372 44.4772 31.372C44.7775 31.372 45.0778 31.6123 45.0778 31.9726C45.0778 32.3328 45.3781 32.6934 45.7986 32.6934C46.2189 32.6934 46.5195 32.3931 46.5195 31.9726C46.5195 31.6123 46.8198 31.372 47.12 31.372C47.4803 31.372 47.7206 31.6123 47.7206 31.9726C47.7206 32.3928 48.0809 32.7534 48.5014 32.6934C48.8617 32.6334 49.1619 32.3331 49.1619 31.9126V29.9907C49.1619 29.8104 49.2219 29.6304 49.3422 29.5102C49.4622 29.3902 49.5825 29.3299 49.7625 29.3299H50.6633V27.8885C50.6633 27.228 50.1228 26.6874 49.4622 26.6874C48.5006 26.7474 47.78 26.0269 47.78 25.126L47.78 25.1263Z" fill="url(#paint1_linear_844_71)"/>
<path d="M34.1468 45.5457H41.7743V43.6838C41.7743 43.0232 42.3149 42.4827 42.9755 42.4827H45.8582C46.5188 42.4827 47.0593 43.0232 47.0593 43.6838V45.5457H53.0651C53.8459 44.4046 50.2424 49.7499 60.8123 34.195C60.1518 33.8947 60.2118 34.075 51.9241 34.0147L51.9244 32.0328H52.7652C53.0655 32.0328 53.3658 31.7925 53.3658 31.4322V29.6303C53.3658 28.9698 52.8252 28.4292 52.1646 28.4292H51.8044V30.5311H50.303V31.8525V31.9725H50.7233V33.9544L38.1706 33.9547V32.0328H38.5909V28.4892H36.8493C36.1285 28.4892 35.5882 29.0298 35.5882 29.6904V31.4322C35.5882 31.7925 35.8885 32.0328 36.2488 32.0328H37.0296V34.0147C28.5017 34.0747 28.7416 33.8944 28.0211 34.195C37.3304 51.4915 32.8857 43.2637 34.1471 45.5457L34.1468 45.5457Z" fill="url(#paint2_linear_844_71)"/>
<path d="M42.9755 48.6085H45.8582V43.6838H42.9755V48.6085Z" fill="url(#paint3_linear_844_71)"/>
<path d="M61.6537 35.0957L61.4134 35.456L53.846 46.5066C53.726 46.6869 53.5457 46.7469 53.3654 46.7469H47.0594V48.6088C47.0594 49.2693 46.5188 49.8099 45.8583 49.8099H42.9755C42.315 49.8099 41.7744 49.2694 41.7744 48.6088V46.7469H33.7866C33.5463 46.7469 33.3663 46.6269 33.246 46.4466L27.3606 35.4561L27.1803 35.0959C27.0603 35.3361 27 35.5761 27 35.8164V54.0742C27 55.0953 27.7808 55.8758 28.8016 55.8758H60.0317C61.0528 55.8758 61.8334 55.095 61.8334 54.0742L61.8339 35.8164C61.8339 35.5762 61.7736 35.2759 61.6536 35.0959L61.6537 35.0957Z" fill="url(#paint4_linear_844_71)"/>
</g>
<defs>
<filter id="filter0_d_844_71" x="0" y="0" width="88" height="88" filterUnits="userSpaceOnUse" color-interpolation-filters="sRGB">
<feFlood flood-opacity="0" result="BackgroundImageFix"/>
<feColorMatrix in="SourceAlpha" type="matrix" values="0 0 0 0 0 0 0 0 0 0 0 0 0 0 0 0 0 0 127 0" result="hardAlpha"/>
<feOffset dy="5"/>
<feGaussianBlur stdDeviation="5"/>
<feComposite in2="hardAlpha" operator="out"/>
<feColorMatrix type="matrix" values="0 0 0 0 0.14902 0 0 0 0 0.196078 0 0 0 0 0.219608 0 0 0 0.05 0"/>
<feBlend mode="normal" in2="BackgroundImageFix" result="effect1_dropShadow_844_71"/>
<feBlend mode="normal" in="SourceGraphic" in2="effect1_dropShadow_844_71" result="shape"/>
</filter>
<linearGradient id="paint0_linear_844_71" x1="52.938" y1="25.6692" x2="51.4893" y2="16.1164" gradientUnits="userSpaceOnUse">
<stop stop-color="#454545"/>
<stop offset="1" stop-color="#004970"/>
</linearGradient>
<linearGradient id="paint1_linear_844_71" x1="54.5653" y1="39.9977" x2="46.9698" y2="19.0204" gradientUnits="userSpaceOnUse">
<stop stop-color="#454545"/>
<stop offset="1" stop-color="#004970"/>
</linearGradient>
<linearGradient id="paint2_linear_844_71" x1="72.5818" y1="59.6291" x2="62.5447" y2="16.2329" gradientUnits="userSpaceOnUse">
<stop stop-color="#454545"/>
<stop offset="1" stop-color="#004970"/>
</linearGradient>
<linearGradient id="paint3_linear_844_71" x1="46.8929" y1="52.6488" x2="40.5736" y2="44.2895" gradientUnits="userSpaceOnUse">
<stop stop-color="#454545"/>
<stop offset="1" stop-color="#004970"/>
</linearGradient>
<linearGradient id="paint4_linear_844_71" x1="74.3366" y1="72.9242" x2="60.657" y2="21.1048" gradientUnits="userSpaceOnUse">
<stop stop-color="#454545"/>
<stop offset="1" stop-color="#004970"/>
</linearGradient>
</defs>
</svg>
