<svg width="88" height="88" viewBox="0 0 88 88" fill="none" xmlns="http://www.w3.org/2000/svg">
<g filter="url(#filter0_d_844_42)">
<circle r="34" transform="matrix(-1 0 0 1 44 39)" fill="white"/>
<path d="M43.786 35.6411L43.0374 34.8551C41.465 33.2827 38.7695 33.5823 37.6463 35.7536C36.9726 37.0641 37.3468 38.6364 38.395 39.6846L43.3742 44.6638C43.5987 44.8884 44.0106 44.8884 44.2352 44.6638L49.3267 39.6096C50.899 38.0373 50.5995 35.3418 48.4281 34.2186C47.1176 33.5448 45.5453 33.919 44.4971 34.9673L43.786 35.6411Z" fill="url(#paint0_linear_844_42)"/>
<path d="M36.4108 25.2334C36.2985 25.8698 36.1486 26.6934 35.999 27.4421H36.1486C36.6354 27.4421 37.0845 27.5918 37.5337 27.854C37.7583 28.0036 37.9456 28.1535 38.1328 28.3407L45.4705 28.2658C45.3956 28.0036 45.3582 27.7417 45.3582 27.4795V24.1475C45.3582 23.6983 45.4332 23.2865 45.5455 22.9121L35.5122 22.8C36.1862 23.3615 36.5608 24.2601 36.4108 25.2334L36.4108 25.2334Z" fill="url(#paint1_linear_844_42)"/>
<path d="M48.2037 29.1269C49.3268 30.1378 51.9848 31.7474 51.9848 31.7474C52.3593 32.0096 52.9207 31.8971 53.1829 31.4852C53.4075 31.1108 53.2952 30.6989 52.9207 30.3247C52.5462 29.9503 51.7602 29.3139 51.7602 29.3139C51.4233 28.977 51.6479 28.6775 51.9848 28.6775C52.6212 28.7148 52.9957 28.7524 53.7071 28.8271C54.4184 28.902 57.6754 29.5008 57.6754 29.5008C58.0872 29.5758 58.4617 29.3136 58.5364 28.9018C58.6113 28.49 58.3491 28.1155 57.9373 28.0408L53.8943 27.3676C53.782 27.3302 53.707 27.2553 53.707 27.143V27.068C53.707 26.9184 53.8193 26.8059 53.9692 26.8059L58.8361 27.1054C59.248 27.1427 59.6225 26.8059 59.6225 26.394C59.6225 25.9822 59.3229 25.6077 58.9111 25.6077L53.8196 25.2708C53.7073 25.2708 53.595 25.1585 53.595 25.0462C53.595 24.9339 53.67 24.8216 53.8196 24.784L58.1998 24.5968C58.6116 24.5595 58.9485 24.2223 58.9112 23.8105C58.9112 23.3987 58.5367 23.0618 58.1248 23.0991L53.782 23.3616C53.6697 23.3616 53.5574 23.2493 53.5574 23.137C53.5574 23.0247 53.6324 22.9124 53.7447 22.9124L57.1139 22.5006C57.5257 22.4632 57.8253 22.0887 57.7877 21.6769C57.7503 21.2651 57.3758 20.9656 56.964 21.0032C56.964 21.0032 52.3217 21.6023 50.5997 21.8268C48.9151 22.0514 47.2305 22.4632 47.2305 24.1479V27.4798C47.1931 28.0786 47.7173 28.6777 48.2038 29.1269L48.2037 29.1269Z" fill="url(#paint2_linear_844_42)"/>
<path d="M57.3011 31.3732C56.6647 31.2609 55.8411 31.111 55.0924 30.9987C55.1297 31.5602 54.9427 32.0843 54.7179 32.4961C54.5683 32.7207 54.4184 32.9079 54.1938 33.0952L54.2687 40.4329C54.5309 40.358 54.7928 40.3206 55.0551 40.3206H58.387C58.8362 40.3206 59.248 40.3956 59.6224 40.5078L59.6974 30.4746C59.2106 31.0361 58.4992 31.3732 57.7132 31.3732C57.6006 31.4103 57.4507 31.3729 57.3011 31.3729L57.3011 31.3732Z" fill="url(#paint3_linear_844_42)"/>
<path d="M60.7454 45.5243C60.5208 43.8396 60.109 42.155 58.4244 42.155H55.0924C54.456 42.155 53.8943 42.6791 53.4451 43.1659C52.4342 44.2891 50.8246 46.947 50.8246 46.947C50.5624 47.3215 50.6749 47.883 51.0867 48.1452C51.4612 48.3697 51.8731 48.2574 52.2472 47.883C52.6217 47.5085 53.2581 46.7225 53.2581 46.7225C53.595 46.3856 53.8945 46.6102 53.8945 46.9471C53.8572 47.5835 53.8196 47.9579 53.7449 48.6693C53.5574 49.3431 52.9583 52.6 52.9583 52.6C52.8834 53.0119 53.1455 53.3864 53.5574 53.461C53.9692 53.536 54.3437 53.2738 54.4184 52.862L55.167 48.8563C55.167 48.744 55.2793 48.6691 55.3916 48.6691H55.4666C55.6162 48.6691 55.7288 48.7814 55.6912 48.9313L55.3916 53.7982C55.3543 54.21 55.6912 54.5845 56.103 54.5845C56.5148 54.5845 56.8893 54.285 56.8893 53.8731L57.2262 48.7816C57.2262 48.6693 57.3385 48.5571 57.4508 48.5571C57.5631 48.5571 57.6754 48.6693 57.713 48.7816L57.9002 53.1618C57.9002 53.5736 58.2747 53.9105 58.6865 53.8732C59.0984 53.8359 59.4352 53.4987 59.3979 53.0869L59.2107 48.7067C59.2107 48.5944 59.323 48.4821 59.4353 48.4821C59.5475 48.4821 59.6598 48.5571 59.6598 48.6694L60.0717 52.0386C60.109 52.4504 60.4835 52.75 60.8953 52.7123C61.3071 52.675 61.6067 52.3005 61.569 51.8887C61.569 51.8887 60.97 47.2466 60.7454 45.5244L60.7454 45.5243Z" fill="url(#paint4_linear_844_42)"/>
<path d="M30.2712 46.1237C30.9076 46.236 31.7313 46.3859 32.4799 46.5355C32.4426 45.9741 32.6296 45.45 32.8544 45.0005C33.0041 44.7759 33.154 44.5887 33.3785 44.4015L33.3036 37.0637C33.0414 37.1387 32.7795 37.176 32.5173 37.176H29.1853C28.7362 37.176 28.3243 37.1011 27.9499 36.9888L27.8379 47.022C28.3246 46.4606 29.036 46.0861 29.822 46.0861C29.9343 46.0861 30.1216 46.1234 30.2712 46.1234L30.2712 46.1237Z" fill="url(#paint5_linear_844_42)"/>
<path d="M32.5174 35.3414C33.1538 35.3414 33.7156 34.8172 34.1647 34.3305C35.1756 33.2073 36.7853 30.5494 36.7853 30.5494C37.0475 30.1749 36.9349 29.6134 36.5231 29.3512C36.1486 29.1266 35.7368 29.2389 35.3626 29.6134C34.9881 29.9879 34.3517 30.7739 34.3517 30.7739C34.0149 31.1108 33.7153 30.8862 33.7153 30.5493C33.7527 29.9129 33.7903 29.5384 33.865 28.8271C33.9399 28.1157 34.5387 24.8588 34.5387 24.8588C34.6137 24.4469 34.3515 24.0724 33.9397 23.9978C33.5278 23.9228 33.1533 24.185 33.0787 24.5968L32.4052 28.6401C32.4052 28.7524 32.2929 28.8273 32.1806 28.8273H32.1057C31.956 28.8273 31.8435 28.715 31.8811 28.5651L32.1806 23.6982C32.2179 23.2864 31.8811 22.9119 31.4692 22.9119C31.0574 22.9119 30.6829 23.2114 30.6829 23.6232L30.346 28.7147C30.346 28.827 30.2337 28.9393 30.1214 28.9393C30.0091 28.9393 29.8969 28.8644 29.8593 28.7147L29.672 24.3346C29.672 23.9227 29.2975 23.5859 28.8857 23.6232C28.4739 23.6232 28.137 23.9977 28.1743 24.4095L28.3616 28.7897C28.3616 28.902 28.2493 29.0143 28.137 29.0143C28.0247 29.0143 27.9124 28.9393 27.9124 28.7897L27.5006 25.4204C27.4632 25.0086 27.0887 24.7091 26.6769 24.7467C26.2651 24.784 25.9656 25.1585 26.0032 25.5703C26.0032 25.5703 26.6023 30.2126 26.8268 31.9346C27.0514 33.6192 27.4632 35.3039 29.1479 35.3039C30.4583 35.3412 31.207 35.3412 32.5174 35.3412L32.5174 35.3414Z" fill="url(#paint6_linear_844_42)"/>
<path d="M51.1612 52.2631C51.2735 51.6267 51.4234 50.803 51.5731 50.0543H51.4234C50.9367 50.0543 50.4875 49.9047 50.0383 49.6425C49.8137 49.4929 49.6265 49.343 49.4392 49.1184L42.1015 49.2307C42.1764 49.4929 42.2138 49.7548 42.2138 50.017V53.349C42.2138 53.7981 42.1388 54.2099 42.0266 54.5844L52.0598 54.6967C51.8725 54.547 51.7229 54.3971 51.6106 54.2099C51.1988 53.6482 51.0492 52.9745 51.1615 52.2631L51.1612 52.2631Z" fill="url(#paint7_linear_844_42)"/>
<path d="M39.3684 48.3695C38.2452 47.3586 35.5873 45.7489 35.5873 45.7489C35.2128 45.4867 34.6513 45.5993 34.3891 46.0111C34.1646 46.3856 34.2769 46.7974 34.6513 47.1716C35.0258 47.5461 35.8118 48.1825 35.8118 48.1825C36.1487 48.5193 35.9241 48.8189 35.5872 48.8189C34.9508 48.7815 34.5764 48.7439 33.865 48.6692C33.191 48.5191 29.934 47.92 29.934 47.92C29.5222 47.8451 29.1477 48.1073 29.073 48.5191C28.998 48.9309 29.2602 49.3054 29.6721 49.3801L33.6777 50.1288C33.79 50.1661 33.865 50.241 33.865 50.3533V50.4283C33.865 50.5779 33.7527 50.6905 33.6028 50.6529L28.7358 50.3536C28.324 50.3163 27.9495 50.6531 27.9495 51.065C27.9495 51.4768 28.2491 51.8513 28.6609 51.8513L33.7524 52.1882C33.8647 52.1882 33.977 52.3005 33.977 52.4128C33.977 52.5251 33.902 52.6373 33.7524 52.6749L29.3722 52.8622C28.9604 52.8622 28.6235 53.2367 28.6608 53.6485C28.6608 54.0603 29.0353 54.3972 29.4472 54.3599L33.8273 54.1726C33.9396 54.1726 34.0519 54.2849 34.0519 54.3972C34.0519 54.5095 33.977 54.6218 33.8647 54.6218L30.4954 55.0336C30.0836 55.071 29.7841 55.4455 29.8217 55.8573C29.859 56.2691 30.2335 56.5686 30.6453 56.531C30.6453 56.531 35.2876 55.9319 37.0096 55.7074C38.6943 55.4828 40.3789 55.071 40.3789 53.3863V50.0544C40.3789 49.4177 39.8548 48.8187 39.3683 48.3695L39.3684 48.3695Z" fill="url(#paint8_linear_844_42)"/>
</g>
<defs>
<filter id="filter0_d_844_42" x="0" y="0" width="88" height="88" filterUnits="userSpaceOnUse" color-interpolation-filters="sRGB">
<feFlood flood-opacity="0" result="BackgroundImageFix"/>
<feColorMatrix in="SourceAlpha" type="matrix" values="0 0 0 0 0 0 0 0 0 0 0 0 0 0 0 0 0 0 127 0" result="hardAlpha"/>
<feOffset dy="5"/>
<feGaussianBlur stdDeviation="5"/>
<feComposite in2="hardAlpha" operator="out"/>
<feColorMatrix type="matrix" values="0 0 0 0 0.14902 0 0 0 0 0.196078 0 0 0 0 0.219608 0 0 0 0.05 0"/>
<feBlend mode="normal" in2="BackgroundImageFix" result="effect1_dropShadow_844_42"/>
<feBlend mode="normal" in="SourceGraphic" in2="effect1_dropShadow_844_42" result="shape"/>
</filter>
<linearGradient id="paint0_linear_844_42" x1="54.9866" y1="53.8305" x2="45.4053" y2="28.1486" gradientUnits="userSpaceOnUse">
<stop stop-color="#454545"/>
<stop offset="1" stop-color="#004970"/>
</linearGradient>
<linearGradient id="paint1_linear_844_42" x1="49.1466" y1="32.8864" x2="45.7384" y2="18.9396" gradientUnits="userSpaceOnUse">
<stop stop-color="#454545"/>
<stop offset="1" stop-color="#004970"/>
</linearGradient>
<linearGradient id="paint2_linear_844_42" x1="64.0709" y1="40.8215" x2="54.2617" y2="15.5903" gradientUnits="userSpaceOnUse">
<stop stop-color="#454545"/>
<stop offset="1" stop-color="#004970"/>
</linearGradient>
<linearGradient id="paint3_linear_844_42" x1="61.6727" y1="48.7393" x2="48.5937" y2="32.5271" gradientUnits="userSpaceOnUse">
<stop stop-color="#454545"/>
<stop offset="1" stop-color="#004970"/>
</linearGradient>
<linearGradient id="paint4_linear_844_42" x1="65.4804" y1="64.7819" x2="52.137" y2="38.3668" gradientUnits="userSpaceOnUse">
<stop stop-color="#454545"/>
<stop offset="1" stop-color="#004970"/>
</linearGradient>
<linearGradient id="paint5_linear_844_42" x1="35.3672" y1="55.2535" x2="22.307" y2="38.9555" gradientUnits="userSpaceOnUse">
<stop stop-color="#454545"/>
<stop offset="1" stop-color="#004970"/>
</linearGradient>
<linearGradient id="paint6_linear_844_42" x1="40.848" y1="45.5388" x2="27.5319" y2="19.0866" gradientUnits="userSpaceOnUse">
<stop stop-color="#454545"/>
<stop offset="1" stop-color="#004970"/>
</linearGradient>
<linearGradient id="paint7_linear_844_42" x1="55.661" y1="59.2732" x2="52.2089" y2="45.2425" gradientUnits="userSpaceOnUse">
<stop stop-color="#454545"/>
<stop offset="1" stop-color="#004970"/>
</linearGradient>
<linearGradient id="paint8_linear_844_42" x1="44.8401" y1="65.4984" x2="34.9923" y2="40.1835" gradientUnits="userSpaceOnUse">
<stop stop-color="#454545"/>
<stop offset="1" stop-color="#004970"/>
</linearGradient>
</defs>
</svg>
