<svg width="88" height="88" viewBox="0 0 88 88" fill="none" xmlns="http://www.w3.org/2000/svg">
<g filter="url(#filter0_d_844_79)">
<circle r="34" transform="matrix(-1 0 0 1 44 39)" fill="white"/>
<path d="M35.9944 58.6171H46.8971C47.4161 58.6171 47.8489 58.2709 47.9355 57.7518L49.9258 46.8059H32.9229L34.9132 57.7518C35.0426 58.2709 35.4754 58.6171 35.9945 58.6171H35.9944Z" fill="url(#paint0_linear_844_79)"/>
<path d="M41.489 43.258C41.0131 37.7633 41.489 31.1439 44.9503 25.3464C46.4647 26.125 48.368 25.7358 49.4496 24.308L51.0072 22.2314C51.1369 22.015 51.1369 21.7555 50.9205 21.5825L50.3149 21.1498L51.9159 19.1598C52.1323 18.9002 52.0456 18.5109 51.7429 18.3377C51.4834 18.2079 51.1804 18.2945 51.0506 18.5106L49.5362 20.5009L47.4596 18.9002L48.974 16.9099C49.147 16.6935 49.147 16.3908 48.974 16.1744C48.7145 15.9149 48.3252 15.958 48.1519 16.2176L46.6375 18.2079L46.0318 17.7751C45.8154 17.6454 45.5559 17.6454 45.383 17.8617L43.8255 19.9384C42.7438 21.3661 42.8736 23.3561 44.085 24.6109C43.4361 25.5196 40.9699 29.4133 40.2344 35.4271C40.2344 35.4271 40.0181 29.0672 31.9277 29.3702C31.7979 29.3702 31.7113 29.5 31.7547 29.5866C32.2307 31.0143 35.216 38.9317 40.1048 36.4656C39.9319 38.499 39.7586 40.7488 40.1479 43.2147H31.495C31.1489 43.2147 30.9325 43.5177 31.0191 43.8204L31.4519 45.6807C31.5385 45.9837 31.798 46.1997 32.1442 46.1997H50.7912C51.0942 46.1997 51.3969 45.9834 51.4835 45.6807L51.9163 43.8204C52.0029 43.5174 51.7433 43.2147 51.4403 43.2147H41.4895L41.489 43.258ZM32.8794 30.4949C32.8794 30.4949 35.7781 34.7348 39.7152 35.6866C39.7152 35.6866 35.9513 36.1625 32.8794 30.4949Z" fill="url(#paint1_linear_844_79)"/>
</g>
<defs>
<filter id="filter0_d_844_79" x="0" y="0" width="88" height="88" filterUnits="userSpaceOnUse" color-interpolation-filters="sRGB">
<feFlood flood-opacity="0" result="BackgroundImageFix"/>
<feColorMatrix in="SourceAlpha" type="matrix" values="0 0 0 0 0 0 0 0 0 0 0 0 0 0 0 0 0 0 127 0" result="hardAlpha"/>
<feOffset dy="5"/>
<feGaussianBlur stdDeviation="5"/>
<feComposite in2="hardAlpha" operator="out"/>
<feColorMatrix type="matrix" values="0 0 0 0 0.14902 0 0 0 0 0.196078 0 0 0 0 0.219608 0 0 0 0.05 0"/>
<feBlend mode="normal" in2="BackgroundImageFix" result="effect1_dropShadow_844_79"/>
<feBlend mode="normal" in="SourceGraphic" in2="effect1_dropShadow_844_79" result="shape"/>
</filter>
<linearGradient id="paint0_linear_844_79" x1="56.0286" y1="68.3072" x2="47.1798" y2="39.5212" gradientUnits="userSpaceOnUse">
<stop stop-color="#454545"/>
<stop offset="1" stop-color="#004970"/>
</linearGradient>
<linearGradient id="paint1_linear_844_79" x1="59.5864" y1="70.9763" x2="23.1246" y2="13.5827" gradientUnits="userSpaceOnUse">
<stop stop-color="#454545"/>
<stop offset="1" stop-color="#004970"/>
</linearGradient>
</defs>
</svg>
