<svg width="88" height="88" viewBox="0 0 88 88" fill="none" xmlns="http://www.w3.org/2000/svg">
<g filter="url(#filter0_d_844_54)">
<circle r="34" transform="matrix(-1 0 0 1 44 39)" fill="white"/>
<path d="M51.5439 37.1617C50.0612 37.1617 48.8551 38.3678 48.8551 39.8506H47.5107C47.5107 37.8688 48.9484 36.22 50.8354 35.8839C50.5329 33.2032 48.254 31.1119 45.4941 31.1119C44.6862 31.1119 43.897 31.3015 43.1761 31.6469C43.3673 32.3338 43.4774 33.0537 43.4774 33.8007H42.133C42.133 30.0943 39.1174 27.0786 35.4109 27.0786C31.7045 27.0786 28.6889 30.0943 28.6889 33.8007C28.6889 34.4978 28.799 35.1788 29.007 35.8335C31.0827 35.9968 32.7221 37.7337 32.7221 39.8506H31.3777C31.3777 38.3678 30.1716 37.1617 28.6888 37.1617C27.2061 37.1617 26 38.3678 26 39.8506C26 41.3333 27.2061 42.5394 28.6888 42.5394H37.4275V37.1617C37.4275 35.679 38.6336 34.4729 40.1164 34.4729C41.5991 34.4729 42.8052 35.679 42.8052 37.1617V42.5394H51.5439C53.0267 42.5394 54.2327 41.3333 54.2327 39.8506C54.2327 38.3675 53.0267 37.1617 51.5439 37.1617L51.5439 37.1617Z" fill="url(#paint0_linear_844_54)"/>
<path d="M41.7273 53.1748L41.4605 52.9731V37.162C41.4605 36.4205 40.8576 35.8176 40.1161 35.8176C39.3746 35.8176 38.7717 36.4205 38.7717 37.162V38.5065H40.1161V39.8509H38.7717V41.1953H40.1161V42.5397H38.7717V43.8841H40.1161V45.2285H38.7717V46.573H40.1161V47.9174H38.7717V49.2618H40.1161V50.6062H38.7717V52.9724L38.5055 53.1747C37.6718 53.8052 37.2868 54.7934 37.4744 55.8191C37.6673 56.8725 38.4947 57.7256 39.5327 57.9399C40.3636 58.1133 41.1721 57.9197 41.8122 57.3988C42.4433 56.8844 42.8049 56.1243 42.8049 55.3116C42.8049 54.4705 42.4124 53.6914 41.7273 53.1747L41.7273 53.1748ZM40.7883 55.9839H39.4439V54.6395H40.7883V55.9839Z" fill="url(#paint1_linear_844_54)"/>
<path d="M60.2828 31.1121C60.2828 27.035 56.9655 23.7178 52.8885 23.7178C49.3089 23.7178 46.2531 26.3226 45.6178 29.7736C49.0596 29.837 51.8759 32.4955 52.1853 35.8733C53.5189 36.0879 54.6334 36.9554 55.1913 38.1393C58.2163 37.1559 60.2827 34.3458 60.2827 31.112L60.2828 31.1121Z" fill="url(#paint2_linear_844_54)"/>
<path d="M63.567 34.8562C64.0228 34.7413 64.8712 34.5267 65.0014 34.3341C64.9618 34.1681 64.3595 33.5811 64.0349 33.2661C63.3479 32.5972 62.6373 31.9061 62.6373 31.1129C62.6373 30.3198 63.348 29.6287 64.0349 28.9598C64.359 28.6444 64.9618 28.0577 64.9879 27.8339C64.8709 27.6982 64.0219 27.4837 63.567 27.3687C62.6157 27.1287 61.7178 26.9021 61.3346 26.2389C60.9454 25.5661 61.1989 24.6658 61.4678 23.7127C61.5936 23.2676 61.8261 22.4394 61.7301 22.2311C61.5686 22.1774 60.7347 22.4085 60.2887 22.5336C59.3347 22.8031 58.4336 23.0558 57.7619 22.6669C57.099 22.2837 56.8725 21.3858 56.6321 20.4345C56.5171 19.9786 56.3026 19.1302 56.1099 19C55.944 19.0396 55.357 19.6419 55.0419 19.9666C54.3724 20.6535 53.6813 21.3633 52.8882 21.3633C52.0956 21.3633 51.4039 20.6526 50.735 19.9658C50.4196 19.6416 49.833 19.0388 49.6091 19.0127C49.4734 19.1297 49.2589 19.9787 49.1439 20.4336C48.9039 21.3849 48.6773 22.2828 48.0141 22.666C47.3425 23.0552 46.4419 22.8026 45.4879 22.5328C45.0429 22.4076 44.2134 22.1751 44.0064 22.2705C43.9505 22.4386 44.1837 23.2668 44.3088 23.7119C44.5777 24.6659 44.831 25.5659 44.4421 26.2387C44.0589 26.9016 43.161 27.1281 42.2097 27.3685C41.7922 27.4742 41.0507 27.6629 40.8289 27.8424C41.6107 28.5536 42.2508 29.414 42.7057 30.3812C43.1964 30.1573 43.712 30.0001 44.2425 29.8998C44.8391 25.64 48.533 22.3738 52.8882 22.3738C57.7066 22.3738 61.6269 26.2942 61.6269 31.1125C61.6269 34.9521 59.1599 38.285 55.5549 39.4333C55.5696 39.571 55.5771 39.71 55.5771 39.8513C55.5771 40.6855 55.3223 41.4619 54.8869 42.1059C54.9379 42.1584 54.9889 42.2055 55.0402 42.2584C55.3562 42.5825 55.9438 43.1865 56.1674 43.213C56.303 43.0959 56.5176 42.247 56.6325 41.792C56.8726 40.8407 57.0992 39.9429 57.7624 39.5596C58.434 39.171 59.3346 39.424 60.2886 39.6929C60.7336 39.818 61.5609 40.0497 61.7701 39.9552C61.8259 39.7871 61.5927 38.9588 61.4676 38.5138C61.1987 37.5598 60.9454 36.6598 61.3344 35.987C61.7176 35.3232 62.6158 35.0966 63.567 34.8565L63.567 34.8562Z" fill="url(#paint3_linear_844_54)"/>
</g>
<defs>
<filter id="filter0_d_844_54" x="0" y="0" width="88" height="88" filterUnits="userSpaceOnUse" color-interpolation-filters="sRGB">
<feFlood flood-opacity="0" result="BackgroundImageFix"/>
<feColorMatrix in="SourceAlpha" type="matrix" values="0 0 0 0 0 0 0 0 0 0 0 0 0 0 0 0 0 0 127 0" result="hardAlpha"/>
<feOffset dy="5"/>
<feGaussianBlur stdDeviation="5"/>
<feComposite in2="hardAlpha" operator="out"/>
<feColorMatrix type="matrix" values="0 0 0 0 0.14902 0 0 0 0 0.196078 0 0 0 0 0.219608 0 0 0 0.05 0"/>
<feBlend mode="normal" in2="BackgroundImageFix" result="effect1_dropShadow_844_54"/>
<feBlend mode="normal" in="SourceGraphic" in2="effect1_dropShadow_844_54" result="shape"/>
</filter>
<linearGradient id="paint0_linear_844_54" x1="64.3661" y1="55.2238" x2="54.9262" y2="16.2699" gradientUnits="userSpaceOnUse">
<stop stop-color="#454545"/>
<stop offset="1" stop-color="#004970"/>
</linearGradient>
<linearGradient id="paint1_linear_844_54" x1="44.7349" y1="76.2023" x2="19.802" y2="62.5455" gradientUnits="userSpaceOnUse">
<stop stop-color="#454545"/>
<stop offset="1" stop-color="#004970"/>
</linearGradient>
<linearGradient id="paint2_linear_844_54" x1="65.5464" y1="49.971" x2="51.471" y2="17.627" gradientUnits="userSpaceOnUse">
<stop stop-color="#454545"/>
<stop offset="1" stop-color="#004970"/>
</linearGradient>
<linearGradient id="paint3_linear_844_54" x1="73.6775" y1="63.0778" x2="49.7495" y2="9.09636" gradientUnits="userSpaceOnUse">
<stop stop-color="#454545"/>
<stop offset="1" stop-color="#004970"/>
</linearGradient>
</defs>
</svg>
