<svg width="88" height="88" viewBox="0 0 88 88" fill="none" xmlns="http://www.w3.org/2000/svg">
<g filter="url(#filter0_d_422_248)">
<circle r="34" transform="matrix(-1 0 0 1 44 39)" fill="white"/>
<path d="M32.1054 41.2733C31.8727 41.171 31.632 41.084 31.377 41.0319V36.5102C32.8033 36.2198 33.929 35.0931 34.2197 33.667H54.7828C55.0732 35.0933 56.1999 36.2198 57.626 36.5102V41.0319C56.1996 41.3223 55.0732 42.449 54.7828 43.8751H40.8551V41.0818C40.8551 38.684 39.0349 36.7104 36.7122 36.5892C36.6339 36.585 36.5548 36.5829 36.4765 36.5829C34.0662 36.5829 32.1051 38.5453 32.1051 40.958L32.1054 41.2733ZM44.5015 41.6894C46.1133 41.6894 47.4199 40.3828 47.4199 38.771C47.4199 37.1592 46.1133 35.8526 44.5015 35.8526C42.8897 35.8526 41.5831 37.1592 41.5831 38.771C41.5831 40.3828 42.8897 41.6894 44.5015 41.6894Z" fill="url(#paint0_linear_422_248)"/>
<path d="M28.4586 29.2901H60.5416C61.3509 29.2901 62 29.9463 62 30.7485V46.79C62 47.5993 61.351 48.2484 60.5416 48.2484H40.8554V45.3342H55.4384C55.8415 45.3342 56.1677 45.0079 56.1677 44.605C56.1677 43.3987 57.1489 42.4174 58.3552 42.4174C58.7583 42.4174 59.0845 42.0911 59.0845 41.6882V35.855C59.0845 35.4522 58.7584 35.1258 58.3552 35.1258C57.149 35.1258 56.1677 34.1445 56.1677 32.9382C56.1677 32.5353 55.8415 32.2089 55.4384 32.2089H33.5632C33.1601 32.2089 32.8339 32.5353 32.8339 32.9382C32.8339 34.1445 31.8527 35.1258 30.6472 35.1258C30.2441 35.1258 29.9179 35.4521 29.9179 35.855V41.6882C29.9179 42.091 30.244 42.4174 30.6472 42.4174C31.2089 42.4174 31.717 42.6364 32.1047 42.9863V48.248L28.4583 48.2483C27.6561 48.2483 26.9999 47.5992 26.9999 46.7899V30.7484C26.9999 29.9465 27.6561 29.29 28.4583 29.29L28.4586 29.2901Z" fill="url(#paint1_linear_422_248)"/>
<path d="M33.5638 25.6456C33.5638 24.4374 34.5432 23.458 35.7514 23.458C36.9596 23.458 37.939 24.4374 37.939 25.6456V27.8308H33.5638L33.5638 25.6456Z" fill="url(#paint2_linear_422_248)"/>
<path d="M38.6683 24.1876C38.6683 22.9794 39.6477 22 40.8559 22C42.0641 22 43.0435 22.9794 43.0435 24.1876V27.8311H38.6683L38.6683 24.1876Z" fill="url(#paint3_linear_422_248)"/>
<path d="M43.7527 26.3282C43.7527 25.12 44.7321 24.1406 45.9403 24.1406C47.1485 24.1406 48.1279 25.12 48.1279 26.3282V27.8307H43.7528L43.7527 26.3282Z" fill="url(#paint4_linear_422_248)"/>
<path d="M51.0643 26.375C52.0146 26.375 52.8151 26.9844 53.1172 27.831H49.0115C49.3133 26.9846 50.1139 26.375 51.0642 26.375H51.0643Z" fill="url(#paint5_linear_422_248)"/>
<path d="M36.6363 38.0461C38.1843 38.127 39.397 39.4606 39.397 41.0824V48.2507C39.397 49.055 40.0513 49.7091 40.8554 49.7091H53.2515V51.1669C53.2515 53.9813 50.9616 56.271 48.1474 56.271H38.6682C35.8541 56.271 33.5641 53.9814 33.5641 51.1669V40.9585C33.5639 39.2986 34.9445 37.9568 36.6364 38.0462L36.6363 38.0461Z" fill="url(#paint6_linear_422_248)"/>
</g>
<defs>
<filter id="filter0_d_422_248" x="0" y="0" width="88" height="88" filterUnits="userSpaceOnUse" color-interpolation-filters="sRGB">
<feFlood flood-opacity="0" result="BackgroundImageFix"/>
<feColorMatrix in="SourceAlpha" type="matrix" values="0 0 0 0 0 0 0 0 0 0 0 0 0 0 0 0 0 0 127 0" result="hardAlpha"/>
<feOffset dy="5"/>
<feGaussianBlur stdDeviation="5"/>
<feComposite in2="hardAlpha" operator="out"/>
<feColorMatrix type="matrix" values="0 0 0 0 0.14902 0 0 0 0 0.196078 0 0 0 0 0.219608 0 0 0 0.05 0"/>
<feBlend mode="normal" in2="BackgroundImageFix" result="effect1_dropShadow_422_248"/>
<feBlend mode="normal" in="SourceGraphic" in2="effect1_dropShadow_422_248" result="shape"/>
</filter>
<linearGradient id="paint0_linear_422_248" x1="57.626" y1="26.9588" x2="57.626" y2="51.4582" gradientUnits="userSpaceOnUse">
<stop stop-color="#004970"/>
<stop offset="1" stop-color="#00ABBD"/>
</linearGradient>
<linearGradient id="paint1_linear_422_248" x1="62" y1="16.8317" x2="62" y2="62.3317" gradientUnits="userSpaceOnUse">
<stop stop-color="#004970"/>
<stop offset="1" stop-color="#00ABBD"/>
</linearGradient>
<linearGradient id="paint2_linear_422_248" x1="37.939" y1="20.5845" x2="37.939" y2="31.0791" gradientUnits="userSpaceOnUse">
<stop stop-color="#004970"/>
<stop offset="1" stop-color="#00ABBD"/>
</linearGradient>
<linearGradient id="paint3_linear_422_248" x1="43.0435" y1="18.1681" x2="43.0435" y2="32.1628" gradientUnits="userSpaceOnUse">
<stop stop-color="#004970"/>
<stop offset="1" stop-color="#00ABBD"/>
</linearGradient>
<linearGradient id="paint4_linear_422_248" x1="48.1279" y1="21.7157" x2="48.1279" y2="30.572" gradientUnits="userSpaceOnUse">
<stop stop-color="#004970"/>
<stop offset="1" stop-color="#00ABBD"/>
</linearGradient>
<linearGradient id="paint5_linear_422_248" x1="53.1172" y1="25.4182" x2="53.1172" y2="28.9126" gradientUnits="userSpaceOnUse">
<stop stop-color="#004970"/>
<stop offset="1" stop-color="#00ABBD"/>
</linearGradient>
<linearGradient id="paint6_linear_422_248" x1="53.2515" y1="26.0629" x2="53.2515" y2="69.8125" gradientUnits="userSpaceOnUse">
<stop stop-color="#004970"/>
<stop offset="1" stop-color="#00ABBD"/>
</linearGradient>
</defs>
</svg>
