<svg width="88" height="88" viewBox="0 0 88 88" fill="none" xmlns="http://www.w3.org/2000/svg">
<g filter="url(#filter0_d_422_255)">
<circle r="34" transform="matrix(-1 0 0 1 44 39)" fill="white"/>
<path d="M49.1009 19.6005C49.1009 19.2403 48.8606 19 48.5003 19H39.0112C38.6509 19 38.4106 19.2403 38.4106 19.6005V22.6635H49.0408L49.0405 19.6005H49.1009Z" fill="url(#paint0_linear_422_255)"/>
<path d="M47.7798 25.1261V23.8047H39.792V31.9723C39.792 32.3926 40.0923 32.6932 40.5128 32.6932C40.8731 32.6932 41.2337 32.3929 41.2337 31.9723C41.2337 31.612 41.534 31.3718 41.8342 31.3718C42.1945 31.3718 42.4348 31.612 42.4348 31.9723C42.4348 32.3326 42.7351 32.6932 43.1556 32.6932C43.5159 32.6932 43.8765 32.3929 43.8765 31.9723C43.8765 31.612 44.1768 31.3718 44.4771 31.3718C44.7773 31.3718 45.0776 31.612 45.0776 31.9723C45.0776 32.3326 45.3779 32.6932 45.7985 32.6932C46.2187 32.6932 46.5193 32.3929 46.5193 31.9723C46.5193 31.612 46.8196 31.3718 47.1199 31.3718C47.4801 31.3718 47.7204 31.612 47.7204 31.9723C47.7204 32.3926 48.0807 32.7531 48.5012 32.6932C48.8615 32.6332 49.1618 32.3329 49.1618 31.9124V29.9905C49.1618 29.8102 49.2218 29.6302 49.342 29.5099C49.462 29.3899 49.5823 29.3296 49.7623 29.3296H50.6632V27.8883C50.6632 27.2277 50.1226 26.6872 49.462 26.6872C48.5004 26.7472 47.7798 26.0266 47.7798 25.1258L47.7798 25.1261Z" fill="url(#paint1_linear_422_255)"/>
<path d="M34.1467 45.5462H41.7743V43.6843C41.7743 43.0237 42.3148 42.4831 42.9754 42.4831H45.8582C46.5187 42.4831 47.0593 43.0237 47.0593 43.6843V45.5462H53.0651C53.8459 44.4051 50.2423 49.7503 60.8122 34.1955C60.1517 33.8952 60.2117 34.0755 51.924 34.0152L51.9243 32.0333H52.7651C53.0654 32.0333 53.3657 31.793 53.3657 31.4327V29.6308C53.3657 28.9703 52.8251 28.4297 52.1646 28.4297H51.8043V30.5316H50.3029V31.853V31.973H50.7232V33.9549L38.1706 33.9552V32.0333H38.5909V28.4897H36.8492C36.1284 28.4897 35.5882 29.0303 35.5882 29.6908V31.4327C35.5882 31.793 35.8885 32.0333 36.2487 32.0333H37.0295V34.0152C28.5016 34.0752 28.7416 33.8949 28.021 34.1955C37.3304 51.492 32.8857 43.2642 34.147 45.5462L34.1467 45.5462Z" fill="url(#paint2_linear_422_255)"/>
<path d="M42.9756 48.6082H45.8584V43.6836H42.9756V48.6082Z" fill="url(#paint3_linear_422_255)"/>
<path d="M61.6537 35.0957L61.4134 35.456L53.846 46.5066C53.726 46.6869 53.5457 46.7469 53.3654 46.7469H47.0594V48.6088C47.0594 49.2693 46.5188 49.8099 45.8583 49.8099H42.9755C42.315 49.8099 41.7744 49.2694 41.7744 48.6088V46.7469H33.7866C33.5463 46.7469 33.3663 46.6269 33.246 46.4466L27.3606 35.4561L27.1803 35.0959C27.0603 35.3361 27 35.5761 27 35.8164V54.0742C27 55.0953 27.7808 55.8758 28.8016 55.8758H60.0317C61.0528 55.8758 61.8334 55.095 61.8334 54.0742L61.8339 35.8164C61.8339 35.5762 61.7736 35.2759 61.6536 35.0959L61.6537 35.0957Z" fill="url(#paint4_linear_422_255)"/>
</g>
<defs>
<filter id="filter0_d_422_255" x="0" y="0" width="88" height="88" filterUnits="userSpaceOnUse" color-interpolation-filters="sRGB">
<feFlood flood-opacity="0" result="BackgroundImageFix"/>
<feColorMatrix in="SourceAlpha" type="matrix" values="0 0 0 0 0 0 0 0 0 0 0 0 0 0 0 0 0 0 127 0" result="hardAlpha"/>
<feOffset dy="5"/>
<feGaussianBlur stdDeviation="5"/>
<feComposite in2="hardAlpha" operator="out"/>
<feColorMatrix type="matrix" values="0 0 0 0 0.14902 0 0 0 0 0.196078 0 0 0 0 0.219608 0 0 0 0.05 0"/>
<feBlend mode="normal" in2="BackgroundImageFix" result="effect1_dropShadow_422_255"/>
<feBlend mode="normal" in="SourceGraphic" in2="effect1_dropShadow_422_255" result="shape"/>
</filter>
<linearGradient id="paint0_linear_422_255" x1="38.4106" y1="16.5925" x2="38.4106" y2="25.385" gradientUnits="userSpaceOnUse">
<stop stop-color="#004970"/>
<stop offset="1" stop-color="#00ABBD"/>
</linearGradient>
<linearGradient id="paint1_linear_422_255" x1="39.792" y1="17.9594" x2="39.792" y2="39.3075" gradientUnits="userSpaceOnUse">
<stop stop-color="#004970"/>
<stop offset="1" stop-color="#00ABBD"/>
</linearGradient>
<linearGradient id="paint2_linear_422_255" x1="28.021" y1="17.167" x2="28.021" y2="58.3002" gradientUnits="userSpaceOnUse">
<stop stop-color="#004970"/>
<stop offset="1" stop-color="#00ABBD"/>
</linearGradient>
<linearGradient id="paint3_linear_422_255" x1="42.9756" y1="40.4474" x2="42.9756" y2="52.2665" gradientUnits="userSpaceOnUse">
<stop stop-color="#004970"/>
<stop offset="1" stop-color="#00ABBD"/>
</linearGradient>
<linearGradient id="paint4_linear_422_255" x1="27" y1="21.4402" x2="27" y2="71.3124" gradientUnits="userSpaceOnUse">
<stop stop-color="#004970"/>
<stop offset="1" stop-color="#00ABBD"/>
</linearGradient>
</defs>
</svg>
